<?xml version="1.0" encoding="UTF-8" ?>
<!DOCTYPE svg PUBLIC "-//W3C//DTD SVG 1.1//EN" "http://www.w3.org/Graphics/SVG/1.1/DTD/svg11.dtd">
<svg width="1024pt" height="1024pt" viewBox="0 0 1024 1024" version="1.1" xmlns="http://www.w3.org/2000/svg">
<g id="#000000ff">
</g>
<g id="#fdfdfdff">
<path fill="#fdfdfd" opacity="1.00" d=" M 74.58 0.00 L 80.86 0.00 C 80.51 2.16 79.57 4.78 81.43 6.54 C 84.86 10.22 90.37 10.45 95.06 10.24 C 98.26 10.32 101.58 8.70 102.95 5.71 C 104.25 3.79 102.53 1.79 101.83 0.00 L 109.51 0.00 C 111.71 6.80 106.74 14.43 99.79 15.50 C 92.30 16.70 83.76 16.38 77.61 11.41 C 74.21 8.67 74.21 3.97 74.58 0.00 Z" />
<path fill="#fdfdfd" opacity="1.00" d=" M 248.25 0.00 L 255.29 0.00 C 257.77 3.49 261.59 5.57 264.94 8.10 C 274.48 15.21 284.37 21.85 293.75 29.19 C 295.38 30.44 297.03 31.68 298.86 32.62 C 299.80 31.32 300.58 29.92 301.38 28.53 C 288.31 18.63 275.57 8.16 261.30 0.00 L 268.55 0.00 C 281.07 7.31 291.83 17.18 303.93 25.11 C 308.06 17.18 306.90 7.12 301.63 0.00 L 306.70 0.00 C 311.14 8.80 311.62 19.79 306.35 28.36 C 302.23 34.92 298.34 42.54 290.97 45.96 C 286.02 48.33 280.42 49.70 274.93 48.87 C 266.99 48.11 258.67 45.95 252.88 40.12 C 242.49 30.03 238.87 11.93 248.25 0.00 M 251.22 6.18 C 249.46 7.57 248.87 9.87 248.58 11.98 C 248.28 17.23 248.27 22.71 250.40 27.62 C 254.06 36.44 263.01 42.44 272.35 43.59 C 280.03 44.69 288.91 44.32 294.71 38.52 C 296.57 36.54 293.64 34.90 292.34 33.63 C 281.81 25.36 270.41 18.28 259.58 10.42 C 256.89 8.90 254.46 6.24 251.22 6.18 Z" />
<path fill="#fdfdfd" opacity="1.00" d=" M 383.56 0.00 L 388.73 0.00 C 389.00 7.70 389.95 15.36 390.51 23.05 C 390.84 29.01 392.00 34.99 394.53 40.43 C 396.95 45.38 403.03 46.67 408.02 47.11 C 413.82 46.59 421.28 44.21 422.47 37.62 C 424.45 25.12 421.80 12.54 421.56 0.00 L 427.59 0.00 C 428.19 11.02 429.39 22.05 428.97 33.10 C 428.82 40.46 424.09 47.38 417.44 50.44 C 410.64 53.75 402.56 52.88 395.71 50.21 C 389.60 47.20 387.49 40.04 386.24 33.85 C 384.33 22.68 384.43 11.28 383.56 0.00 Z" />
<path fill="#fdfdfd" opacity="1.00" d=" M 554.02 0.00 L 565.43 0.00 C 565.83 2.13 566.62 4.49 569.02 5.02 C 571.71 3.69 573.93 1.62 576.44 0.00 L 590.73 0.00 C 587.25 6.75 580.57 13.17 572.46 12.50 C 565.07 10.63 559.78 4.61 554.02 0.00 Z" />
<path fill="#fdfdfd" opacity="1.00" d=" M 681.23 0.00 L 693.73 0.00 C 700.06 2.54 706.88 3.44 713.61 4.23 C 719.68 4.96 726.01 5.19 731.90 3.32 C 733.06 2.37 733.90 1.10 734.93 0.00 L 739.24 0.00 C 738.16 5.46 737.57 11.18 735.30 16.30 C 732.87 21.18 726.94 22.06 722.05 21.87 C 708.91 21.31 694.83 20.87 683.41 13.58 C 680.73 9.68 681.53 4.50 681.23 0.00 M 686.50 2.18 C 686.82 5.46 684.94 10.39 688.77 12.16 C 692.38 13.89 696.37 14.63 700.27 15.39 C 708.76 16.82 717.40 17.89 726.02 17.27 C 727.68 17.05 729.55 17.02 730.91 15.88 C 732.15 13.45 732.60 10.73 733.26 8.12 C 717.57 9.18 701.05 8.77 686.50 2.18 Z" />
<path fill="#fdfdfd" opacity="1.00" d=" M 864.32 0.00 L 870.03 0.00 C 871.82 3.04 873.51 6.52 876.87 8.13 C 880.12 9.68 884.00 11.05 887.55 9.60 C 891.50 7.84 892.85 3.41 894.97 0.00 L 900.42 0.00 C 898.57 4.83 897.08 10.49 892.19 13.17 C 885.25 17.89 875.89 15.23 870.15 9.84 C 867.20 7.26 865.91 3.45 864.32 0.00 Z" />
<path fill="#fdfdfd" opacity="1.00" d=" M 556.35 21.31 C 564.35 19.99 572.73 21.47 579.99 24.98 C 588.18 29.38 591.31 39.21 590.88 48.00 C 591.38 56.30 588.62 64.76 582.62 70.64 C 579.87 73.90 575.51 74.69 571.63 75.82 C 563.20 78.18 553.98 76.80 546.30 72.72 C 540.46 69.67 535.91 64.11 534.36 57.67 C 532.13 48.43 533.51 38.01 539.38 30.35 C 543.19 24.84 549.77 21.77 556.35 21.31 M 558.08 25.68 C 558.77 35.49 560.81 45.16 561.62 54.96 C 562.32 60.19 562.41 65.54 563.80 70.65 C 565.99 70.21 571.28 72.01 570.40 68.22 C 568.05 54.32 567.74 40.05 563.41 26.52 C 561.85 25.50 559.85 25.77 558.08 25.68 M 569.36 26.03 C 569.43 31.57 570.96 36.94 571.79 42.39 C 573.48 51.07 574.71 59.84 576.68 68.46 C 581.44 66.35 584.15 61.26 585.27 56.39 C 586.41 50.00 586.66 43.07 583.99 37.01 C 581.50 31.05 575.71 26.88 569.36 26.03 M 539.82 41.58 C 538.73 47.70 537.57 54.52 540.78 60.23 C 544.25 66.23 551.02 70.61 558.08 70.31 C 558.25 66.95 557.94 63.59 557.47 60.26 C 556.09 50.59 554.90 40.90 553.60 31.22 C 553.26 29.87 553.41 28.06 552.01 27.29 C 545.94 29.63 540.85 35.01 539.82 41.58 Z" />
<path fill="#fdfdfd" opacity="1.00" d=" M 162.39 22.51 C 167.64 20.55 173.68 22.57 177.16 26.83 C 184.60 36.17 189.70 47.05 195.68 57.33 C 200.18 65.06 203.74 73.29 207.69 81.30 C 210.34 86.51 213.17 92.40 211.24 98.35 C 208.10 108.70 194.77 112.82 185.44 108.58 C 179.56 106.11 175.73 100.54 172.99 95.02 C 169.01 86.27 165.46 77.33 161.47 68.59 C 157.13 60.02 152.13 51.53 150.34 41.97 C 149.41 37.61 149.93 32.56 153.17 29.24 C 155.82 26.51 158.78 23.86 162.39 22.51 M 165.49 28.61 C 162.07 29.56 158.26 31.33 156.94 34.89 C 155.19 38.88 156.06 43.46 157.64 47.35 C 160.61 54.21 163.95 60.90 167.47 67.48 C 168.40 69.23 170.06 71.71 172.33 70.30 C 178.72 67.31 185.08 63.77 190.22 58.91 C 189.31 55.75 187.36 53.06 185.85 50.18 C 182.31 44.12 178.98 37.89 174.64 32.35 C 172.54 29.64 169.02 27.42 165.49 28.61 M 172.85 76.93 C 170.57 77.97 172.20 80.51 172.75 82.17 C 175.96 89.48 178.46 98.01 185.58 102.54 C 191.51 106.49 200.18 105.23 204.65 99.66 C 207.13 96.59 206.17 92.40 205.13 88.96 C 202.37 80.57 198.07 72.78 193.83 65.06 C 186.56 68.49 179.55 72.50 172.85 76.93 Z" />
<path fill="#fdfdfd" opacity="1.00" d=" M 959.41 51.52 C 963.43 49.98 968.07 51.06 971.56 53.44 C 978.42 57.46 985.07 63.13 987.33 71.05 C 988.23 76.27 984.48 80.73 981.83 84.85 C 973.40 95.72 964.50 106.21 956.16 117.16 C 949.23 125.81 943.09 135.37 934.12 142.11 C 929.50 145.36 923.53 147.86 917.88 146.00 C 910.82 143.62 904.14 139.11 900.62 132.38 C 898.44 128.49 898.36 123.53 900.52 119.62 C 903.48 114.06 907.10 108.87 910.81 103.79 C 916.54 96.52 921.85 88.92 928.09 82.08 C 934.93 74.59 941.49 66.85 948.38 59.40 C 951.40 56.00 955.20 53.26 959.41 51.52 M 961.40 56.45 C 956.41 58.25 953.09 62.82 949.31 66.33 C 942.96 72.96 936.69 79.79 931.77 87.57 C 930.81 89.37 933.18 90.65 934.26 91.72 C 941.54 97.33 948.49 103.41 956.02 108.67 C 958.20 108.39 959.15 105.95 960.51 104.48 C 965.38 98.05 970.16 91.54 975.35 85.36 C 977.65 82.16 981.07 79.21 981.24 75.00 C 981.01 69.06 976.53 64.35 972.04 60.96 C 968.91 58.78 965.40 56.07 961.40 56.45 M 925.25 94.12 C 923.27 95.07 922.01 96.97 920.60 98.56 C 915.05 105.48 909.86 112.71 905.40 120.38 C 904.32 122.31 903.35 124.58 903.92 126.83 C 906.06 132.89 911.02 137.66 916.89 140.13 C 921.53 142.62 927.08 140.80 931.38 138.42 C 937.50 134.95 940.95 128.61 945.56 123.55 C 947.83 120.77 950.42 118.13 951.95 114.85 C 952.51 112.11 949.00 111.14 947.40 109.60 C 940.15 104.50 933.47 98.58 925.98 93.84 L 925.25 94.12 Z" />
<path fill="#fdfdfd" opacity="1.00" d=" M 842.42 61.64 C 849.58 60.24 856.52 63.72 862.06 67.96 C 865.97 71.19 870.04 74.92 871.30 80.05 C 872.11 84.36 869.85 88.92 866.08 91.10 C 863.17 93.02 859.43 92.79 856.16 92.18 C 850.48 90.17 845.07 87.33 840.20 83.78 C 836.17 80.86 833.20 76.06 833.51 70.97 C 833.82 66.26 837.89 62.40 842.42 61.64 M 842.35 67.28 C 838.82 68.73 837.75 73.92 840.38 76.66 C 843.00 79.46 846.47 81.23 849.62 83.35 C 852.69 85.36 856.13 87.37 859.96 87.03 C 863.25 87.07 867.00 83.83 865.81 80.33 C 864.44 75.99 859.99 73.92 856.63 71.34 C 852.51 68.69 847.41 64.98 842.35 67.28 Z" />
<path fill="#fdfdfd" opacity="1.00" d=" M 730.30 75.28 C 732.88 74.37 735.70 74.64 738.24 75.59 C 750.61 79.38 761.00 87.32 771.65 94.36 C 779.69 99.80 787.42 105.84 793.82 113.18 C 797.83 117.47 802.07 122.50 801.81 128.75 C 801.29 135.78 798.50 143.36 792.27 147.25 C 785.86 151.53 777.00 150.35 770.87 146.11 C 758.53 137.84 746.62 128.94 734.19 120.79 C 725.57 115.03 718.38 105.73 718.11 95.01 C 717.61 86.82 722.68 78.38 730.30 75.28 M 737.43 81.47 C 735.37 83.11 733.99 85.38 732.35 87.39 C 729.52 90.90 726.43 94.33 724.62 98.51 C 723.16 101.17 726.85 105.39 729.26 102.37 C 733.79 97.11 737.40 91.08 741.49 85.47 C 743.37 83.16 739.21 80.60 737.43 81.47 M 727.24 83.37 C 726.63 84.77 727.05 85.19 728.51 84.62 C 729.07 83.20 728.64 82.79 727.24 83.37 M 742.99 93.99 C 739.72 99.67 735.00 104.36 731.84 110.10 C 731.73 111.87 733.90 112.64 734.95 113.77 C 740.45 109.25 744.62 103.38 748.43 97.43 C 750.15 94.59 752.07 91.83 753.11 88.64 C 751.76 87.83 750.46 86.92 748.95 86.46 C 746.01 88.03 744.85 91.41 742.99 93.99 M 752.48 101.44 C 749.11 106.75 744.79 111.43 741.67 116.91 C 742.43 116.87 743.95 116.77 744.70 116.72 C 749.34 113.03 752.88 108.18 756.68 103.67 C 758.99 100.59 761.98 96.43 759.31 92.67 C 756.22 94.88 754.64 98.44 752.48 101.44 M 755.71 112.70 C 753.29 116.03 750.02 118.77 748.29 122.56 C 748.86 122.42 750.01 122.16 750.59 122.02 C 755.71 117.53 759.22 111.58 762.89 105.92 C 764.34 103.52 766.18 101.17 766.30 98.25 C 762.03 102.49 759.63 108.17 755.71 112.70 M 772.33 104.23 C 768.47 108.15 765.62 112.93 762.28 117.28 C 759.86 120.85 756.86 124.06 754.92 127.94 C 757.58 130.77 761.09 132.56 764.13 134.92 C 768.38 137.66 772.14 141.41 777.15 142.75 C 780.41 143.84 784.29 144.47 787.37 142.53 C 792.34 139.46 795.24 133.70 795.81 128.00 C 796.22 124.26 793.20 121.56 790.97 119.02 C 786.61 114.69 782.46 110.08 777.38 106.57 C 775.82 105.60 774.35 103.80 772.33 104.23 Z" />
<path fill="#fdfdfd" opacity="1.00" d=" M 0.00 82.30 C 5.86 81.64 12.63 81.37 17.20 85.79 C 22.43 90.28 22.12 97.69 22.54 103.96 C 23.71 115.25 23.03 126.61 22.38 137.91 C 21.72 148.77 19.92 159.57 17.02 170.05 C 14.61 177.38 6.65 179.96 0.00 182.01 L 0.00 176.23 C 3.76 174.86 8.49 174.46 10.76 170.70 C 13.96 165.40 13.92 158.95 15.04 153.03 C 15.72 147.41 17.40 141.83 16.96 136.14 C 11.77 133.46 5.61 134.86 0.00 134.09 L 0.00 127.97 C 5.79 128.61 11.62 128.86 17.43 129.14 C 17.99 123.77 17.69 118.36 17.43 112.99 C 17.20 106.84 18.06 100.53 16.34 94.53 C 14.83 90.99 11.89 87.62 7.97 86.85 C 5.31 86.59 2.65 87.15 0.00 87.39 L 0.00 82.30 Z" />
<path fill="#fdfdfd" opacity="1.00" d=" M 1006.17 95.91 C 1009.13 88.42 1016.52 83.98 1024.00 82.00 L 1024.00 87.24 C 1018.78 89.06 1013.96 92.48 1011.62 97.63 C 1008.95 102.34 1009.14 107.88 1008.76 113.10 C 1008.49 117.96 1007.36 122.72 1007.15 127.58 C 1012.77 127.62 1018.38 127.75 1024.00 128.08 L 1024.00 134.23 C 1018.22 134.32 1012.20 132.77 1006.60 134.60 C 1004.77 143.88 1004.75 153.51 1005.03 162.94 C 1005.11 172.23 1015.47 178.37 1024.00 176.24 L 1024.00 182.07 C 1019.93 182.20 1015.65 182.87 1011.78 181.25 C 1004.81 178.62 999.79 171.50 999.77 164.03 C 999.72 147.99 1001.59 132.02 1002.90 116.05 C 1003.45 109.28 1004.09 102.42 1006.17 95.91 Z" />
<path fill="#fdfdfd" opacity="1.00" d=" M 335.29 90.35 C 340.82 89.00 346.79 90.48 351.52 93.52 C 355.83 96.48 357.99 101.87 357.75 107.00 C 357.74 112.80 355.58 119.23 350.44 122.44 C 346.51 124.80 341.69 126.03 337.16 124.90 C 330.10 122.71 325.09 115.98 323.96 108.82 C 323.46 105.48 322.94 101.75 324.69 98.69 C 326.72 94.47 331.05 91.90 335.29 90.35 M 336.35 96.38 C 332.05 97.59 329.54 102.36 330.19 106.63 C 330.80 111.46 333.61 116.24 338.04 118.44 C 345.32 120.44 352.96 113.43 351.92 106.00 C 351.62 98.62 342.74 94.85 336.35 96.38 Z" />
<path fill="#fdfdfd" opacity="1.00" d=" M 0.00 90.72 C 1.20 91.15 2.40 91.57 3.60 91.98 C 3.80 93.12 3.99 94.26 4.17 95.41 C 2.78 95.47 1.39 95.53 0.00 95.58 L 0.00 90.72 Z" />
<path fill="#fdfdfd" opacity="1.00" d=" M 8.19 99.44 C 9.41 99.44 10.63 99.45 11.84 99.49 C 12.05 100.97 12.19 102.47 12.26 103.96 C 9.49 104.11 8.41 101.83 8.19 99.44 Z" />
<path fill="#fdfdfd" opacity="1.00" d=" M 1018.45 101.39 C 1020.45 99.98 1024.15 102.10 1022.67 104.60 C 1021.97 106.73 1019.06 106.45 1017.52 105.47 C 1016.66 104.18 1016.79 101.94 1018.45 101.39 Z" />
<path fill="#fdfdfd" opacity="1.00" d=" M 7.37 109.21 C 8.87 108.87 10.38 108.60 11.90 108.36 C 11.86 109.64 11.80 110.92 11.72 112.20 C 10.19 112.21 8.66 112.19 7.12 112.13 C 7.19 111.40 7.31 109.94 7.37 109.21 Z" />
<path fill="#fdfdfd" opacity="1.00" d=" M 442.33 108.34 C 447.36 107.80 452.81 107.93 457.19 110.79 C 460.94 113.35 464.32 116.40 467.94 119.14 C 472.99 122.79 477.77 128.98 475.21 135.53 C 469.38 150.86 457.61 163.14 444.22 172.24 C 439.92 175.01 434.79 177.22 429.58 176.28 C 425.42 174.39 422.35 170.83 418.50 168.45 C 413.44 165.07 407.27 161.44 406.46 154.77 C 405.60 144.97 410.01 135.50 415.87 127.88 C 422.33 118.94 430.89 109.99 442.33 108.34 M 432.40 117.38 C 427.81 120.87 423.47 124.91 420.40 129.84 C 425.00 130.25 429.54 129.22 434.10 128.77 C 440.96 127.91 447.89 127.32 454.62 125.71 C 457.35 125.16 457.41 121.49 456.86 119.31 C 455.26 114.94 450.28 113.22 446.01 113.03 C 441.23 113.40 436.55 115.03 432.40 117.38 M 463.32 124.21 C 460.76 128.75 459.07 133.76 456.08 138.05 C 450.76 146.56 443.28 153.54 434.88 158.95 C 431.54 161.25 427.91 163.19 424.93 165.96 C 427.37 168.94 431.25 171.87 435.30 170.30 C 449.97 164.32 460.59 151.58 468.16 138.07 C 470.13 134.74 470.94 130.04 468.04 126.99 C 466.63 125.88 465.38 123.67 463.32 124.21 M 432.04 134.91 C 426.64 135.98 420.93 135.87 415.74 137.75 C 412.46 141.01 412.34 146.03 411.35 150.30 C 410.08 157.04 418.61 163.07 424.51 159.54 C 430.90 155.84 437.31 151.84 442.44 146.47 C 445.87 141.91 450.15 137.85 452.50 132.57 C 445.61 132.43 438.87 134.25 432.04 134.91 Z" />
<path fill="#fdfdfd" opacity="1.00" d=" M 110.46 111.73 C 119.82 110.09 129.61 112.37 137.54 117.54 C 144.43 121.22 148.58 128.21 151.78 135.06 C 155.16 142.55 153.42 151.09 150.57 158.44 C 148.06 165.82 142.83 172.04 136.62 176.62 C 125.90 184.12 110.72 183.29 100.28 175.68 C 89.70 167.69 82.02 153.89 85.51 140.41 C 88.24 132.58 91.63 124.57 97.89 118.89 C 101.42 115.53 105.58 112.61 110.46 111.73 M 99.85 124.87 C 95.14 129.51 93.18 136.03 92.01 142.36 C 100.02 143.74 108.21 143.37 116.28 144.28 C 126.76 144.98 137.27 146.87 147.78 146.08 C 148.93 138.70 145.92 130.65 140.02 126.00 C 132.80 119.57 123.02 115.32 113.23 116.62 C 107.80 117.30 103.19 120.68 99.85 124.87 M 90.61 149.39 C 91.56 158.90 97.88 167.13 105.46 172.57 C 111.75 176.16 119.57 177.05 126.58 175.34 C 135.46 171.79 143.18 164.34 145.81 155.00 C 146.30 152.08 142.84 151.75 140.77 151.61 C 128.85 151.07 116.99 149.69 105.06 149.37 C 100.25 149.28 95.38 148.31 90.61 149.39 Z" />
<path fill="#fdfdfd" opacity="1.00" d=" M 1014.68 113.36 C 1015.87 113.42 1017.08 113.45 1018.28 113.68 C 1018.90 115.30 1019.17 117.03 1019.28 118.75 C 1017.84 118.63 1015.90 119.51 1014.89 118.08 C 1013.26 116.88 1014.46 114.93 1014.68 113.36 Z" />
<path fill="#fdfdfd" opacity="1.00" d=" M 1.38 117.55 C 2.62 117.22 3.89 116.96 5.16 116.76 C 5.43 118.12 5.67 119.49 5.86 120.87 C 4.44 121.36 2.96 122.23 1.43 121.57 C 1.00 120.27 0.91 118.86 1.38 117.55 Z" />
<path fill="#fdfdfd" opacity="1.00" d=" M 605.43 132.64 C 618.91 130.80 632.28 141.71 634.23 155.00 C 635.92 163.46 634.81 173.86 627.27 179.25 C 619.95 184.34 611.31 189.39 602.04 187.92 C 594.78 186.84 588.86 181.37 586.22 174.66 C 583.71 168.10 580.44 160.82 582.97 153.76 C 584.69 149.21 586.38 144.41 589.99 140.97 C 594.23 136.87 599.56 133.68 605.43 132.64 M 603.36 138.47 C 596.26 140.16 591.72 146.63 588.80 152.87 C 585.86 158.81 588.93 165.32 590.93 171.04 C 593.30 177.71 599.58 183.50 606.98 183.18 C 613.42 182.42 619.92 180.18 624.87 175.88 C 628.62 172.71 630.22 167.73 630.73 163.00 C 632.17 148.64 617.02 136.52 603.36 138.47 Z" />
<path fill="#fdfdfd" opacity="1.00" d=" M 265.39 170.64 C 270.55 169.94 276.13 168.72 281.10 170.89 C 285.32 174.11 285.64 180.10 285.76 184.98 C 285.99 187.99 284.49 191.69 281.24 192.31 C 275.61 193.67 269.81 194.17 264.14 195.32 C 256.14 196.57 248.22 198.63 240.09 198.69 C 237.42 198.68 234.34 197.47 233.39 194.76 C 231.66 190.76 231.43 186.27 231.63 181.97 C 231.71 179.27 233.30 176.46 236.15 176.00 C 245.87 174.07 255.66 172.49 265.39 170.64 M 269.39 174.50 C 264.89 175.31 260.48 176.56 255.94 177.11 C 250.17 177.99 244.12 178.19 238.76 180.69 C 236.44 181.93 236.76 184.83 237.04 187.03 C 237.51 189.34 238.14 192.78 241.15 192.77 C 251.70 192.63 261.99 189.78 272.45 188.68 C 275.14 187.98 279.01 188.28 280.34 185.32 C 281.07 182.26 280.09 178.97 278.71 176.23 C 276.76 173.10 272.44 174.12 269.39 174.50 Z" />
<path fill="#fdfdfd" opacity="1.00" d=" M 786.31 206.24 C 796.39 204.30 807.53 206.83 815.33 213.66 C 822.23 220.13 823.71 230.03 824.67 238.98 C 825.61 247.85 822.60 256.97 816.46 263.45 C 811.34 268.83 804.23 272.05 797.01 273.43 C 788.51 274.01 779.44 271.76 773.00 265.96 C 769.57 262.89 767.23 258.84 765.41 254.66 C 762.60 248.70 759.20 242.37 760.36 235.55 C 760.89 228.54 764.32 222.14 769.11 217.12 C 773.45 211.74 779.50 207.69 786.31 206.24 M 769.59 224.64 C 765.56 230.35 762.18 238.13 765.56 244.90 C 770.98 243.77 776.04 241.44 781.07 239.19 C 788.45 235.83 795.87 232.56 803.27 229.27 C 807.24 227.46 811.37 225.89 814.94 223.33 C 814.58 221.79 814.34 220.04 813.07 218.95 C 807.70 214.44 801.11 211.00 794.01 210.59 C 784.08 210.49 774.73 216.29 769.59 224.64 M 806.92 233.12 C 793.85 238.65 780.80 244.23 767.63 249.54 C 768.19 251.02 768.72 252.59 769.93 253.72 C 773.44 253.08 776.57 251.25 779.92 250.08 C 793.05 245.08 805.99 239.58 818.34 232.86 C 817.95 231.68 817.52 230.53 817.04 229.40 C 813.46 230.02 810.24 231.75 806.92 233.12 M 805.60 243.52 C 796.09 248.00 786.25 251.73 776.45 255.52 C 774.76 256.19 773.12 257.01 771.65 258.06 C 772.91 261.30 776.02 263.31 778.71 265.31 C 784.80 269.59 792.79 269.75 799.80 268.11 C 805.46 266.30 810.22 262.47 814.44 258.40 C 819.39 252.72 820.68 244.73 820.07 237.43 C 815.05 238.95 810.38 241.39 805.60 243.52 Z" />
<path fill="#fdfdfd" opacity="1.00" d=" M 335.43 229.73 C 344.70 228.08 354.26 231.62 361.08 237.90 C 369.39 245.23 376.76 254.80 377.84 266.19 C 377.71 272.48 376.02 279.00 371.90 283.91 C 365.50 292.26 355.70 298.12 345.08 298.66 C 337.13 299.70 329.10 296.80 322.56 292.43 C 313.87 285.24 308.54 274.26 307.89 263.03 C 308.17 254.39 310.39 245.08 317.01 239.03 C 322.27 234.54 328.59 231.05 335.43 229.73 M 318.82 245.81 C 313.23 253.43 312.42 263.61 314.60 272.59 C 315.67 276.34 316.86 280.33 319.99 282.91 C 323.85 279.59 325.73 274.69 328.61 270.59 C 335.32 259.35 343.37 248.70 348.11 236.42 C 337.71 232.89 325.12 236.72 318.82 245.81 M 353.41 240.52 C 348.01 248.22 344.22 257.00 338.54 264.55 C 333.70 271.97 328.15 279.02 324.44 287.10 C 325.30 289.03 327.10 288.70 327.99 287.02 C 337.15 272.51 348.25 259.17 355.76 243.66 C 356.90 242.13 354.78 239.38 353.41 240.52 M 361.37 246.04 C 358.59 248.86 356.90 252.51 354.68 255.75 C 348.61 265.01 342.92 274.52 336.53 283.57 C 334.70 286.35 332.62 289.02 331.29 292.10 C 341.61 297.20 353.90 293.15 362.48 286.41 C 367.92 281.52 372.40 274.61 371.76 267.00 C 372.16 258.79 368.38 250.57 362.00 245.46 L 361.37 246.04 Z" />
<path fill="#fdfdfd" opacity="1.00" d=" M 103.40 234.58 C 105.79 234.25 108.74 233.46 110.66 235.42 C 113.72 237.93 113.60 242.39 113.11 245.96 C 110.63 254.41 103.98 261.04 96.63 265.55 C 92.88 267.94 87.67 265.84 85.96 261.93 C 84.30 258.10 84.54 253.70 85.61 249.74 C 88.21 241.98 95.44 236.11 103.40 234.58 M 90.61 251.73 C 89.76 254.83 89.60 259.53 93.21 260.90 C 96.75 259.57 99.72 256.97 102.27 254.23 C 105.45 250.51 108.58 245.83 107.34 240.69 C 99.94 239.48 92.40 244.48 90.61 251.73 Z" />
<path fill="#fdfdfd" opacity="1.00" d=" M 500.45 241.78 C 508.61 240.82 516.88 241.31 525.05 242.03 C 532.88 242.57 540.11 246.94 545.06 252.90 C 547.79 255.97 546.98 260.30 547.36 264.05 C 547.55 269.03 547.58 274.03 547.42 279.01 C 547.09 282.36 545.56 286.14 541.98 287.08 C 531.31 290.33 520.11 291.41 509.00 291.86 C 500.01 291.52 491.00 290.57 482.20 288.69 C 478.52 288.22 477.64 283.98 477.51 280.91 C 477.47 274.58 477.77 268.23 476.76 261.95 C 475.18 254.81 479.69 246.93 486.59 244.56 C 491.02 242.87 495.79 242.46 500.45 241.78 M 493.41 248.61 C 488.93 249.47 483.97 251.75 482.18 256.24 C 480.37 260.15 483.35 264.35 486.76 266.20 C 496.48 271.90 508.25 271.14 519.09 270.80 C 526.24 270.79 533.42 268.50 539.01 264.00 C 542.76 260.14 539.43 253.89 535.46 251.61 C 526.69 247.33 516.57 247.14 507.02 247.79 C 502.48 247.82 497.90 247.87 493.41 248.61 M 525.28 275.42 C 510.88 277.79 495.86 276.44 482.02 271.84 C 481.47 275.47 481.54 279.17 482.31 282.77 C 482.43 284.22 484.20 284.41 485.25 284.93 C 491.94 287.15 499.07 287.32 506.02 288.08 C 513.77 289.09 521.55 287.72 529.14 286.19 C 533.39 285.27 538.04 284.34 541.29 281.21 C 543.10 277.59 542.87 273.32 542.31 269.43 C 536.80 271.86 531.30 274.51 525.28 275.42 Z" />
<path fill="#fdfdfd" opacity="1.00" d=" M 931.35 244.23 C 939.23 243.28 947.21 243.66 955.10 244.35 C 963.86 244.72 972.26 249.58 977.20 256.77 C 979.25 261.17 978.36 266.27 978.60 270.99 C 978.76 276.64 979.82 283.22 975.96 287.96 C 973.90 289.56 971.24 290.01 968.80 290.66 C 953.27 294.44 937.01 295.32 921.25 292.51 C 917.20 291.57 911.19 292.42 909.43 287.64 C 907.56 280.20 909.53 272.37 908.03 264.84 C 906.41 258.68 909.48 252.11 914.52 248.53 C 919.62 245.56 925.63 245.06 931.35 244.23 M 927.43 250.66 C 922.21 251.01 916.59 253.06 913.73 257.68 C 911.50 261.34 913.63 265.92 917.02 267.98 C 925.20 273.48 935.50 273.55 945.00 273.41 C 953.59 273.46 962.90 272.50 969.71 266.74 C 972.39 264.75 972.16 260.93 970.61 258.31 C 968.99 254.40 964.71 252.83 960.94 251.83 C 950.03 248.65 938.58 250.30 927.43 250.66 M 956.62 277.81 C 942.12 280.20 927.02 278.86 913.09 274.22 C 913.07 277.72 912.87 281.25 913.25 284.75 C 913.29 286.15 914.86 286.74 915.96 287.21 C 919.82 288.59 923.94 289.03 927.99 289.57 C 935.69 290.34 943.49 291.64 951.20 290.19 C 958.29 288.97 966.06 288.46 972.02 284.03 C 974.64 280.60 973.90 275.83 973.42 271.84 C 968.02 274.33 962.56 276.92 956.62 277.81 Z" />
<path fill="#fdfdfd" opacity="1.00" d=" M 693.52 253.64 C 696.49 252.85 699.58 254.11 701.43 256.50 C 704.18 260.10 706.52 264.33 706.82 268.93 C 706.77 273.00 702.60 274.77 699.61 276.51 C 690.71 281.19 682.15 286.48 673.24 291.13 C 669.52 292.82 665.04 295.36 661.08 292.94 C 657.41 290.23 655.90 285.62 654.36 281.52 C 653.25 278.72 653.60 275.02 656.39 273.34 C 663.70 268.92 671.23 264.87 678.61 260.57 C 683.33 257.79 688.18 255.03 693.52 253.64 M 692.46 258.62 C 686.27 260.42 681.43 264.95 675.68 267.67 C 670.58 270.50 664.86 272.57 660.68 276.76 C 658.27 279.26 660.12 282.82 661.90 285.08 C 663.02 286.42 664.52 288.50 666.54 287.50 C 675.00 284.57 682.43 279.45 690.40 275.47 C 693.78 273.53 697.59 272.13 700.42 269.37 C 702.22 266.94 700.13 264.23 698.86 262.11 C 697.49 260.05 695.19 257.55 692.46 258.62 Z" />
<path fill="#fdfdfd" opacity="1.00" d=" M 194.45 279.66 C 202.03 278.79 210.36 278.70 217.03 282.97 C 220.59 285.19 221.55 289.49 222.73 293.22 C 224.37 299.31 225.46 306.31 222.11 312.05 C 218.16 318.80 210.49 322.19 203.30 324.35 C 192.29 327.13 180.58 327.94 169.45 325.33 C 162.31 323.40 159.43 315.62 157.48 309.26 C 156.60 304.30 154.07 298.68 157.02 293.98 C 160.32 289.76 165.19 287.06 170.11 285.15 C 177.94 282.30 186.13 280.35 194.45 279.66 M 190.45 284.81 C 182.32 286.07 174.35 288.46 166.81 291.76 C 163.99 292.97 161.13 295.62 161.77 298.99 C 161.60 301.50 163.50 303.59 165.92 303.99 C 176.82 306.37 188.60 307.86 199.18 303.33 C 204.53 300.85 211.26 299.92 214.95 294.90 C 217.20 291.65 213.74 288.52 211.23 286.81 C 205.20 282.38 197.32 284.35 190.45 284.81 M 197.55 309.42 C 186.45 312.37 174.64 311.76 163.59 308.90 C 165.38 314.20 167.85 320.85 174.11 321.95 C 182.33 322.68 190.65 322.17 198.78 320.78 C 205.82 319.41 212.62 315.72 217.12 310.07 C 219.63 307.05 219.58 302.94 218.91 299.29 C 212.11 303.28 205.29 307.50 197.55 309.42 Z" />
<path fill="#fdfdfd" opacity="1.00" d=" M 44.40 321.65 C 53.71 320.28 63.95 321.71 71.72 327.30 C 77.06 332.47 78.96 340.15 80.44 347.21 C 82.43 356.38 78.67 366.56 70.96 371.98 C 64.56 376.11 56.51 377.27 49.06 376.09 C 40.72 374.62 33.63 368.88 29.28 361.78 C 25.28 354.97 24.55 346.52 26.89 339.02 C 29.22 330.78 35.09 322.26 44.40 321.65 M 46.30 327.22 C 41.23 327.65 36.36 330.82 34.41 335.59 C 31.31 342.54 30.37 351.04 34.07 357.94 C 39.44 368.87 53.96 374.09 65.05 369.01 C 72.00 365.64 76.46 357.71 75.34 349.99 C 74.39 342.70 72.56 334.28 65.85 330.09 C 59.98 326.75 52.86 326.68 46.30 327.22 Z" />
<path fill="#fdfdfd" opacity="1.00" d=" M 612.35 335.25 C 621.68 334.66 631.11 340.45 634.86 349.02 C 637.09 354.19 635.59 360.18 632.77 364.81 C 629.74 369.63 626.00 373.96 621.99 377.99 C 611.61 387.60 601.57 397.57 591.23 407.22 C 586.85 410.85 582.96 415.14 578.02 418.03 C 569.56 422.70 558.17 420.43 552.09 412.94 C 548.95 408.86 546.24 404.18 545.46 399.03 C 546.28 389.49 553.62 382.39 560.02 375.99 C 572.79 362.98 587.03 351.55 601.44 340.43 C 604.70 338.06 608.27 335.79 612.35 335.25 M 580.43 364.32 C 576.20 367.39 572.73 371.37 568.99 375.00 C 563.24 380.93 556.57 386.30 553.04 393.98 C 550.94 397.50 552.11 401.76 553.78 405.20 C 555.98 410.29 560.94 413.63 566.06 415.33 C 570.54 416.50 574.50 413.36 577.84 410.81 C 585.98 404.68 592.67 396.95 600.32 390.26 C 601.42 389.41 602.19 387.99 601.33 386.68 C 596.88 378.80 590.54 372.19 584.14 365.86 C 583.08 364.96 581.96 363.35 580.43 364.32 Z" />
<path fill="#fdfdfd" opacity="1.00" d=" M 784.38 349.47 C 789.39 348.77 794.83 349.08 799.23 351.81 C 805.14 355.32 808.70 361.53 811.20 367.74 C 814.73 374.81 814.73 383.41 811.74 390.67 C 810.08 394.76 806.24 397.26 802.95 399.94 C 796.01 405.34 786.88 407.33 778.23 406.42 C 770.00 405.55 763.01 399.84 759.40 392.56 C 753.99 382.51 753.35 368.46 761.87 359.90 C 768.14 354.33 776.03 350.53 784.38 349.47 M 781.37 354.46 C 783.56 359.36 787.19 363.41 790.13 367.86 C 795.55 375.16 800.50 382.80 806.13 389.95 C 809.35 385.53 810.10 379.57 808.44 374.40 C 806.32 367.24 802.69 359.87 795.97 356.03 C 791.65 353.27 786.19 353.10 781.37 354.46 M 771.26 358.98 C 772.16 362.01 774.26 364.46 775.90 367.12 C 782.73 376.92 788.23 387.60 795.20 397.30 C 797.31 396.46 799.31 395.40 801.26 394.26 C 798.60 389.24 794.90 384.88 792.11 379.94 C 787.65 371.81 782.01 364.36 775.95 357.37 C 774.30 357.61 772.73 358.24 771.26 358.98 M 766.27 363.28 C 762.75 366.06 761.32 370.69 760.56 374.95 C 760.17 381.41 762.68 387.69 765.85 393.21 C 770.14 399.97 779.10 402.65 786.68 400.84 C 788.04 400.55 790.09 399.93 789.40 398.06 C 787.92 394.33 785.31 391.20 783.28 387.77 C 777.76 379.50 772.63 370.96 766.90 362.85 L 766.27 363.28 Z" />
<path fill="#fdfdfd" opacity="1.00" d=" M 326.33 359.24 C 336.08 358.31 347.06 358.59 355.07 364.99 C 360.38 368.73 364.24 374.82 364.31 381.44 C 364.37 387.85 366.76 394.36 364.69 400.67 C 363.56 404.49 360.27 407.32 356.56 408.55 C 346.41 411.98 335.61 413.88 324.89 412.75 C 316.37 411.94 307.01 411.50 300.00 405.97 C 295.69 402.79 296.77 396.87 295.87 392.23 C 294.85 385.29 292.18 377.25 297.20 371.18 C 304.47 362.97 315.82 360.24 326.33 359.24 M 324.61 364.25 C 326.91 367.32 330.12 369.48 333.04 371.90 C 339.34 376.75 345.12 382.42 352.06 386.34 C 356.21 386.67 359.29 381.78 358.09 378.01 C 357.35 373.53 354.00 370.04 350.18 367.88 C 342.67 363.07 333.14 362.65 324.61 364.25 M 313.47 366.45 C 309.95 367.63 306.86 369.80 303.76 371.78 C 297.97 375.25 299.16 385.28 305.40 387.56 C 314.87 390.74 325.04 392.36 335.01 391.04 C 338.27 390.53 341.85 390.96 344.73 389.05 C 342.96 386.87 340.60 385.33 338.42 383.61 C 332.03 378.67 325.66 373.70 319.36 368.65 C 317.68 367.36 315.76 365.62 313.47 366.45 M 335.07 396.72 C 323.70 398.02 312.72 394.27 301.66 392.41 C 301.44 396.06 301.52 400.82 305.25 402.75 C 319.43 409.58 335.84 408.09 350.73 404.71 C 353.59 403.96 356.53 402.79 358.39 400.38 C 360.14 397.62 360.23 394.05 358.96 391.09 C 351.12 393.43 343.35 396.45 335.07 396.72 Z" />
<path fill="#fdfdfd" opacity="1.00" d=" M 437.33 362.21 C 444.94 361.28 452.56 366.20 456.02 372.83 C 459.35 381.35 454.94 391.64 447.21 396.14 C 442.24 398.30 436.10 398.39 431.35 395.64 C 423.64 390.52 421.54 379.73 424.37 371.33 C 426.25 365.91 431.77 362.58 437.33 362.21 M 436.42 368.44 C 427.55 371.66 427.62 386.25 435.56 390.47 C 443.60 393.89 453.20 385.53 450.94 377.14 C 448.94 371.50 442.43 367.01 436.42 368.44 Z" />
<path fill="#fdfdfd" opacity="1.00" d=" M 898.29 366.28 C 904.79 365.06 911.43 365.74 918.00 365.57 C 926.01 365.39 934.01 366.01 942.01 366.24 C 950.89 366.57 959.86 366.59 968.61 368.37 C 977.99 371.07 984.17 380.45 984.84 389.91 C 985.85 395.72 983.89 402.44 978.80 405.79 C 974.79 408.77 969.60 408.72 964.87 409.37 C 949.66 411.53 934.23 411.23 918.92 410.59 C 912.07 410.02 905.27 408.89 898.53 407.60 C 893.81 406.76 890.11 403.13 887.96 399.01 C 885.52 394.41 884.00 389.25 883.97 384.02 C 883.91 375.76 890.28 368.08 898.29 366.28 M 899.61 371.65 C 895.21 372.72 892.49 376.77 890.76 380.65 C 888.62 386.11 890.67 392.00 892.93 397.05 C 894.67 400.84 898.84 402.60 902.74 403.17 C 909.83 404.18 916.99 404.63 924.10 405.51 C 926.51 405.72 929.05 406.24 931.41 405.39 C 933.20 401.51 932.30 397.12 932.52 393.00 C 932.32 385.64 932.61 378.21 931.47 370.93 C 928.00 370.45 924.51 370.26 921.02 370.35 C 913.88 370.49 906.58 369.76 899.61 371.65 M 938.06 371.50 C 938.16 376.01 938.39 380.51 938.62 385.02 C 938.40 391.84 938.00 398.71 938.56 405.52 C 945.05 406.10 951.58 404.78 958.09 404.70 C 964.65 403.93 972.69 405.09 977.41 399.40 C 981.41 395.68 980.30 389.72 978.69 385.14 C 975.95 377.07 967.33 372.14 959.05 372.37 C 952.04 372.39 945.06 371.37 938.06 371.50 Z" />
<path fill="#fdfdfd" opacity="1.00" d=" M 948.38 378.21 C 949.59 376.78 952.24 377.60 952.72 379.34 C 954.28 382.04 949.61 383.43 947.58 382.49 C 946.70 381.02 947.16 379.31 948.38 378.21 Z" />
<path fill="#fdfdfd" opacity="1.00" d=" M 960.84 385.59 C 959.94 383.62 959.68 379.55 962.88 380.04 C 965.75 380.21 965.40 383.47 964.90 385.48 C 963.53 385.53 962.18 385.57 960.84 385.59 Z" />
<path fill="#fdfdfd" opacity="1.00" d=" M 972.20 386.01 C 973.43 386.06 974.66 386.22 975.90 386.47 C 975.42 388.86 973.95 390.85 971.31 390.69 C 971.21 389.07 970.54 387.09 972.20 386.01 Z" />
<path fill="#fdfdfd" opacity="1.00" d=" M 945.21 388.66 C 946.80 388.83 948.39 389.09 949.99 389.40 C 949.74 390.96 949.27 392.47 948.56 393.89 C 945.82 393.51 944.25 391.41 945.21 388.66 Z" />
<path fill="#fdfdfd" opacity="1.00" d=" M 207.32 390.25 C 213.61 388.72 220.57 390.29 225.60 394.39 C 227.82 396.31 229.48 399.05 229.57 402.05 C 230.28 412.90 227.66 423.58 224.86 433.98 C 221.78 445.80 218.51 457.74 212.47 468.45 C 209.77 473.36 206.82 479.01 201.12 480.87 C 193.74 483.42 184.49 483.04 178.58 477.41 C 175.11 474.66 173.55 470.24 173.04 465.98 C 172.39 459.60 174.99 453.60 176.51 447.55 C 180.00 436.17 182.90 424.63 186.14 413.18 C 189.15 402.91 196.50 392.96 207.32 390.25 M 199.57 401.96 C 200.58 404.71 203.89 405.00 206.29 405.83 C 212.12 407.29 217.75 409.61 223.75 410.27 C 224.02 408.51 224.23 406.75 224.37 404.98 C 217.96 402.41 211.45 399.98 204.71 398.46 C 202.46 397.85 199.62 399.49 199.57 401.96 M 192.69 413.38 C 201.09 418.15 210.57 420.50 220.02 422.15 C 223.08 422.86 224.04 417.56 221.51 416.43 C 218.28 415.02 214.74 414.57 211.35 413.68 C 205.87 412.34 200.65 410.05 195.10 409.02 C 193.10 409.47 193.26 411.82 192.69 413.38 M 191.59 420.63 C 191.89 421.31 192.48 422.65 192.77 423.33 C 197.20 426.28 202.37 427.79 207.28 429.72 C 210.56 430.91 214.07 432.40 217.63 431.59 C 219.08 431.39 220.35 429.91 219.64 428.46 C 215.54 426.92 211.17 426.30 207.01 424.94 C 201.86 423.54 196.90 421.40 191.59 420.63 M 188.69 428.57 C 188.89 429.07 189.29 430.06 189.48 430.55 C 195.20 433.82 201.75 435.23 208.09 436.79 C 211.22 437.43 214.36 438.65 217.60 438.06 C 214.77 435.72 210.93 435.67 207.55 434.64 C 201.06 433.24 195.16 430.00 188.69 428.57 M 185.41 436.80 C 183.39 442.80 181.75 448.91 179.93 454.97 C 178.34 460.11 178.15 466.19 181.11 470.86 C 184.80 475.56 191.52 476.16 197.06 475.74 C 200.65 475.66 203.39 472.84 204.74 469.73 C 208.53 462.00 213.13 454.44 214.44 445.80 C 210.78 443.57 206.48 442.84 202.46 441.51 C 196.79 439.89 191.28 437.59 185.41 436.80 Z" />
<path fill="#fdfdfd" opacity="1.00" d=" M 955.22 394.24 C 957.83 393.78 958.73 396.49 958.77 398.61 C 956.07 401.33 953.34 396.67 955.22 394.24 Z" />
<path fill="#fdfdfd" opacity="1.00" d=" M 963.20 397.13 C 964.15 395.29 966.21 395.30 968.03 395.26 C 967.81 396.80 967.59 398.78 965.76 399.22 C 964.45 400.25 963.37 398.19 963.20 397.13 Z" />
<path fill="#fdfdfd" opacity="1.00" d=" M 683.39 434.56 C 687.60 433.32 692.89 433.49 695.99 437.01 C 700.64 441.57 699.67 449.77 694.90 453.87 C 690.18 458.01 684.99 461.76 679.18 464.19 C 673.89 466.04 666.50 466.14 663.22 460.78 C 659.58 455.45 662.18 448.51 666.12 444.13 C 670.87 439.47 676.98 436.27 683.39 434.56 M 685.46 439.54 C 680.93 440.92 676.87 443.46 672.83 445.88 C 669.35 447.85 666.54 451.69 667.04 455.84 C 667.84 459.09 671.71 461.31 674.92 460.16 C 678.27 458.99 681.22 456.97 684.30 455.25 C 687.14 453.59 690.25 451.97 691.97 449.02 C 693.64 446.69 693.79 443.28 692.09 440.93 C 690.43 439.08 687.71 438.96 685.46 439.54 Z" />
<path fill="#fdfdfd" opacity="1.00" d=" M 0.00 451.92 C 4.86 452.27 9.90 452.42 14.39 454.58 C 21.23 457.73 27.56 463.69 28.47 471.53 C 29.21 478.19 31.71 484.84 30.39 491.58 C 29.70 495.50 26.56 498.47 23.03 500.01 C 15.71 503.25 7.89 505.19 0.00 506.45 L 0.00 500.69 C 7.23 499.02 14.95 498.24 21.46 494.44 C 25.58 491.86 25.53 486.58 24.35 482.42 C 20.70 483.66 17.16 485.17 13.58 486.59 C 9.21 488.32 4.49 488.83 0.00 490.19 L 0.00 484.32 C 3.24 483.58 6.61 483.26 9.70 481.96 C 7.23 478.59 3.15 477.06 0.00 474.46 L 0.00 467.43 C 5.22 471.24 10.51 475.08 16.25 478.07 C 18.17 479.32 19.86 477.27 21.07 475.99 C 24.06 472.25 21.84 467.07 19.06 463.92 C 14.00 459.08 6.90 456.80 0.00 456.48 L 0.00 451.92 Z" />
<path fill="#fdfdfd" opacity="1.00" d=" M 996.20 458.11 C 1004.87 454.13 1014.49 452.32 1024.00 452.03 L 1024.00 456.62 C 1019.99 457.11 1015.49 456.41 1011.94 458.65 C 1015.65 462.02 1020.07 464.47 1024.00 467.57 L 1024.00 474.68 C 1018.90 470.81 1013.36 467.57 1008.21 463.78 C 1005.97 462.29 1003.31 460.14 1000.47 461.39 C 997.14 462.86 994.23 465.14 991.40 467.39 C 986.13 471.27 987.92 481.07 994.28 482.77 C 1003.92 485.30 1014.16 486.34 1024.00 484.28 L 1024.00 490.10 C 1012.84 491.57 1001.80 489.08 990.76 487.84 C 990.96 491.71 991.57 496.56 995.73 498.18 C 1004.70 501.47 1014.58 502.05 1024.00 500.64 L 1024.00 506.19 C 1017.01 506.85 1009.98 506.54 1003.01 505.89 C 997.85 505.38 992.55 503.90 988.64 500.35 C 986.32 497.89 986.34 494.28 985.67 491.17 C 984.85 485.40 982.48 479.87 982.49 473.99 C 983.08 466.33 989.98 461.42 996.20 458.11 Z" />
<path fill="#fdfdfd" opacity="1.00" d=" M 310.45 470.69 C 314.73 469.92 319.30 470.01 323.40 471.58 C 326.61 473.32 326.84 477.70 325.76 480.81 C 323.55 487.71 316.89 491.82 310.63 494.63 C 306.45 496.13 301.77 498.64 297.34 496.66 C 293.08 494.60 292.36 488.95 293.91 484.91 C 295.86 477.33 303.02 472.13 310.45 470.69 M 308.47 476.60 C 303.47 478.30 299.47 482.71 298.79 488.02 C 298.29 489.85 299.84 492.26 301.90 491.80 C 308.23 490.62 314.36 487.57 318.54 482.59 C 319.62 481.00 321.22 478.47 319.15 476.98 C 315.89 475.33 311.88 475.52 308.47 476.60 Z" />
<path fill="#fdfdfd" opacity="1.00" d=" M 411.30 481.25 C 419.60 479.85 428.78 480.33 436.01 485.04 C 439.90 488.07 439.91 493.54 440.29 498.02 C 440.56 512.35 439.32 526.65 439.64 540.99 C 438.84 551.14 440.19 561.48 437.71 571.46 C 436.36 577.92 433.03 585.02 426.29 587.23 C 418.18 589.66 408.35 590.09 401.30 584.72 C 396.21 580.74 396.35 573.78 395.80 567.96 C 394.82 557.65 395.88 547.33 395.59 537.01 C 396.07 527.16 397.10 517.35 397.74 507.52 C 398.31 500.38 398.57 492.78 402.53 486.55 C 404.36 483.44 407.82 481.73 411.30 481.25 M 405.65 491.80 C 403.60 498.68 403.22 505.92 402.46 513.02 C 402.02 519.79 401.10 526.69 402.58 533.39 C 407.95 534.78 413.55 533.94 419.03 534.19 C 424.42 534.57 429.84 534.69 435.24 534.25 C 435.06 521.94 435.46 509.63 435.70 497.33 C 435.52 494.77 434.38 492.23 432.45 490.54 C 427.13 486.78 420.27 485.84 413.94 486.90 C 410.75 487.22 406.69 488.34 405.65 491.80 M 400.68 541.65 C 399.82 544.70 400.01 547.90 399.80 551.04 C 399.96 559.58 399.99 568.19 401.51 576.64 C 401.88 578.56 403.36 580.07 405.00 581.04 C 410.34 584.10 416.92 584.47 422.79 582.93 C 426.46 582.05 429.06 579.02 431.09 576.03 C 434.50 570.68 434.61 564.15 434.82 558.02 C 434.85 552.17 435.84 546.25 434.61 540.46 C 425.06 540.07 415.49 540.56 405.94 540.30 C 404.18 540.52 401.74 539.81 400.68 541.65 Z" />
<path fill="#fdfdfd" opacity="1.00" d=" M 848.49 489.68 C 853.07 487.81 858.36 488.83 862.24 491.78 C 869.24 496.15 871.00 505.61 869.11 513.15 C 866.11 521.01 857.05 524.94 849.03 524.17 C 840.96 523.18 834.15 515.22 835.15 507.00 C 835.95 499.31 841.54 492.75 848.49 489.68 M 850.35 496.31 C 845.48 498.52 841.74 503.49 841.38 508.88 C 842.49 516.38 852.07 520.71 858.43 516.48 C 864.93 513.42 864.80 504.15 861.11 498.94 C 858.87 495.39 853.99 494.82 850.35 496.31 Z" />
<path fill="#fdfdfd" opacity="1.00" d=" M 540.38 494.54 C 548.48 493.25 557.51 493.93 564.58 498.41 C 571.29 503.39 573.78 511.98 574.18 519.98 C 575.39 527.75 573.02 535.95 567.93 541.93 C 565.17 545.26 560.90 546.56 557.03 548.10 C 548.41 551.44 538.51 550.53 530.30 546.49 C 524.38 543.61 520.03 537.97 518.26 531.68 C 515.47 522.73 516.49 512.48 521.68 504.58 C 525.94 498.48 533.14 495.28 540.38 494.54 M 538.81 499.50 C 541.06 510.25 544.36 520.78 546.59 531.56 C 547.65 535.53 547.97 539.79 550.01 543.44 C 552.28 543.40 554.49 542.82 556.72 542.37 C 552.26 528.25 550.50 513.29 544.17 499.78 C 542.49 499.07 540.57 499.59 538.81 499.50 M 549.82 498.63 C 551.79 506.53 554.47 514.22 556.77 522.03 C 558.80 527.99 560.05 534.24 562.69 539.97 C 571.00 533.04 570.86 520.82 567.60 511.40 C 565.22 503.92 557.79 498.21 549.82 498.63 M 522.57 517.23 C 521.90 524.23 522.19 532.26 527.27 537.70 C 531.53 542.04 537.80 544.72 543.93 543.81 C 544.12 539.50 542.64 535.39 541.62 531.27 C 538.93 521.39 536.71 511.38 533.74 501.59 C 527.57 504.30 523.03 510.47 522.57 517.23 Z" />
<path fill="#fdfdfd" opacity="1.00" d=" M 731.40 495.60 C 738.50 494.33 745.87 496.44 752.01 500.01 C 755.84 502.27 756.75 506.92 758.08 510.81 C 759.94 516.76 762.95 522.65 762.54 529.05 C 762.45 531.19 761.05 533.15 759.25 534.25 C 750.59 539.76 741.25 544.20 731.52 547.46 C 722.60 550.48 713.23 551.81 703.95 553.15 C 701.57 553.51 698.79 552.57 697.66 550.33 C 694.62 544.81 693.96 538.39 691.36 532.69 C 690.25 530.05 688.85 527.49 688.20 524.69 C 687.49 519.02 689.51 512.68 694.43 509.41 C 705.41 501.85 718.45 498.17 731.40 495.60 M 736.52 501.51 C 725.77 501.86 715.87 506.45 705.83 509.80 C 700.32 511.57 694.83 515.37 693.36 521.27 C 692.55 525.43 696.07 529.29 700.00 530.12 C 710.67 533.12 721.41 528.88 731.47 525.62 C 738.08 523.65 744.34 520.06 748.68 514.62 C 750.00 512.74 751.36 510.20 750.06 507.96 C 747.99 502.66 741.72 500.91 736.52 501.51 M 751.59 519.63 C 743.89 527.26 733.51 531.37 723.19 534.06 C 714.84 536.32 706.18 537.29 697.54 536.93 C 698.85 540.78 699.47 545.06 702.04 548.33 C 706.24 548.87 710.51 548.48 714.65 547.68 C 723.15 546.07 731.85 544.60 739.65 540.66 C 744.47 538.32 749.33 535.93 753.60 532.66 C 755.54 531.02 757.74 528.82 757.42 526.06 C 757.02 523.16 756.22 520.29 754.97 517.65 C 753.48 517.14 752.66 518.96 751.59 519.63 Z" />
<path fill="#fdfdfd" opacity="1.00" d=" M 104.40 503.54 C 113.77 501.87 124.20 502.01 132.23 507.76 C 140.40 512.67 144.77 521.91 146.38 531.00 C 147.20 542.21 142.15 554.46 131.95 559.96 C 126.71 562.70 121.11 564.76 115.49 566.55 C 106.98 568.23 97.87 565.27 91.48 559.51 C 86.83 555.39 82.44 550.65 80.30 544.71 C 76.35 533.86 79.02 521.14 86.25 512.26 C 90.80 507.02 97.64 504.35 104.40 503.54 M 111.68 507.30 C 113.08 512.58 115.33 517.58 117.34 522.65 C 121.59 532.76 124.52 543.34 128.28 553.62 C 128.68 554.74 129.24 555.77 129.96 556.73 C 137.22 552.66 141.92 544.34 141.95 536.02 C 142.50 527.26 137.55 519.35 131.70 513.28 C 126.27 508.54 118.74 506.87 111.68 507.30 M 103.45 509.58 C 104.13 513.78 105.94 517.66 107.28 521.67 C 111.87 534.55 116.78 547.31 121.09 560.29 C 122.62 559.67 124.12 559.00 125.61 558.30 C 120.35 541.48 114.86 524.62 106.99 508.80 C 106.10 509.00 104.33 509.39 103.45 509.58 M 94.38 512.19 C 86.35 518.80 81.24 530.29 84.60 540.61 C 86.56 548.75 92.86 554.96 99.76 559.26 C 104.29 562.37 110.23 563.99 115.61 562.53 C 116.74 559.02 114.63 555.61 113.77 552.29 C 108.93 539.77 104.23 527.19 99.20 514.76 C 98.59 512.64 96.61 510.53 94.38 512.19 Z" />
<path fill="#fdfdfd" opacity="1.00" d=" M 248.38 547.37 C 257.96 546.04 269.09 547.64 276.03 554.97 C 286.30 566.51 289.03 584.61 281.18 598.18 C 276.70 608.47 265.29 612.88 254.94 614.52 C 248.02 615.21 240.82 614.30 234.42 611.52 C 224.02 606.57 217.10 595.46 216.72 584.02 C 216.39 575.47 219.43 567.08 223.93 559.93 C 228.00 554.83 233.49 550.48 239.97 549.06 C 242.75 548.38 245.55 547.79 248.38 547.37 M 239.19 556.55 C 244.05 565.62 250.09 574.01 254.93 583.10 C 259.16 590.14 262.76 597.75 268.34 603.85 C 273.22 601.96 276.52 597.24 278.76 592.69 C 281.22 585.49 281.07 577.47 278.82 570.23 C 276.83 564.01 273.06 557.94 267.10 554.88 C 258.16 551.06 247.62 551.67 239.19 556.55 M 231.47 560.39 C 227.34 564.02 225.08 569.29 223.54 574.47 C 222.26 579.69 221.29 585.43 223.49 590.56 C 225.77 596.86 229.65 603.23 236.12 605.88 C 243.36 609.29 251.97 610.37 259.62 607.74 C 262.21 607.17 261.33 604.25 260.31 602.67 C 252.16 589.21 244.12 575.67 235.48 562.52 C 234.41 561.34 233.21 558.36 231.47 560.39 Z" />
<path fill="#fdfdfd" opacity="1.00" d=" M 969.46 558.49 C 972.99 554.22 978.20 550.60 983.99 551.12 C 991.92 551.53 998.16 557.21 1003.91 562.09 C 1010.64 568.90 1017.75 575.37 1024.00 582.63 L 1024.00 591.38 C 1021.93 588.90 1019.82 586.35 1017.05 584.63 C 1008.95 588.48 1002.69 595.15 996.32 601.29 C 995.00 602.93 991.82 605.33 994.25 607.37 C 1000.03 614.02 1006.71 619.85 1012.98 626.05 C 1016.17 629.24 1020.20 631.37 1024.00 633.76 L 1024.00 640.33 C 1013.98 635.90 1006.46 627.73 998.86 620.12 C 991.73 612.56 984.82 604.80 978.26 596.75 C 973.97 591.33 969.26 586.18 965.79 580.18 C 962.15 573.07 964.72 564.42 969.46 558.49 Z" />
<path fill="#fdfdfd" opacity="1.00" d=" M 888.34 579.76 C 892.87 579.83 897.56 580.27 901.69 582.30 C 909.84 586.69 918.03 592.15 922.27 600.70 C 927.27 608.97 925.50 619.36 921.71 627.73 C 918.28 633.94 913.91 640.03 907.61 643.59 C 900.42 647.48 891.99 650.45 883.79 648.14 C 875.73 645.48 867.62 641.54 862.42 634.58 C 857.00 628.44 853.70 620.27 854.45 612.02 C 854.97 600.47 862.38 589.78 872.61 584.60 C 877.52 582.13 882.73 579.79 888.34 579.76 M 865.04 598.01 C 861.58 603.29 859.59 609.76 859.87 616.08 C 861.38 625.14 867.17 633.28 874.90 638.16 C 876.38 638.96 878.10 640.32 879.82 639.20 C 881.40 636.47 881.72 633.27 882.45 630.27 C 884.51 620.45 886.96 610.72 888.74 600.85 C 889.56 595.77 891.27 590.77 890.86 585.57 C 880.95 585.25 871.35 590.58 865.04 598.01 M 896.44 592.46 C 894.20 603.71 891.70 614.89 888.83 625.99 C 887.66 631.66 885.84 637.34 886.24 643.18 C 892.08 643.77 898.36 643.76 903.50 640.48 C 907.98 637.42 911.97 633.51 914.94 628.94 C 919.49 621.86 922.13 612.56 918.38 604.56 C 914.08 596.73 906.77 590.30 897.93 588.30 C 896.79 589.37 896.85 591.06 896.44 592.46 Z" />
<path fill="#fdfdfd" opacity="1.00" d=" M 0.00 582.34 C 4.80 587.42 10.00 592.12 14.56 597.44 C 18.62 602.18 23.83 606.52 25.27 612.88 C 27.78 621.55 23.57 631.32 16.06 636.07 C 11.39 639.23 5.74 641.82 0.00 640.25 L 0.00 634.05 C 6.93 635.50 14.38 632.04 18.03 626.04 C 20.44 622.64 22.19 617.94 19.96 614.02 C 14.96 605.10 6.87 598.61 0.00 591.22 L 0.00 582.34 Z" />
<path fill="#fdfdfd" opacity="1.00" d=" M 598.26 600.18 C 604.08 599.37 610.68 599.69 615.41 603.62 C 618.55 606.44 619.74 610.88 619.50 614.99 C 618.45 625.23 615.79 635.19 613.15 645.12 C 610.47 657.18 606.45 668.88 602.68 680.64 C 601.05 685.79 596.95 690.22 591.60 691.50 C 580.37 694.33 568.16 684.54 568.10 673.04 C 567.88 662.50 573.25 653.00 576.32 643.18 C 581.19 631.68 582.54 618.84 589.04 608.02 C 591.01 604.43 594.18 601.17 598.26 600.18 M 599.43 606.46 C 596.09 607.90 593.80 610.96 592.09 614.05 C 589.03 621.11 587.39 628.69 585.04 636.00 C 584.69 638.10 582.82 641.19 585.47 642.51 C 590.44 644.79 595.92 645.57 601.27 646.50 C 603.31 646.71 605.45 647.25 607.48 646.59 C 610.24 636.58 612.83 626.42 613.98 616.08 C 614.77 608.59 605.69 604.23 599.43 606.46 M 580.36 648.21 C 578.53 650.43 578.03 653.39 576.90 655.98 C 574.43 662.06 572.11 668.79 573.81 675.39 C 575.17 682.20 582.11 686.96 588.89 686.67 C 592.67 686.34 595.39 683.17 596.90 679.94 C 600.84 671.71 603.43 662.87 605.35 653.97 C 601.42 652.02 596.98 651.43 592.78 650.27 C 588.67 649.50 584.59 647.90 580.36 648.21 Z" />
<path fill="#fdfdfd" opacity="1.00" d=" M 461.38 621.65 C 465.67 620.41 470.50 620.63 474.58 622.48 C 478.86 624.37 480.09 629.72 479.28 633.95 C 478.50 639.83 473.04 643.39 468.56 646.52 C 463.43 649.11 456.82 651.89 451.38 648.61 C 444.99 644.46 444.53 634.76 449.13 629.11 C 452.27 625.37 456.75 623.00 461.38 621.65 M 462.39 627.55 C 458.71 628.66 454.78 630.55 453.20 634.31 C 452.20 636.65 451.40 639.70 453.02 641.95 C 454.75 644.18 457.97 644.47 460.51 643.68 C 464.73 642.39 468.62 639.90 471.49 636.55 C 473.36 634.12 473.83 629.98 471.18 627.93 C 468.47 626.64 465.22 626.73 462.39 627.55 Z" />
<path fill="#fdfdfd" opacity="1.00" d=" M 738.31 621.24 C 747.19 619.02 755.80 623.41 763.29 627.72 C 769.17 631.70 773.49 638.12 774.78 645.12 C 774.49 654.47 771.85 664.27 764.93 670.95 C 758.97 677.73 749.34 681.68 740.40 679.33 C 731.99 677.20 723.66 672.34 719.59 664.41 C 715.72 658.40 715.43 650.55 718.09 644.01 C 721.15 634.22 727.93 624.05 738.31 621.24 M 737.64 626.72 C 733.45 627.83 730.33 631.07 727.82 634.44 C 732.88 636.73 738.41 637.64 743.71 639.19 C 752.37 641.25 760.86 644.08 769.63 645.65 C 768.94 639.56 764.83 634.39 759.71 631.28 C 753.22 627.36 745.21 624.29 737.64 626.72 M 725.05 639.99 C 724.42 641.49 723.04 642.92 723.28 644.65 C 730.58 647.71 738.42 649.38 745.89 652.03 C 752.58 654.10 759.02 657.10 765.95 658.29 C 766.92 656.25 767.82 654.16 768.32 651.95 C 762.18 649.98 755.91 648.41 749.85 646.19 C 741.87 643.14 733.47 641.34 725.05 639.99 M 721.85 650.02 C 720.82 655.99 723.19 662.32 727.62 666.41 C 731.60 670.14 736.55 672.75 741.72 674.41 C 748.68 676.20 756.01 672.77 760.66 667.62 C 761.61 666.38 763.02 665.08 762.68 663.36 C 759.10 660.79 754.58 660.21 750.54 658.70 C 740.96 655.87 731.53 652.52 721.85 650.02 Z" />
<path fill="#fdfdfd" opacity="1.00" d=" M 166.47 650.80 C 174.23 649.20 182.55 651.28 188.74 656.20 C 192.48 659.25 194.73 664.15 194.20 668.99 C 193.86 673.25 191.44 676.91 189.74 680.73 C 184.36 693.07 177.04 704.45 169.63 715.65 C 165.14 722.38 159.77 728.44 154.46 734.51 C 152.15 736.91 149.33 739.11 146.00 739.78 C 138.91 740.82 131.51 739.29 125.36 735.64 C 117.42 730.69 114.69 719.30 119.19 711.17 C 125.64 699.56 133.16 688.59 140.69 677.66 C 145.21 670.91 149.62 664.06 154.97 657.92 C 157.80 654.28 161.99 651.80 166.47 650.80 M 162.58 658.55 C 157.29 661.67 154.50 667.29 151.22 672.22 C 148.83 675.96 145.51 679.06 143.57 683.09 C 153.12 688.27 162.13 694.33 171.27 700.17 C 172.68 701.42 173.75 699.38 174.36 698.38 C 178.86 689.85 183.77 681.51 187.77 672.73 C 189.93 668.24 188.44 662.42 184.62 659.30 C 178.25 654.77 169.14 653.98 162.58 658.55 M 139.31 689.08 C 136.61 691.56 134.99 694.95 132.92 697.94 C 129.47 702.93 126.47 708.22 123.94 713.73 C 121.04 720.01 124.41 727.47 129.61 731.39 C 134.39 733.88 140.07 735.70 145.46 734.51 C 151.68 731.66 154.89 725.19 159.22 720.25 C 162.38 715.82 166.41 711.93 168.79 707.00 C 167.53 704.39 164.78 703.03 162.46 701.51 C 156.00 697.65 149.60 693.67 143.08 689.89 C 141.91 689.58 140.38 687.84 139.31 689.08 Z" />
<path fill="#fdfdfd" opacity="1.00" d=" M 175.00 659.93 C 175.65 659.86 176.95 659.70 177.60 659.63 C 177.87 661.20 178.15 662.79 178.35 664.40 C 177.45 664.42 175.66 664.46 174.76 664.48 C 174.57 662.96 173.58 661.15 175.00 659.93 Z" />
<path fill="#fdfdfd" opacity="1.00" d=" M 164.43 666.27 C 166.68 663.69 171.19 668.29 168.30 670.28 C 166.09 672.92 160.79 667.98 164.43 666.27 Z" />
<path fill="#fdfdfd" opacity="1.00" d=" M 179.18 671.12 C 181.97 670.05 182.83 674.55 180.80 675.84 C 178.10 676.68 177.28 672.39 179.18 671.12 Z" />
<path fill="#fdfdfd" opacity="1.00" d=" M 324.41 672.58 C 338.75 669.76 351.92 683.12 352.27 696.96 C 352.66 705.70 349.91 715.25 343.00 721.02 C 336.88 725.21 329.15 725.81 321.97 726.33 C 312.58 726.74 303.16 720.33 300.99 711.03 C 299.67 704.46 299.49 697.54 301.07 690.99 C 302.07 686.37 305.72 683.12 308.82 679.81 C 312.86 675.51 318.71 673.46 324.41 672.58 M 327.40 677.38 C 320.50 677.03 314.73 681.50 309.98 685.97 C 306.91 688.71 306.25 693.04 305.93 696.93 C 305.70 702.31 305.45 708.05 308.01 712.98 C 310.08 717.20 314.14 720.35 318.79 721.17 C 324.45 722.16 330.48 722.02 335.91 719.99 C 341.99 717.67 345.89 711.74 347.43 705.63 C 349.19 697.73 345.86 689.35 340.08 683.91 C 336.69 680.51 332.36 677.53 327.40 677.38 Z" />
<path fill="#fdfdfd" opacity="1.00" d=" M 823.30 674.25 C 828.75 672.49 835.21 675.71 836.71 681.32 C 838.88 687.57 834.58 693.35 831.21 698.23 C 827.78 702.71 824.19 707.86 818.43 709.39 C 814.34 710.84 809.22 710.16 806.47 706.55 C 802.25 701.23 803.64 693.49 807.19 688.20 C 811.15 682.25 816.51 676.83 823.30 674.25 M 824.44 679.47 C 820.60 680.91 818.03 684.40 815.27 687.28 C 812.08 690.88 808.24 695.36 809.56 700.55 C 810.11 704.66 815.67 706.05 818.75 703.81 C 822.02 701.41 824.31 697.98 826.98 694.99 C 829.57 691.96 832.11 688.21 831.41 684.01 C 831.16 680.66 827.63 678.25 824.44 679.47 Z" />
<path fill="#fdfdfd" opacity="1.00" d=" M 154.64 675.51 C 156.27 675.22 158.07 674.29 159.53 675.57 C 160.24 677.42 159.21 679.21 158.49 680.88 C 157.53 680.71 156.58 680.52 155.64 680.30 C 154.91 678.80 154.77 677.13 154.64 675.51 Z" />
<path fill="#fdfdfd" opacity="1.00" d=" M 64.40 679.46 C 68.25 679.03 72.71 677.41 76.21 679.77 C 78.71 685.46 78.63 691.90 78.43 698.00 C 78.47 700.32 75.67 700.68 73.92 700.91 C 61.28 702.42 48.64 704.12 35.96 705.20 C 33.41 705.24 29.35 705.49 28.91 702.15 C 27.87 696.89 27.82 691.44 28.10 686.10 C 28.16 684.01 30.30 683.26 32.05 683.07 C 42.77 681.39 53.70 681.35 64.40 679.46 M 62.45 684.66 C 56.32 685.56 50.18 686.40 44.00 686.84 C 40.96 687.29 37.70 687.35 34.93 688.85 C 32.11 691.55 33.55 696.07 34.63 699.29 C 37.76 700.02 40.99 699.27 44.15 699.12 C 52.94 698.10 61.80 697.65 70.56 696.41 C 74.83 695.50 73.20 690.30 72.56 687.33 C 71.46 682.77 65.79 684.60 62.45 684.66 Z" />
<path fill="#fdfdfd" opacity="1.00" d=" M 172.40 679.17 C 174.59 679.14 177.10 678.93 178.01 681.39 C 176.38 682.73 174.42 683.08 172.54 682.08 C 172.50 681.36 172.44 679.90 172.40 679.17 Z" />
<path fill="#fdfdfd" opacity="1.00" d=" M 162.28 684.61 C 164.06 682.87 166.04 682.92 167.84 684.63 C 167.31 686.06 167.15 688.51 165.00 687.87 C 162.91 688.31 162.59 686.08 162.28 684.61 Z" />
<path fill="#fdfdfd" opacity="1.00" d=" M 449.45 726.84 C 458.93 725.52 469.41 725.17 478.00 730.04 C 480.95 731.53 480.54 735.15 480.77 737.92 C 481.18 742.69 482.41 748.15 479.40 752.36 C 475.47 756.58 469.49 757.59 464.18 759.06 C 453.39 761.94 441.81 764.21 430.80 761.23 C 427.52 758.46 426.27 753.98 424.98 750.03 C 423.53 745.69 423.84 740.52 427.05 737.03 C 432.69 730.66 441.36 728.27 449.45 726.84 M 451.34 730.33 C 443.82 731.72 435.53 733.30 429.93 738.93 C 428.05 740.46 427.72 743.83 430.52 744.53 C 440.48 746.65 450.63 744.43 460.42 742.42 C 465.23 741.52 469.74 739.41 473.89 736.86 C 475.13 736.17 475.46 734.55 474.89 733.32 C 472.84 731.24 469.87 730.46 467.05 730.16 C 461.83 729.61 456.53 729.54 451.34 730.33 M 430.54 749.57 C 431.62 752.57 431.58 756.92 435.07 758.27 C 442.51 759.04 449.96 757.59 457.26 756.23 C 463.44 754.87 469.77 753.48 475.37 750.43 C 478.77 748.57 476.60 743.97 476.66 740.92 C 462.18 746.97 446.33 751.05 430.54 749.57 Z" />
<path fill="#fdfdfd" opacity="1.00" d=" M 636.88 734.93 C 641.97 732.54 646.49 728.87 652.01 727.47 C 653.77 726.89 655.59 727.99 656.48 729.50 C 658.98 733.30 660.85 737.52 662.30 741.83 C 662.73 743.28 663.29 745.00 662.51 746.44 C 660.94 748.02 658.81 748.83 656.86 749.80 C 648.24 753.71 639.97 758.32 631.38 762.27 C 628.00 763.85 624.73 765.95 620.95 766.39 C 617.48 766.14 616.39 762.42 615.16 759.78 C 613.69 755.77 611.20 751.92 611.39 747.50 C 619.14 741.93 628.30 738.93 636.88 734.93 M 649.41 734.43 C 645.04 735.72 641.17 738.19 637.12 740.21 C 631.32 743.46 624.73 745.34 619.43 749.46 C 616.42 752.71 619.95 757.26 622.18 759.94 C 624.98 759.62 627.48 758.14 630.04 757.05 C 636.30 753.88 642.80 751.24 649.07 748.11 C 651.67 746.77 654.80 746.02 656.65 743.58 C 656.86 741.08 655.48 738.79 654.31 736.69 C 653.37 735.01 651.37 733.48 649.41 734.43 Z" />
<path fill="#fdfdfd" opacity="1.00" d=" M 946.34 733.30 C 958.19 731.69 970.12 733.21 981.77 735.49 C 988.80 737.32 994.86 742.13 998.89 748.10 C 1000.97 752.08 999.59 756.76 999.71 761.04 C 999.22 766.49 999.59 772.26 997.39 777.39 C 996.44 779.77 994.02 781.03 991.62 781.44 C 971.91 785.33 951.33 783.76 932.21 777.79 C 929.50 776.80 928.74 773.63 928.76 771.06 C 928.68 764.01 930.48 757.00 929.53 749.95 C 928.88 745.50 931.26 741.34 934.17 738.17 C 937.19 734.71 942.01 733.85 946.34 733.30 M 943.48 739.68 C 939.56 740.99 935.32 743.59 934.73 748.06 C 934.52 752.41 938.16 755.52 941.59 757.51 C 950.56 762.38 961.06 762.63 971.00 763.22 C 978.24 763.72 985.82 762.14 991.72 757.78 C 995.23 754.03 992.68 747.64 988.72 745.26 C 978.56 739.25 966.39 739.42 954.98 738.97 C 951.13 738.70 947.21 738.59 943.48 739.68 M 933.30 771.83 C 933.80 774.23 936.65 774.59 938.56 775.42 C 954.88 780.16 972.68 782.46 989.17 777.25 C 994.82 775.50 994.32 768.40 994.32 763.67 C 975.08 772.05 952.83 768.88 933.92 761.18 C 933.34 764.69 932.95 768.28 933.30 771.83 Z" />
<path fill="#fdfdfd" opacity="1.00" d=" M 856.37 737.46 C 860.45 735.90 865.23 736.61 868.63 739.37 C 874.65 744.28 879.96 750.53 882.05 758.15 C 883.09 761.73 882.13 765.81 879.58 768.54 C 871.78 777.16 862.11 783.76 853.38 791.36 C 845.92 797.57 838.51 803.83 831.22 810.23 C 824.13 815.86 816.33 821.88 806.97 822.61 C 799.95 823.04 794.41 817.85 790.06 813.01 C 785.32 807.65 782.38 799.16 786.73 792.72 C 792.53 785.25 799.69 778.98 806.97 772.98 C 816.42 764.26 826.93 756.86 837.27 749.26 C 843.31 744.87 849.03 739.56 856.37 737.46 M 857.50 742.48 C 851.58 745.27 846.29 749.18 840.96 752.93 C 835.19 757.11 829.46 761.46 824.61 766.71 C 823.61 767.54 824.90 768.82 825.31 769.67 C 830.91 776.71 836.87 783.47 842.56 790.45 C 843.37 791.09 844.55 793.07 845.69 791.93 C 853.62 785.49 861.09 778.48 869.10 772.12 C 872.26 769.54 876.31 766.59 875.94 761.98 C 875.65 754.83 870.66 748.95 865.46 744.52 C 863.29 742.82 860.22 741.21 857.50 742.48 M 815.41 772.18 C 807.47 777.82 800.32 784.58 793.69 791.72 C 791.84 793.79 789.62 796.02 789.49 798.97 C 790.35 805.83 794.73 811.87 800.47 815.55 C 803.81 817.61 807.98 817.35 811.71 816.79 C 819.83 815.09 825.32 808.39 831.87 803.86 C 834.57 801.44 838.08 799.47 839.53 795.99 C 833.77 788.67 827.23 781.96 821.24 774.81 C 819.73 773.25 817.80 769.97 815.41 772.18 Z" />
<path fill="#fdfdfd" opacity="1.00" d=" M 212.38 778.56 C 216.66 777.07 221.68 776.96 225.62 779.44 C 229.27 781.30 231.79 784.65 233.87 788.08 C 238.79 795.56 241.27 804.23 244.62 812.46 C 249.26 825.17 254.41 837.69 258.44 850.62 C 260.29 855.72 260.48 861.48 258.49 866.58 C 255.62 873.90 248.22 878.85 240.52 879.71 C 235.83 880.16 230.34 880.81 226.50 877.46 C 221.37 873.24 218.43 867.08 215.81 861.13 C 207.89 841.97 201.69 822.11 197.03 801.92 C 194.30 791.41 202.67 781.37 212.38 778.56 M 211.10 832.47 C 213.59 841.81 217.69 850.67 221.26 859.65 C 223.42 864.22 226.04 868.80 229.78 872.25 C 237.56 876.80 248.12 873.25 253.16 866.19 C 254.88 863.84 254.40 860.76 254.09 858.08 C 251.85 846.61 246.50 836.11 242.90 825.06 C 242.50 822.80 239.84 823.06 238.15 823.42 C 228.75 824.99 219.58 828.16 211.10 832.47 Z" />
<path fill="#fdfdfd" opacity="1.00" d=" M 659.43 805.68 C 664.34 804.96 669.52 804.78 674.17 806.80 C 682.60 810.54 689.23 817.77 692.73 826.25 C 696.69 833.78 696.10 842.69 694.52 850.78 C 692.92 858.03 687.29 863.36 681.44 867.46 C 674.00 873.07 664.39 875.48 655.16 874.75 C 644.80 873.47 635.30 866.60 630.84 857.15 C 627.50 850.48 626.77 842.77 627.65 835.44 C 628.38 826.29 633.74 817.37 641.84 812.92 C 647.29 809.64 653.05 806.59 659.43 805.68 M 658.38 811.51 C 652.03 812.73 646.50 816.46 642.09 821.07 C 646.06 825.73 651.37 829.05 655.96 833.08 C 665.72 840.73 674.24 850.08 684.93 856.46 C 690.60 851.50 692.36 842.70 690.31 835.58 C 688.03 825.41 681.63 815.33 671.58 811.49 C 667.33 809.80 662.69 810.41 658.38 811.51 M 636.16 826.74 C 631.83 835.22 631.93 845.66 635.57 854.38 C 638.96 860.66 644.55 866.10 651.42 868.33 C 660.48 870.24 670.59 868.74 678.01 862.99 C 680.24 861.19 678.11 858.78 676.48 857.53 C 663.71 847.12 651.32 836.21 637.97 826.55 C 637.52 826.60 636.62 826.69 636.16 826.74 Z" />
<path fill="#fdfdfd" opacity="1.00" d=" M 53.42 808.65 C 59.80 807.61 66.28 808.67 72.58 809.73 C 81.28 811.42 89.88 814.11 97.67 818.39 C 102.16 821.19 106.73 825.36 107.11 830.99 C 106.36 838.62 105.42 847.06 99.89 852.89 C 93.52 858.84 84.07 858.55 75.97 857.78 C 64.67 855.85 53.55 851.62 44.49 844.48 C 39.26 840.31 39.76 832.91 40.09 826.92 C 40.81 822.63 41.49 818.24 43.22 814.23 C 45.11 810.37 49.55 809.29 53.42 808.65 M 53.25 813.22 C 48.89 813.92 46.13 820.10 49.70 823.25 C 55.90 827.99 62.57 832.33 69.93 835.04 C 77.08 837.22 84.64 837.19 92.04 837.48 C 95.33 837.42 99.49 836.54 100.59 832.94 C 100.26 827.78 96.74 823.03 92.01 821.01 C 80.03 815.26 66.51 812.47 53.25 813.22 M 45.93 827.23 C 45.71 832.23 44.81 838.31 48.78 842.20 C 52.78 845.64 57.98 847.15 62.70 849.31 C 68.65 851.25 74.62 853.73 80.99 853.64 C 86.28 853.27 92.01 852.78 96.30 849.31 C 98.81 847.43 99.67 844.28 100.30 841.38 C 94.24 842.06 88.14 842.92 82.02 842.36 C 68.67 841.62 56.28 835.36 45.93 827.23 Z" />
<path fill="#fdfdfd" opacity="1.00" d=" M 368.29 829.21 C 379.94 826.94 391.32 832.03 401.04 837.97 C 408.46 842.67 415.92 848.76 418.47 857.54 C 420.74 863.77 420.39 871.04 416.60 876.62 C 413.00 881.97 410.90 888.61 405.62 892.63 C 401.82 895.54 396.69 894.88 392.42 893.54 C 383.51 890.55 374.79 886.55 367.60 880.38 C 360.50 874.40 352.39 868.26 349.77 858.89 C 348.60 855.47 350.85 852.35 352.42 849.51 C 355.13 845.03 357.03 840.13 359.66 835.61 C 361.49 832.40 364.69 830.05 368.29 829.21 M 368.51 834.58 C 364.74 836.98 362.28 842.33 364.44 846.55 C 371.30 857.03 381.30 865.12 392.58 870.46 C 393.45 870.90 397.02 872.42 396.12 870.23 C 393.28 859.46 389.76 848.86 386.70 838.14 C 385.99 835.18 382.64 834.48 380.06 834.17 C 376.24 833.88 372.14 832.80 368.51 834.58 M 393.97 839.62 C 394.88 846.03 397.21 852.12 398.74 858.39 C 400.35 863.82 401.53 869.48 404.32 874.48 C 406.17 874.50 408.18 874.98 409.88 873.98 C 413.73 872.06 414.97 867.24 414.67 863.27 C 412.94 852.25 403.87 843.79 393.97 839.62 M 355.37 856.99 C 356.43 862.52 360.78 866.56 364.43 870.55 C 370.02 876.65 377.40 880.64 384.69 884.33 C 389.48 886.44 394.34 889.52 399.80 888.81 C 403.44 888.10 405.27 884.53 406.95 881.62 C 404.41 880.52 401.77 879.66 399.12 878.89 C 389.85 876.20 381.25 871.35 374.09 864.89 C 368.52 860.30 364.59 854.05 359.07 849.46 C 357.20 851.57 355.56 854.10 355.37 856.99 Z" />
<path fill="#fdfdfd" opacity="1.00" d=" M 514.42 831.65 C 521.66 830.56 530.37 829.31 536.29 834.68 C 541.90 839.99 546.76 846.44 549.13 853.87 C 551.06 861.26 549.85 869.81 544.66 875.65 C 538.99 881.95 530.51 885.77 522.01 885.45 C 513.56 885.60 505.36 881.43 499.82 875.17 C 494.31 868.94 492.47 860.18 493.51 852.08 C 494.05 847.35 495.39 842.35 499.08 839.08 C 503.35 835.21 508.88 832.98 514.42 831.65 M 518.42 836.62 C 512.47 838.18 505.91 839.88 501.91 844.92 C 498.81 848.83 498.73 854.23 499.37 858.96 C 500.25 866.08 504.35 872.85 510.64 876.43 C 518.06 880.84 527.77 880.66 535.22 876.40 C 541.57 872.96 545.41 865.39 544.58 858.26 C 543.21 851.73 539.63 845.75 535.05 840.96 C 530.81 836.53 524.26 835.17 518.42 836.62 Z" />
<path fill="#fdfdfd" opacity="1.00" d=" M 895.43 858.67 C 903.63 856.41 912.31 858.52 919.79 862.14 C 928.35 866.35 936.71 872.32 940.80 881.24 C 943.06 887.23 943.54 894.09 941.26 900.16 C 938.18 909.65 931.46 918.09 922.36 922.39 C 914.99 926.44 906.03 926.69 898.00 924.81 C 890.32 922.08 883.48 916.92 878.73 910.29 C 872.90 902.97 870.95 893.14 871.98 883.98 C 872.88 877.20 877.15 871.55 881.70 866.71 C 885.50 862.95 890.15 859.86 895.43 858.67 M 878.40 882.22 C 875.42 893.55 879.87 905.91 887.93 914.09 C 889.06 915.51 890.85 915.89 892.54 916.28 C 894.52 910.67 895.32 904.74 896.75 898.98 C 899.17 887.22 902.46 875.57 903.14 863.53 C 892.02 863.34 881.22 871.39 878.40 882.22 M 909.45 864.76 C 907.50 870.95 907.11 877.46 905.58 883.75 C 903.11 895.44 899.02 906.83 897.69 918.74 C 898.24 919.16 899.32 919.99 899.87 920.41 C 900.70 918.32 901.42 916.19 901.90 914.00 C 904.81 901.02 909.34 888.42 911.46 875.25 C 911.89 872.10 912.99 868.93 912.47 865.73 C 911.46 865.36 910.45 865.04 909.45 864.76 M 918.87 867.00 C 918.22 868.75 917.59 870.53 917.17 872.37 C 914.29 885.03 911.44 897.69 908.20 910.27 C 907.27 914.09 905.72 917.86 906.04 921.87 C 911.42 921.58 917.02 920.64 921.61 917.63 C 925.62 914.71 929.42 911.36 932.25 907.24 C 936.69 900.40 938.80 891.40 935.34 883.69 C 932.72 875.95 926.43 869.89 918.87 867.00 Z" />
<path fill="#fdfdfd" opacity="1.00" d=" M 729.30 896.13 C 741.86 894.80 755.09 897.39 765.87 904.10 C 768.83 906.25 772.90 909.32 771.51 913.53 C 769.71 918.89 770.15 925.52 765.51 929.50 C 760.34 932.92 753.76 931.75 747.93 931.58 C 737.01 931.04 725.70 929.56 716.21 923.75 C 713.34 919.17 713.84 913.23 714.12 908.03 C 714.81 900.61 722.72 896.86 729.30 896.13 M 729.41 899.64 C 726.39 900.13 723.29 900.98 720.78 902.78 C 719.31 903.80 718.91 906.26 720.68 907.22 C 726.06 910.82 732.59 912.13 738.86 913.27 C 747.32 914.53 756.15 915.85 764.54 913.45 C 765.70 913.19 766.20 911.92 766.77 911.01 C 765.86 908.49 763.44 907.02 761.29 905.68 C 751.47 900.88 740.32 898.56 729.41 899.64 M 719.22 912.18 C 719.48 915.70 717.73 921.30 722.30 922.66 C 730.23 925.43 738.67 926.44 747.01 927.20 C 752.41 927.33 758.09 928.12 763.30 926.31 C 764.95 923.90 765.26 920.92 765.98 918.17 C 750.28 919.15 733.76 918.82 719.22 912.18 Z" />
<path fill="#fdfdfd" opacity="1.00" d=" M 154.32 899.29 C 157.55 898.74 161.35 898.65 163.88 901.11 C 167.33 904.63 168.67 910.24 166.81 914.86 C 163.83 922.01 158.38 928.51 150.95 931.22 C 148.52 931.71 145.82 931.74 143.64 930.40 C 137.19 927.23 134.97 918.32 138.14 912.11 C 141.27 905.78 147.22 900.50 154.32 899.29 M 154.46 905.51 C 148.01 907.38 141.34 913.55 143.20 920.88 C 143.45 924.47 147.68 926.40 150.76 924.81 C 155.69 922.64 159.20 917.86 161.04 912.92 C 162.67 908.90 158.99 903.50 154.46 905.51 Z" />
<path fill="#fdfdfd" opacity="1.00" d=" M 0.00 911.93 C 12.27 910.82 24.76 918.98 28.18 930.88 C 30.34 938.53 30.79 947.43 26.38 954.39 C 23.00 959.15 17.66 961.98 12.56 964.55 C 8.65 966.54 4.36 967.65 0.00 968.00 L 0.00 962.71 C 8.17 962.52 16.66 959.33 21.99 952.95 C 26.41 946.35 27.05 937.11 22.81 930.25 C 18.07 922.43 9.01 917.85 0.00 917.47 L 0.00 911.93 Z" />
<path fill="#fdfdfd" opacity="1.00" d=" M 1003.98 927.97 C 1007.37 919.65 1015.60 914.34 1024.00 912.06 L 1024.00 917.33 C 1016.33 918.81 1010.98 925.12 1007.90 931.92 C 1005.75 935.74 1006.47 940.33 1007.63 944.35 C 1009.18 949.57 1011.19 954.95 1015.29 958.74 C 1017.69 960.99 1020.94 961.92 1024.00 962.94 L 1024.00 967.90 C 1019.64 967.30 1015.06 966.33 1011.66 963.36 C 1005.62 958.20 1003.14 950.22 1001.34 942.77 C 999.99 937.65 1001.77 932.54 1003.98 927.97 Z" />
<path fill="#fdfdfd" opacity="1.00" d=" M 258.47 920.47 C 260.55 919.49 262.90 920.34 264.89 921.15 C 273.20 924.76 281.31 928.80 289.61 932.45 C 293.91 934.56 298.47 936.65 301.72 940.29 C 304.32 943.27 302.97 947.56 301.61 950.80 C 300.01 954.19 298.18 958.11 294.44 959.55 C 292.43 960.49 290.28 959.36 288.43 958.60 C 279.34 954.28 270.20 950.07 261.10 945.78 C 257.34 943.79 253.10 942.05 250.61 938.41 C 248.73 934.79 250.87 930.72 252.58 927.48 C 254.27 924.97 255.60 921.84 258.47 920.47 M 256.16 933.22 C 255.53 934.75 256.59 936.30 257.86 937.13 C 264.51 941.87 272.27 944.63 279.40 948.53 C 284.04 950.54 288.44 953.93 293.72 953.74 C 296.13 950.74 298.47 946.70 297.30 942.75 C 294.99 939.50 291.03 938.14 287.54 936.59 C 280.95 934.03 274.79 930.56 268.42 927.54 C 266.11 926.63 263.70 925.16 261.13 925.76 C 258.10 926.95 257.07 930.40 256.16 933.22 Z" />
<path fill="#fdfdfd" opacity="1.00" d=" M 884.91 955.83 C 887.10 952.06 890.43 948.32 894.96 947.67 C 900.02 947.28 905.56 947.11 909.95 950.09 C 914.32 952.65 915.86 958.19 915.43 962.98 C 914.26 975.49 910.35 987.50 907.58 999.70 C 905.28 1007.84 902.98 1016.00 900.22 1024.00 L 894.71 1024.00 C 897.57 1016.58 899.90 1008.96 901.61 1001.19 C 893.84 998.94 885.95 996.96 877.96 995.64 C 876.43 995.18 875.59 997.02 875.08 998.13 C 872.00 1006.37 867.86 1014.98 870.07 1024.00 L 864.55 1024.00 C 862.88 1012.98 868.47 1002.88 871.72 992.72 C 876.86 980.68 878.37 967.29 884.91 955.83 M 895.33 954.05 C 887.01 958.24 885.97 968.39 883.28 976.29 C 882.30 980.60 879.86 984.87 880.50 989.37 C 886.20 992.85 893.20 993.23 899.65 994.42 C 901.15 994.50 903.74 995.31 903.90 993.05 C 906.38 983.14 909.31 973.18 910.00 962.94 C 910.35 955.74 901.30 951.68 895.33 954.05 Z" />
<path fill="#fdfdfd" opacity="1.00" d=" M 523.71 957.73 C 527.29 953.14 533.11 950.32 538.95 950.64 C 544.34 951.23 549.41 953.93 553.00 957.97 C 560.45 966.20 567.41 974.86 574.81 983.13 C 579.71 988.96 585.55 994.21 588.74 1001.28 C 592.36 1008.24 593.00 1016.50 590.77 1024.00 L 576.27 1024.00 C 579.65 1021.52 583.13 1019.02 585.80 1015.76 C 587.09 1014.15 586.24 1012.00 586.17 1010.18 C 584.27 1010.38 582.19 1010.34 580.70 1011.71 C 575.75 1015.62 571.21 1020.03 566.32 1024.00 L 554.25 1024.00 C 540.93 1009.92 526.87 995.64 519.40 977.41 C 516.43 970.70 519.29 963.07 523.71 957.73 M 536.30 957.20 C 530.54 958.81 526.37 963.95 524.31 969.36 C 522.80 973.39 525.79 977.02 527.60 980.37 C 531.11 986.40 534.40 992.70 539.55 997.55 C 540.46 998.82 542.04 997.60 543.00 997.04 C 548.64 992.73 553.94 987.96 559.54 983.59 C 561.04 982.18 563.09 981.10 563.77 979.05 C 559.73 973.55 555.00 968.59 550.67 963.32 C 546.98 959.59 541.78 956.15 536.30 957.20 M 550.82 998.81 C 548.76 1000.79 546.12 1002.53 545.44 1005.50 C 548.48 1004.01 550.75 1001.47 553.19 999.19 C 557.26 995.21 562.08 992.12 566.60 988.68 C 567.60 987.91 568.26 986.90 568.59 985.66 C 561.43 988.00 556.27 993.91 550.82 998.81 M 569.48 993.48 C 564.61 996.09 560.28 999.58 555.82 1002.82 C 553.50 1004.65 550.95 1006.92 550.50 1009.99 C 550.15 1011.81 550.86 1012.42 552.63 1011.80 C 555.55 1009.70 558.04 1007.06 560.80 1004.77 C 564.98 1001.00 569.70 997.84 573.64 993.80 C 572.71 991.82 570.88 992.66 569.48 993.48 M 557.45 1015.66 C 554.53 1017.73 558.80 1022.40 561.39 1020.43 C 564.07 1018.47 566.25 1015.92 568.76 1013.76 C 573.04 1009.61 578.32 1006.57 582.17 1001.98 C 581.54 1000.62 580.70 999.39 579.90 998.16 C 571.14 1002.13 564.27 1009.07 557.45 1015.66 Z" />
<path fill="#fdfdfd" opacity="1.00" d=" M 386.48 981.56 C 390.84 974.30 399.79 970.72 408.05 971.41 C 415.03 971.39 420.72 977.16 422.62 983.55 C 426.98 996.56 426.16 1010.51 427.56 1024.00 L 422.74 1024.00 C 421.06 1023.14 419.49 1021.97 417.59 1021.68 C 409.59 1020.34 401.45 1021.09 393.43 1021.74 C 391.35 1021.83 389.59 1022.99 387.85 1024.00 L 383.65 1024.00 C 383.72 1016.01 383.47 1008.01 383.95 1000.03 C 384.17 993.86 383.45 987.20 386.48 981.56 Z" />
<path fill="#fdfdfd" opacity="1.00" d=" M 270.90 1008.06 C 284.78 1004.46 300.10 1011.68 307.06 1024.00 L 301.76 1024.00 C 296.63 1017.02 288.35 1013.02 279.93 1011.78 C 273.19 1011.48 266.41 1014.04 261.20 1018.26 C 263.45 1020.47 266.15 1022.17 268.72 1024.00 L 260.78 1024.00 C 260.04 1022.02 257.10 1021.48 256.72 1024.00 L 248.29 1024.00 C 254.74 1017.40 261.65 1010.38 270.90 1008.06 Z" />
<path fill="#fdfdfd" opacity="1.00" d=" M 685.49 1014.51 C 692.67 1008.99 702.44 1009.18 711.00 1010.35 C 721.46 1011.91 732.55 1015.38 739.36 1024.00 L 734.11 1024.00 C 728.90 1018.57 721.46 1016.40 714.37 1014.71 C 708.01 1013.40 701.39 1012.83 694.96 1013.94 C 691.78 1014.71 687.91 1015.58 686.56 1018.98 C 687.36 1021.93 690.59 1022.71 692.97 1024.00 L 680.90 1024.00 C 681.71 1020.55 682.37 1016.70 685.49 1014.51 Z" />
<path fill="#fdfdfd" opacity="1.00" d=" M 81.78 1015.74 C 87.76 1013.00 94.79 1013.84 100.68 1016.40 C 104.35 1017.98 106.82 1021.22 109.54 1024.00 L 101.60 1024.00 C 97.76 1021.80 93.63 1019.38 89.02 1019.95 C 85.87 1020.05 83.57 1022.41 81.06 1024.00 L 74.47 1024.00 C 76.39 1020.86 78.36 1017.44 81.78 1015.74 Z" />
</g>
</svg>
