<?xml version="1.0" encoding="UTF-8" ?>
<!DOCTYPE svg PUBLIC "-//W3C//DTD SVG 1.1//EN" "http://www.w3.org/Graphics/SVG/1.1/DTD/svg11.dtd">
<svg width="960pt" height="960pt" viewBox="0 0 960 960" version="1.1" xmlns="http://www.w3.org/2000/svg">
<g id="#644bafff">
<path fill="#644baf" opacity="1.00" d=" M 0.00 0.00 L 0.17 0.00 C 0.13 0.03 0.04 0.10 0.00 0.14 L 0.00 0.00 Z" />
<path fill="#644baf" opacity="1.00" d=" M 273.32 0.00 L 280.73 0.00 C 279.31 0.76 278.01 2.75 276.18 2.01 C 275.20 1.37 274.25 0.71 273.32 0.00 Z" />
<path fill="#644baf" opacity="1.00" d=" M 87.99 22.70 C 87.51 19.92 90.56 17.10 93.16 18.80 C 100.55 22.20 108.73 22.80 116.58 24.48 C 123.73 25.53 130.97 25.98 138.17 26.68 C 148.42 26.09 158.70 25.43 168.97 26.07 C 174.10 26.57 178.84 23.20 183.89 24.10 C 183.81 25.88 183.74 27.66 183.67 29.43 C 183.09 29.66 181.92 30.10 181.33 30.33 C 182.07 38.26 177.21 45.28 175.72 52.86 C 174.54 59.85 172.79 66.76 170.48 73.46 C 167.52 82.91 165.72 92.66 163.99 102.40 C 161.21 110.26 161.05 118.67 160.62 126.90 C 160.51 129.19 157.77 130.27 155.94 129.09 C 157.50 123.48 159.31 117.87 159.42 111.99 C 159.52 106.44 161.58 101.20 162.07 95.70 C 164.24 88.80 166.11 81.80 167.63 74.72 C 168.54 70.52 168.79 66.17 170.25 62.11 C 173.29 54.29 174.95 46.04 176.96 37.92 C 177.56 36.42 177.11 34.90 176.58 33.47 C 171.06 36.52 165.64 39.77 160.81 43.85 C 154.76 49.04 146.94 51.60 140.96 56.91 C 145.73 60.21 151.58 61.39 156.30 64.72 C 151.73 68.90 145.82 70.87 140.24 73.26 C 136.39 74.85 133.17 77.86 129.02 78.71 C 122.51 80.05 116.02 81.56 109.67 83.54 C 116.90 87.93 125.53 88.88 133.08 92.51 C 132.63 97.82 126.03 97.16 122.49 99.34 C 116.95 102.70 110.55 103.96 104.74 106.69 C 97.58 110.88 89.07 111.36 81.47 114.46 C 81.04 114.67 80.20 115.10 79.77 115.31 C 80.14 118.23 81.39 120.93 82.00 123.79 C 80.25 127.00 76.28 125.41 73.73 124.24 C 69.38 122.15 64.32 122.37 60.03 120.14 C 60.01 119.66 59.97 118.70 59.94 118.22 C 65.11 114.14 71.24 110.57 73.61 104.04 C 75.02 104.27 76.97 103.73 77.69 105.37 C 78.68 107.37 78.74 109.68 79.13 111.85 C 79.63 111.74 80.61 111.54 81.10 111.44 C 84.08 110.70 87.04 109.82 90.11 109.53 C 90.93 108.92 91.75 108.32 92.57 107.71 C 99.31 107.53 105.31 104.05 111.25 101.23 C 115.72 98.25 121.23 97.65 125.84 94.96 C 119.49 89.01 110.05 89.36 102.96 84.71 C 103.30 83.81 103.66 82.91 104.07 82.03 C 107.42 80.65 111.14 80.50 114.62 79.52 C 126.72 76.33 139.53 73.17 149.03 64.53 C 144.81 60.84 138.57 61.09 134.56 57.02 C 136.32 55.09 138.70 54.02 141.01 52.92 C 149.17 48.24 157.19 43.31 164.93 37.96 C 168.43 34.94 172.20 32.26 176.07 29.73 C 172.63 27.77 168.72 30.13 165.02 29.73 C 159.23 29.38 153.67 32.25 147.90 30.98 C 140.89 29.59 133.69 31.13 126.72 29.46 C 121.70 28.80 116.66 28.31 111.62 27.78 C 103.60 26.88 95.87 24.37 87.99 22.70 Z" />
<path fill="#644baf" opacity="1.00" d=" M 733.40 62.37 C 734.57 60.93 736.31 60.12 737.84 59.10 C 740.46 68.75 743.08 78.39 745.54 88.08 C 748.33 94.38 748.10 101.45 750.95 107.72 C 751.26 108.91 751.12 110.16 751.02 111.37 C 750.40 114.80 749.64 118.21 748.75 121.58 C 746.59 117.38 747.71 112.44 746.27 108.03 C 745.02 104.13 743.80 100.22 743.12 96.17 C 741.55 87.58 737.68 79.63 736.14 71.04 C 735.89 67.90 732.00 65.67 733.40 62.37 Z" />
<path fill="#644baf" opacity="1.00" d=" M 565.50 90.40 C 567.01 89.45 568.66 90.29 569.84 91.36 C 567.36 95.60 566.00 100.35 563.61 104.62 C 562.42 106.74 561.45 108.97 560.77 111.30 C 555.22 122.51 547.83 132.74 542.66 144.14 L 542.46 143.15 C 542.11 141.57 541.74 140.00 541.36 138.43 L 541.29 138.15 C 547.67 127.18 553.84 116.08 560.00 104.99 C 562.86 100.55 562.73 94.90 565.50 90.40 Z" />
<path fill="#644baf" opacity="1.00" d=" M 650.27 123.83 C 653.99 123.19 657.69 121.09 661.51 122.53 C 660.17 126.96 657.92 131.13 657.23 135.77 C 656.99 138.31 655.27 140.17 653.48 141.81 C 651.23 139.91 649.16 137.79 646.74 136.11 C 644.44 135.96 642.68 137.66 641.10 139.07 C 638.03 142.04 634.15 144.06 631.27 147.25 C 628.16 150.68 623.65 152.22 620.01 154.96 C 615.72 158.11 610.56 159.90 606.53 163.43 C 604.18 165.54 601.34 166.96 598.31 167.79 C 598.74 160.86 601.36 154.25 603.95 147.87 C 604.81 146.04 603.80 144.16 603.37 142.37 C 600.11 146.16 596.45 149.53 592.38 152.44 C 589.51 155.62 585.77 157.65 582.08 159.70 C 575.71 163.44 569.60 168.18 562.31 169.89 C 561.79 165.31 563.88 161.09 564.75 156.70 C 564.95 155.36 565.57 153.79 564.30 152.79 C 558.86 155.29 553.56 158.13 547.93 160.20 C 547.51 159.12 547.09 158.04 546.67 156.96 C 553.48 154.36 559.94 150.91 566.18 147.15 C 567.35 146.51 568.64 146.14 569.92 145.72 C 570.97 151.71 568.17 157.26 567.58 163.11 C 571.85 161.26 575.97 159.11 580.03 156.84 C 584.37 154.44 588.91 152.20 592.46 148.65 C 596.46 144.54 600.96 141.00 605.39 137.39 C 606.50 136.37 609.10 135.07 609.50 137.41 C 608.76 145.22 605.52 152.55 604.54 160.31 C 607.42 159.15 610.00 157.41 612.50 155.58 C 616.10 152.93 620.50 151.63 624.05 148.88 C 628.42 145.35 633.07 142.18 637.40 138.59 C 639.64 136.68 642.93 135.12 643.47 131.96 C 642.48 129.40 639.88 127.55 640.15 124.52 C 643.46 123.61 646.89 123.94 650.27 123.83 Z" />
<path fill="#644baf" opacity="1.00" d=" M 324.29 153.05 C 330.36 156.24 337.08 157.78 343.50 160.07 C 343.21 161.39 342.91 162.72 342.63 164.06 C 337.79 162.73 332.95 161.43 328.20 159.83 C 326.26 159.06 324.19 159.50 322.20 159.73 C 321.67 158.86 321.15 157.99 320.64 157.11 C 321.85 155.75 323.07 154.40 324.29 153.05 Z" />
<path fill="#644baf" opacity="1.00" d=" M 561.44 181.85 C 565.96 183.42 570.13 185.82 574.68 187.31 C 583.32 190.26 591.59 194.18 599.71 198.31 C 604.44 200.60 608.76 204.00 614.15 204.56 C 613.69 206.59 612.59 208.83 610.21 208.96 C 607.43 207.82 605.08 205.88 602.48 204.41 C 593.19 199.01 583.37 194.59 573.36 190.72 C 571.17 189.93 569.20 188.69 567.29 187.40 C 564.81 186.16 563.04 184.04 561.44 181.85 Z" />
<path fill="#644baf" opacity="1.00" d=" M 303.20 238.97 C 308.36 233.71 312.85 227.84 318.21 222.77 C 310.81 235.78 300.83 247.14 290.53 257.92 L 290.05 258.33 C 289.35 255.23 289.21 252.02 290.12 248.94 C 291.26 245.02 290.52 240.92 291.01 236.93 C 291.06 234.72 293.46 234.02 294.95 232.92 C 297.47 235.23 300.21 237.29 303.20 238.97 Z" />
<path fill="#644baf" opacity="1.00" d=" M 8.27 228.12 C 10.71 228.85 13.10 229.73 15.40 230.85 C 14.61 237.93 13.97 245.37 15.84 252.32 L 15.03 251.71 C 13.63 249.45 11.76 247.55 9.95 245.63 C 9.44 245.02 8.95 244.40 8.46 243.78 C 9.48 240.03 9.36 236.03 7.55 232.55 C 6.57 231.05 7.83 229.55 8.27 228.12 Z" />
<path fill="#644baf" opacity="1.00" d=" M 212.65 232.60 C 214.06 231.21 216.05 230.12 218.07 230.76 C 220.31 230.93 220.22 233.54 220.97 235.12 C 213.65 239.20 206.92 244.23 199.87 248.74 C 188.59 255.43 177.01 261.62 165.14 267.19 C 158.09 270.97 150.95 274.59 143.55 277.65 C 138.08 280.31 132.05 281.33 126.37 283.41 C 120.22 285.59 113.70 286.45 107.54 288.62 C 119.51 292.27 131.89 294.26 144.12 296.86 C 154.28 298.48 164.61 300.04 174.93 299.04 C 175.18 300.42 176.29 301.94 175.33 303.28 C 173.44 306.72 170.43 309.33 167.56 311.92 C 169.94 311.96 172.33 312.07 174.71 312.31 C 171.73 312.83 168.66 312.48 165.65 312.68 C 163.31 312.70 160.98 312.67 158.64 312.67 C 161.16 310.02 163.88 307.57 166.42 304.95 C 152.68 303.42 139.00 301.37 125.45 298.64 C 119.54 297.07 113.55 295.49 107.37 295.93 C 110.17 300.38 113.16 304.73 116.59 308.74 C 113.66 308.07 110.71 307.49 107.81 306.72 C 103.93 302.98 102.04 297.65 97.94 294.10 C 96.18 292.23 92.82 290.44 94.13 287.37 C 96.02 283.08 101.41 285.06 105.01 284.00 C 117.26 281.34 129.27 277.51 140.99 273.06 C 150.16 269.68 158.51 264.54 167.28 260.29 C 173.81 257.36 179.87 253.54 186.20 250.22 C 195.63 245.36 204.81 239.80 212.65 232.60 Z" />
<path fill="#644baf" opacity="1.00" d=" M 409.47 243.15 C 411.02 243.14 412.56 243.13 414.12 243.14 C 412.42 251.05 409.71 258.85 409.55 267.03 C 409.42 268.80 409.76 270.92 408.24 272.23 C 407.30 273.31 405.07 274.57 404.35 272.62 C 403.71 269.07 404.59 265.49 405.02 261.97 C 405.64 255.49 409.01 249.67 409.47 243.15 Z" />
<path fill="#644baf" opacity="1.00" d=" M 855.10 251.59 C 862.03 249.19 868.78 246.11 876.07 244.87 L 876.41 244.91 C 882.11 249.05 888.92 251.03 895.29 253.83 C 903.71 258.50 912.48 262.49 920.97 267.03 C 925.83 268.89 930.59 271.05 934.73 274.28 C 934.55 275.22 934.39 276.16 934.23 277.11 C 930.47 278.30 926.88 280.00 923.02 280.81 C 919.79 281.52 916.32 280.82 913.27 282.29 C 910.22 283.60 907.06 284.63 903.85 285.44 C 905.58 286.96 907.18 288.98 909.61 289.31 C 915.67 290.15 920.87 293.65 926.68 295.36 C 933.97 297.51 939.53 303.02 946.56 305.73 C 951.59 307.70 955.88 311.03 960.00 314.45 L 960.00 320.66 C 953.09 319.24 946.44 323.21 940.50 326.24 C 944.48 329.81 949.40 332.05 953.58 335.37 C 955.47 336.89 957.76 337.73 960.00 338.63 L 960.00 344.42 C 954.96 341.89 951.36 337.36 946.42 334.71 C 942.06 332.57 938.36 329.09 933.43 328.26 C 931.07 327.57 933.08 325.21 934.01 324.10 C 936.29 320.94 940.23 320.25 943.78 319.46 C 947.54 318.53 951.16 316.93 954.27 314.59 C 949.11 313.37 944.52 310.69 940.48 307.33 C 934.62 303.64 928.87 299.39 922.03 297.70 C 917.29 296.30 912.34 295.43 907.96 293.04 C 903.23 290.37 897.86 289.31 892.83 287.41 C 893.12 283.67 897.32 283.42 899.95 281.92 C 904.37 279.34 909.65 279.52 914.35 277.69 C 917.91 276.29 922.52 276.91 925.11 273.65 C 916.94 269.15 909.01 264.19 900.51 260.36 C 896.64 258.56 893.10 255.97 888.90 254.96 C 881.92 253.34 876.08 248.53 868.94 247.47 C 864.22 247.81 861.99 252.22 860.41 256.06 C 858.54 254.93 856.70 253.69 855.38 251.94 L 855.10 251.59 Z" />
<path fill="#644baf" opacity="1.00" d=" M 13.46 282.41 C 15.85 285.52 17.96 288.83 19.93 292.23 C 20.35 293.27 20.77 294.31 21.20 295.34 C 20.86 302.02 22.52 308.46 24.00 314.89 C 24.67 325.72 28.01 336.12 29.20 346.86 C 29.46 348.20 30.33 349.30 30.93 350.51 C 30.98 350.73 31.09 351.18 31.14 351.40 C 29.75 358.28 28.43 365.20 25.99 371.81 L 25.71 371.68 C 17.64 367.95 8.48 369.04 0.00 366.87 L 0.00 363.31 C 8.24 362.05 15.61 366.86 23.72 366.90 C 23.67 366.37 23.59 365.31 23.55 364.78 C 15.52 358.45 7.43 352.17 0.00 345.13 L 0.00 340.95 C 3.88 343.33 8.03 345.43 11.14 348.86 C 15.78 353.19 20.48 358.28 26.79 359.97 C 26.46 355.44 25.42 350.99 25.50 346.43 C 21.91 338.51 23.85 329.39 20.68 321.33 C 19.28 318.05 19.29 314.46 19.11 310.97 C 19.02 308.54 17.53 306.45 17.32 304.05 C 17.05 296.69 15.06 289.55 13.46 282.41 Z" />
<path fill="#644baf" opacity="1.00" d=" M 302.73 338.20 L 302.85 337.61 C 303.67 338.59 304.51 339.57 305.34 340.55 C 304.17 342.28 303.01 344.09 301.18 345.22 C 301.73 342.89 302.26 340.55 302.73 338.20 Z" />
<path fill="#644baf" opacity="1.00" d=" M 909.93 362.01 C 920.88 360.52 931.96 361.42 942.97 361.17 C 948.67 360.97 954.42 361.19 960.00 362.46 L 960.00 367.08 C 957.47 366.17 954.79 365.53 952.10 366.00 C 947.09 366.69 942.21 364.18 937.20 365.19 C 926.12 366.87 914.84 364.76 903.77 366.52 C 900.02 367.05 896.20 366.58 892.48 367.35 C 886.67 368.62 880.72 369.14 874.98 370.72 C 872.61 371.24 867.28 371.61 868.77 367.75 C 871.75 364.54 876.83 365.62 880.79 364.81 C 890.36 362.77 900.19 362.52 909.93 362.01 Z" />
<path fill="#644baf" opacity="1.00" d=" M 822.23 387.81 C 823.72 388.78 826.20 389.50 826.14 391.68 C 826.12 394.31 826.24 397.01 827.56 399.37 C 829.46 402.96 829.18 407.59 832.48 410.38 C 832.79 412.25 833.27 414.10 834.02 415.85 C 839.32 428.81 844.67 441.79 851.41 454.09 C 849.58 453.56 847.73 453.10 845.91 452.59 C 845.72 452.53 845.32 452.41 845.13 452.35 C 838.06 435.64 829.32 419.48 824.34 401.95 C 823.51 397.23 821.47 392.70 822.23 387.81 Z" />
<path fill="#644baf" opacity="1.00" d=" M 426.23 410.36 C 426.95 409.15 428.23 407.72 429.82 408.16 C 433.10 410.08 435.55 413.19 438.99 414.90 C 443.64 417.21 448.18 419.74 452.73 422.25 C 454.74 423.20 456.82 424.89 459.18 424.11 C 461.20 425.35 463.26 426.56 465.43 427.56 C 464.32 428.69 463.22 429.83 462.11 430.95 L 461.82 431.24 C 458.91 429.89 456.09 428.38 453.28 426.83 C 445.44 423.18 438.23 418.38 430.49 414.54 C 428.91 413.44 426.16 412.69 426.23 410.36 Z" />
<path fill="#644baf" opacity="1.00" d=" M 711.36 425.10 C 718.65 427.78 725.01 432.38 732.18 435.34 C 735.16 437.47 738.38 439.23 741.39 441.32 C 741.21 444.85 745.41 446.21 747.58 448.31 C 752.94 451.60 757.16 457.12 763.54 458.44 C 766.19 460.51 768.58 462.90 770.90 465.33 C 772.88 467.42 775.01 469.37 777.03 471.45 L 777.60 472.21 C 775.57 472.37 773.29 472.90 771.53 471.54 C 764.16 466.28 757.46 460.12 750.06 454.89 C 740.76 448.59 733.50 439.86 724.76 432.88 C 722.09 435.00 719.64 437.38 717.37 439.92 C 715.49 438.73 712.65 437.85 712.88 435.12 C 712.88 431.70 712.88 428.25 711.36 425.10 Z" />
<path fill="#644baf" opacity="1.00" d=" M 522.05 447.15 C 522.90 446.48 523.78 445.85 524.67 445.24 C 524.63 445.89 524.54 447.18 524.50 447.83 C 529.33 448.46 534.16 449.15 539.04 449.24 C 540.81 449.06 542.56 450.44 542.99 452.13 C 543.50 454.08 541.53 455.20 540.50 456.52 C 537.20 459.73 535.18 463.90 532.76 467.75 C 525.05 479.43 517.22 491.02 509.91 502.95 C 505.93 509.88 501.06 516.25 497.13 523.21 C 489.42 536.53 481.59 550.09 477.51 565.04 C 474.95 564.85 472.43 564.46 469.96 563.81 C 469.47 560.35 473.36 559.24 474.36 556.39 C 480.62 542.19 487.78 528.37 496.31 515.39 C 500.54 509.16 503.96 502.42 508.20 496.19 C 515.74 483.93 524.20 472.25 531.29 459.70 C 520.26 460.89 510.14 466.04 499.12 467.27 C 500.88 465.58 502.49 463.73 504.16 461.96 C 504.51 461.72 505.20 461.23 505.54 460.99 C 514.04 459.16 522.18 456.09 530.47 453.52 C 526.42 451.75 522.00 451.45 517.72 450.64 C 519.17 449.49 520.58 448.29 522.05 447.15 Z" />
<path fill="#644baf" opacity="1.00" d=" M 487.59 479.96 L 487.69 479.83 C 490.72 482.07 495.08 483.99 494.88 488.42 C 489.84 489.71 484.72 490.93 479.48 490.86 C 480.56 489.29 481.59 487.70 482.68 486.14 C 483.26 485.34 483.85 484.55 484.47 483.77 C 485.49 482.48 486.54 481.22 487.59 479.96 Z" />
<path fill="#644baf" opacity="1.00" d=" M 758.79 510.93 C 771.24 505.73 783.79 500.69 796.87 497.28 C 797.62 498.56 798.38 499.85 799.15 501.15 C 784.62 505.02 770.42 510.32 757.03 517.19 C 754.17 519.66 750.08 513.92 752.94 511.89 C 754.88 511.53 756.94 511.75 758.79 510.93 Z" />
<path fill="#644baf" opacity="1.00" d=" M 207.52 551.31 C 212.35 551.41 215.04 555.79 218.45 558.54 C 221.79 561.21 225.60 563.30 228.51 566.49 C 231.48 569.99 236.14 571.32 239.15 574.79 C 242.70 578.74 247.28 581.47 251.52 584.58 C 257.25 589.55 262.60 595.35 269.68 598.41 L 269.63 598.73 C 269.31 600.27 268.91 601.79 268.49 603.31 L 268.37 603.71 C 266.93 599.78 262.43 599.05 259.55 596.55 C 255.74 593.33 251.80 590.26 248.28 586.73 C 243.29 582.73 237.46 579.63 233.37 574.60 C 230.24 573.38 227.33 571.55 225.55 568.62 C 224.87 568.48 224.20 568.34 223.53 568.22 C 221.65 565.68 219.32 563.36 215.92 563.36 C 217.61 574.89 220.55 586.16 222.42 597.66 C 222.98 602.68 222.90 607.84 224.68 612.66 C 225.43 612.47 226.92 612.10 227.67 611.92 C 231.16 607.12 235.84 602.97 241.45 600.90 C 243.08 605.42 244.04 610.18 243.76 615.01 C 243.34 626.03 245.05 637.22 242.31 648.06 L 242.24 648.51 C 240.56 649.66 238.88 650.82 237.31 652.13 C 238.13 648.16 238.35 644.08 239.35 640.15 C 240.69 635.05 240.35 629.72 239.61 624.57 C 238.86 619.54 239.24 614.45 239.07 609.39 C 233.68 610.44 230.59 615.32 226.45 618.40 C 224.88 619.55 222.46 620.63 220.72 619.25 C 219.15 618.31 220.15 616.38 220.09 614.97 C 221.20 607.75 217.85 600.88 217.70 593.72 C 217.61 589.13 215.40 584.94 215.01 580.39 C 214.53 574.36 212.55 568.52 210.15 563.01 C 207.05 565.70 207.90 570.08 206.63 573.62 C 203.86 581.91 200.90 590.20 196.78 597.92 C 192.33 605.19 188.12 612.60 183.89 620.00 C 181.23 626.02 176.75 630.93 173.42 636.55 C 171.38 640.07 167.88 642.45 165.98 646.08 C 164.63 648.87 162.05 650.65 159.40 652.09 C 158.96 650.40 157.93 648.58 158.88 646.87 C 160.57 643.44 164.06 641.44 166.37 638.48 C 170.15 633.44 174.72 628.82 176.92 622.79 C 178.60 617.64 183.36 614.42 185.40 609.47 C 187.00 605.77 189.20 602.38 190.94 598.75 C 193.05 593.97 197.11 590.22 198.27 584.99 C 201.14 573.71 207.37 563.21 207.52 551.31 Z" />
<path fill="#644baf" opacity="1.00" d=" M 65.57 568.85 L 65.86 567.96 C 66.32 569.53 67.37 571.17 66.75 572.88 C 65.98 574.60 64.30 575.63 62.90 576.79 C 63.91 574.18 64.70 571.50 65.57 568.85 Z" />
<path fill="#644baf" opacity="1.00" d=" M 759.67 590.62 C 760.82 589.51 762.46 589.43 763.95 589.15 C 764.54 590.46 765.25 591.73 765.64 593.14 C 765.06 597.19 764.36 601.40 765.52 605.43 C 766.19 607.67 766.40 610.00 766.66 612.32 C 765.26 613.89 763.63 616.79 761.14 615.74 C 758.84 614.25 756.78 612.16 753.95 611.78 C 751.83 610.89 750.87 613.44 749.81 614.72 C 746.53 620.35 742.58 625.53 739.19 631.09 C 737.07 634.56 734.42 637.66 731.72 640.68 C 725.24 648.29 719.52 656.49 713.13 664.17 C 711.52 665.77 709.22 666.21 707.05 665.78 C 706.94 663.75 706.81 661.73 706.63 659.72 C 705.37 651.86 707.93 643.32 703.99 636.00 C 698.44 643.29 695.45 652.27 689.27 659.13 C 685.98 663.49 681.72 667.00 678.49 671.42 C 675.72 674.66 672.71 677.70 669.57 680.60 C 668.31 681.59 666.72 683.35 665.08 681.99 C 662.93 680.01 663.38 676.69 662.84 674.07 C 662.04 670.04 663.42 664.94 659.80 662.06 C 655.98 666.37 651.50 669.97 647.31 673.88 C 643.68 677.42 639.58 680.43 635.74 683.74 C 630.78 687.47 625.45 690.90 621.70 695.98 C 627.81 696.94 634.02 696.02 640.14 696.90 C 642.87 697.26 645.61 696.73 648.33 696.44 C 658.55 697.75 668.93 696.26 679.17 697.46 C 686.76 698.38 694.41 697.62 702.01 698.17 C 714.77 698.41 727.35 700.73 739.99 702.24 C 742.32 702.66 745.83 699.79 746.97 703.09 C 747.00 705.13 746.00 707.81 744.14 708.78 C 736.55 706.34 728.54 706.01 720.78 704.39 C 714.50 703.75 708.28 702.63 701.94 702.96 C 690.38 701.11 678.63 702.46 666.98 701.91 C 656.01 701.17 644.99 702.10 634.05 700.99 C 626.07 701.25 617.98 700.23 610.11 701.90 C 607.90 701.52 607.63 698.87 606.82 697.20 C 608.46 696.01 609.95 694.58 610.66 692.63 C 614.57 684.57 617.55 676.10 620.57 667.67 C 623.40 659.80 624.04 651.40 625.63 643.24 C 627.02 636.29 627.50 629.21 628.71 622.23 C 629.62 617.16 629.20 611.98 629.96 606.90 C 630.90 602.04 628.67 597.21 629.56 592.35 C 630.00 590.10 634.80 588.98 634.67 592.07 C 635.15 601.05 634.68 610.08 634.51 619.07 C 633.33 629.45 630.85 639.64 629.65 650.02 C 628.93 656.59 626.79 662.86 624.94 669.17 C 623.30 673.50 621.89 677.92 620.15 682.22 C 619.01 685.18 616.68 687.97 617.21 691.33 C 625.72 685.86 633.32 679.16 641.60 673.36 C 645.94 670.89 648.58 666.46 652.67 663.66 C 655.29 661.93 657.23 659.44 658.85 656.79 C 659.66 655.31 661.54 654.03 663.24 654.75 C 667.55 659.90 667.02 666.98 667.90 673.25 C 669.21 672.89 670.95 673.16 671.67 671.72 C 675.92 665.37 682.71 661.31 687.05 655.04 C 689.06 651.69 690.89 648.24 693.23 645.10 C 697.89 639.16 699.84 631.30 706.11 626.62 C 706.95 627.51 707.86 628.37 708.58 629.39 C 712.38 637.90 709.39 647.52 711.71 656.29 C 715.77 653.33 719.24 649.64 722.07 645.50 C 732.13 634.41 740.91 622.21 747.91 608.97 C 745.65 607.52 743.17 606.48 740.83 605.19 C 739.44 603.42 739.62 600.72 741.70 599.57 C 744.36 598.88 747.26 598.90 749.69 597.45 C 753.25 595.54 756.53 593.17 759.67 590.62 Z" />
<path fill="#644baf" opacity="1.00" d=" M 497.92 660.11 C 502.01 658.35 505.48 661.91 509.33 662.72 C 511.23 663.53 515.04 663.73 514.75 666.57 C 510.64 669.11 506.03 671.05 503.37 675.33 C 500.10 676.57 499.82 672.11 499.36 670.01 C 486.77 670.65 474.68 674.61 462.76 678.41 C 468.18 681.98 475.19 682.56 480.10 687.03 C 480.02 687.41 479.85 688.16 479.77 688.54 C 475.34 689.39 470.83 689.80 466.40 690.64 L 466.09 690.68 C 465.76 689.75 465.44 688.83 465.12 687.92 C 467.89 687.64 470.65 687.22 473.39 686.71 C 469.76 684.75 465.92 683.26 462.07 681.82 C 461.07 679.64 460.05 677.46 459.04 675.29 C 468.25 674.45 476.85 670.68 485.94 669.16 C 490.32 668.42 494.71 667.74 499.07 666.89 C 498.67 664.63 498.29 662.37 497.92 660.11 Z" />
<path fill="#644baf" opacity="1.00" d=" M 7.96 755.63 C 9.24 756.98 10.44 758.41 11.54 759.93 C 10.28 760.07 9.02 760.21 7.76 760.25 C 7.64 758.70 7.83 757.14 7.96 755.63 Z" />
<path fill="#644baf" opacity="1.00" d=" M 630.48 769.45 C 631.67 768.16 633.73 767.55 635.22 768.73 C 636.06 773.45 635.50 778.37 636.86 783.03 C 637.62 786.08 640.30 788.47 640.00 791.81 C 636.35 791.77 632.71 791.94 629.11 792.48 C 627.97 792.53 626.84 792.56 625.71 792.58 C 624.15 788.75 619.23 789.87 616.32 787.79 C 615.33 786.28 615.29 783.99 616.62 782.67 C 619.09 780.08 622.27 778.32 624.83 775.84 C 626.91 773.88 628.48 771.47 630.48 769.45 Z" />
<path fill="#644baf" opacity="1.00" d=" M 802.74 779.13 C 805.76 775.79 808.76 772.40 812.35 769.65 C 813.42 770.57 815.46 771.20 815.14 773.00 C 814.89 776.00 811.40 776.20 809.20 777.00 C 808.19 777.23 807.26 777.61 806.40 778.14 C 806.69 779.59 807.15 780.99 807.59 782.41 C 809.43 788.32 810.93 794.34 812.84 800.22 C 815.87 806.03 817.83 812.31 820.79 818.15 C 823.10 822.83 824.67 827.90 827.76 832.17 C 831.18 825.27 832.96 817.76 835.49 810.54 C 836.18 807.66 840.28 804.53 842.74 807.27 C 845.44 816.86 847.97 826.53 850.75 836.11 C 854.30 844.47 858.59 852.52 863.26 860.31 C 866.88 857.19 866.43 851.79 869.04 847.99 C 870.11 846.24 871.56 844.69 873.30 843.59 C 876.17 843.51 877.03 846.77 878.03 848.87 C 879.98 854.17 883.58 858.59 886.29 863.50 C 891.47 873.58 900.46 881.10 905.66 891.17 C 906.21 889.77 906.80 888.38 907.17 886.92 C 906.96 884.56 905.54 882.47 905.52 880.08 C 905.18 872.71 905.05 865.33 905.15 857.96 C 905.24 851.32 904.90 844.62 906.26 838.09 C 907.56 832.11 907.10 825.94 908.12 819.93 C 909.05 814.26 909.64 808.51 911.30 802.99 C 912.65 798.50 913.00 793.75 914.86 789.42 C 916.53 789.77 918.20 790.13 919.90 790.49 C 920.27 797.18 914.87 802.39 915.17 809.00 C 914.92 815.47 912.39 821.59 912.15 828.07 C 910.18 838.27 910.02 848.68 908.86 858.98 C 908.02 870.09 910.48 881.01 911.89 891.97 C 912.31 895.64 914.30 899.33 912.86 903.04 C 905.72 901.10 898.70 898.74 891.62 896.61 C 886.19 895.33 880.53 894.82 875.37 892.55 C 866.75 888.92 857.34 888.22 848.46 885.55 C 842.63 885.01 837.63 881.44 831.79 881.05 C 828.37 880.72 825.04 879.92 821.72 879.08 C 809.81 877.35 797.86 874.60 785.78 875.15 C 784.78 872.73 784.06 870.21 783.43 867.68 C 786.06 868.00 788.47 869.17 791.03 869.78 C 799.77 870.81 808.39 872.65 817.18 873.33 C 827.16 875.24 836.85 878.43 846.81 880.45 C 856.28 882.23 865.33 885.67 874.79 887.53 C 879.99 888.97 885.40 889.70 890.44 891.75 C 893.47 892.92 896.76 893.50 900.02 893.14 C 900.32 891.73 899.28 890.59 898.70 889.45 C 896.41 886.05 894.42 882.42 891.66 879.36 C 888.61 876.21 887.43 871.82 884.49 868.59 C 880.18 863.43 877.33 857.34 873.78 851.70 C 869.82 857.24 868.67 864.19 864.86 869.83 C 862.69 868.49 860.25 867.17 859.41 864.58 C 856.01 855.96 850.18 848.53 847.26 839.70 C 845.19 833.54 843.35 827.29 842.17 820.89 C 841.82 818.86 840.61 817.18 839.40 815.60 C 835.90 824.05 833.92 833.05 830.54 841.54 C 828.86 843.80 826.15 841.68 825.13 839.91 C 821.18 832.19 818.88 823.76 815.07 815.98 C 813.19 810.93 809.71 806.52 808.91 801.10 C 808.19 796.96 806.56 793.08 805.03 789.20 C 804.51 786.06 803.46 783.01 801.60 780.41 C 801.88 780.09 802.45 779.45 802.74 779.13 Z" />
<path fill="#644baf" opacity="1.00" d=" M 341.79 790.76 C 344.44 788.81 346.86 791.57 347.92 793.86 C 350.37 799.31 355.80 802.59 357.96 808.23 C 356.86 809.32 355.86 810.54 354.56 811.40 C 352.11 811.93 349.57 811.57 347.10 811.92 C 345.62 813.15 344.76 815.02 344.85 816.96 C 344.77 824.96 344.88 832.96 344.85 840.97 C 344.79 849.03 342.50 856.92 342.77 865.01 C 343.01 869.76 341.77 874.40 341.59 879.13 C 340.18 879.67 338.54 881.38 337.09 880.04 C 334.61 877.70 333.46 874.30 331.11 871.84 C 327.14 867.61 324.68 862.07 319.90 858.62 C 319.69 863.98 319.84 869.36 320.39 874.70 C 321.19 882.66 318.84 890.47 318.50 898.38 L 318.06 897.73 C 316.89 895.97 315.75 894.21 314.59 892.45 C 314.43 892.20 314.09 891.68 313.93 891.42 C 316.55 885.93 316.02 879.82 315.37 873.98 C 315.26 865.71 314.60 857.40 315.36 849.15 C 316.39 849.19 317.43 849.29 318.46 849.45 C 322.07 851.85 324.67 855.42 327.20 858.88 C 328.08 860.03 328.94 861.40 330.52 861.66 C 332.37 864.73 333.80 868.09 336.14 870.85 C 336.48 870.77 337.16 870.62 337.51 870.55 C 338.79 865.09 338.70 859.40 339.87 853.91 C 342.42 840.69 340.64 827.20 341.47 813.86 C 338.17 813.25 334.78 813.18 331.51 812.47 C 330.98 811.76 330.49 811.04 330.02 810.31 C 331.85 808.35 333.77 806.48 335.43 804.38 C 338.48 800.30 338.79 794.84 341.79 790.76 Z" />
<path fill="#644baf" opacity="1.00" d=" M 16.08 816.57 C 21.22 816.79 26.37 816.45 31.49 815.94 C 31.49 816.70 31.48 818.21 31.48 818.97 C 27.34 818.33 23.28 819.45 19.17 819.63 C 17.45 819.67 16.81 817.78 16.08 816.57 Z" />
<path fill="#644baf" opacity="1.00" d=" M 382.55 894.45 C 385.49 893.74 385.88 888.78 389.29 889.52 C 391.97 890.02 391.63 893.13 391.50 895.20 C 387.93 896.16 384.31 897.18 381.22 899.29 C 378.32 901.28 374.86 902.13 371.74 903.68 C 361.87 909.38 351.25 913.99 342.26 921.07 C 342.14 920.98 341.90 920.81 341.78 920.73 C 340.62 919.88 339.45 919.07 338.28 918.26 L 337.86 917.96 C 344.80 913.94 351.58 909.63 358.58 905.70 C 361.42 904.25 364.44 902.94 366.53 900.43 C 366.86 900.58 367.53 900.88 367.86 901.03 C 372.83 899.01 377.46 896.21 382.55 894.45 Z" />
<path fill="#644baf" opacity="1.00" d=" M 267.85 925.96 C 269.84 927.45 271.92 928.82 273.95 930.26 C 275.94 937.13 276.06 944.39 278.38 951.16 C 279.73 946.83 281.44 942.64 283.29 938.50 C 284.46 939.40 285.64 940.34 286.81 941.27 C 285.93 944.52 285.21 947.82 284.64 951.16 C 287.17 949.67 289.71 948.22 292.31 946.86 C 293.50 948.04 294.69 949.24 295.85 950.47 C 290.84 953.40 285.21 955.60 281.25 960.00 L 273.23 960.00 C 274.72 956.48 273.62 952.66 273.15 949.06 C 271.67 941.30 270.07 933.55 267.85 925.96 Z" />
</g>
<g id="#fdca9fff">
<path fill="#fdca9f" opacity="1.00" d=" M 0.17 0.00 L 7.66 0.00 C 5.08 3.21 2.51 6.43 0.00 9.69 L 0.00 0.14 C 0.04 0.10 0.13 0.03 0.17 0.00 Z" />
<path fill="#fdca9f" opacity="1.00" d=" M 478.67 471.64 C 485.32 470.78 491.84 469.21 498.42 467.93 C 494.67 471.74 491.15 475.76 487.69 479.83 L 487.59 479.96 C 484.78 477.00 481.23 474.84 478.67 471.64 Z" />
</g>
<g id="#38207eff">
<path fill="#38207e" opacity="1.00" d=" M 7.66 0.00 L 273.32 0.00 C 274.25 0.71 275.20 1.37 276.18 2.01 C 278.01 2.75 279.31 0.76 280.73 0.00 L 304.31 0.00 C 319.45 18.86 331.35 40.43 338.48 63.58 C 348.39 94.61 349.86 128.16 343.50 160.07 C 337.08 157.78 330.36 156.24 324.29 153.05 C 323.07 154.40 321.85 155.75 320.64 157.11 C 321.15 157.99 321.67 158.86 322.20 159.73 C 324.19 159.50 326.26 159.06 328.20 159.83 C 332.95 161.43 337.79 162.73 342.63 164.06 C 338.03 184.04 330.30 203.32 319.59 220.81 C 319.13 221.46 318.67 222.12 318.21 222.77 C 312.85 227.84 308.36 233.71 303.20 238.97 C 300.21 237.29 297.47 235.23 294.95 232.92 C 293.46 234.02 291.06 234.72 291.01 236.93 C 290.52 240.92 291.26 245.02 290.12 248.94 C 289.21 252.02 289.35 255.23 290.05 258.33 C 263.01 284.60 228.19 302.74 191.10 309.57 C 185.67 310.71 180.10 310.99 174.71 312.31 C 172.33 312.07 169.94 311.96 167.56 311.92 C 170.43 309.33 173.44 306.72 175.33 303.28 C 176.29 301.94 175.18 300.42 174.93 299.04 C 164.61 300.04 154.28 298.48 144.12 296.86 C 131.89 294.26 119.51 292.27 107.54 288.62 C 113.70 286.45 120.22 285.59 126.37 283.41 C 132.05 281.33 138.08 280.31 143.55 277.65 C 150.95 274.59 158.09 270.97 165.14 267.19 C 177.01 261.62 188.59 255.43 199.87 248.74 C 206.92 244.23 213.65 239.20 220.97 235.12 C 220.22 233.54 220.31 230.93 218.07 230.76 C 216.05 230.12 214.06 231.21 212.65 232.60 C 204.81 239.80 195.63 245.36 186.20 250.22 C 179.87 253.54 173.81 257.36 167.28 260.29 C 158.51 264.54 150.16 269.68 140.99 273.06 C 129.27 277.51 117.26 281.34 105.01 284.00 C 101.41 285.06 96.02 283.08 94.13 287.37 C 92.82 290.44 96.18 292.23 97.94 294.10 C 102.04 297.65 103.93 302.98 107.81 306.72 C 75.59 298.43 45.55 281.59 21.86 258.21 C 19.85 256.24 17.95 254.17 15.84 252.32 C 13.97 245.37 14.61 237.93 15.40 230.85 C 13.10 229.73 10.71 228.85 8.27 228.12 C 7.83 229.55 6.57 231.05 7.55 232.55 C 9.36 236.03 9.48 240.03 8.46 243.78 C 5.68 240.03 2.53 236.55 0.00 232.62 L 0.00 9.69 C 2.51 6.43 5.08 3.21 7.66 0.00 M 145.23 8.40 C 135.03 12.39 124.73 16.99 116.58 24.48 C 108.73 22.80 100.55 22.20 93.16 18.80 C 90.56 17.10 87.51 19.92 87.99 22.70 C 95.87 24.37 103.60 26.88 111.62 27.78 C 108.89 31.58 105.06 34.38 102.28 38.14 C 99.75 41.51 96.61 44.34 93.99 47.63 L 94.04 47.89 C 93.99 48.01 93.91 48.23 93.86 48.34 C 73.15 65.36 61.11 91.59 59.94 118.22 C 59.97 118.70 60.01 119.66 60.03 120.14 C 59.76 142.73 67.65 165.35 82.18 182.69 C 97.08 200.66 118.78 212.99 141.96 216.13 C 165.86 219.80 191.08 213.89 210.85 199.95 C 222.01 192.06 231.78 181.92 238.36 169.89 C 240.52 169.05 242.06 167.29 243.60 165.64 C 259.11 150.06 269.08 128.93 270.77 106.98 C 270.60 99.31 271.50 91.54 269.91 83.98 C 267.12 63.21 256.40 44.03 241.52 29.47 C 227.50 16.48 209.71 7.48 190.77 4.56 C 175.59 1.62 159.84 3.74 145.23 8.40 Z" />
<path fill="#38207e" opacity="1.00" d=" M 924.51 120.00 C 924.57 80.81 937.21 41.80 960.00 9.93 L 960.00 232.64 C 936.60 200.14 924.04 160.03 924.51 120.00 Z" />
<path fill="#38207e" opacity="1.00" d=" M 107.37 295.93 C 113.55 295.49 119.54 297.07 125.45 298.64 C 139.00 301.37 152.68 303.42 166.42 304.95 C 163.88 307.57 161.16 310.02 158.64 312.67 L 158.19 312.67 C 144.32 313.02 130.44 311.54 116.85 308.80 L 116.59 308.74 C 113.16 304.73 110.17 300.38 107.37 295.93 Z" />
<path fill="#38207e" opacity="1.00" d=" M 524.67 445.24 C 558.86 421.16 600.91 408.26 642.78 410.11 C 644.48 410.14 646.19 410.19 647.90 410.28 C 669.72 411.49 691.16 416.86 711.36 425.10 C 712.88 428.25 712.88 431.70 712.88 435.12 C 712.65 437.85 715.49 438.73 717.37 439.92 C 719.64 437.38 722.09 435.00 724.76 432.88 C 733.50 439.86 740.76 448.59 750.06 454.89 C 757.46 460.12 764.16 466.28 771.53 471.54 C 773.29 472.90 775.57 472.37 777.60 472.21 C 784.54 480.16 791.08 488.45 796.87 497.28 C 783.79 500.69 771.24 505.73 758.79 510.93 C 756.94 511.75 754.88 511.53 752.94 511.89 C 750.08 513.92 754.17 519.66 757.03 517.19 C 770.42 510.32 784.62 505.02 799.15 501.15 L 799.34 501.45 C 818.74 532.92 828.43 570.17 827.25 607.10 C 826.41 639.23 817.21 671.11 800.84 698.77 C 774.08 744.87 726.95 778.39 674.72 788.87 C 659.74 791.97 644.39 793.19 629.11 792.48 C 632.71 791.94 636.35 791.77 640.00 791.81 C 640.30 788.47 637.62 786.08 636.86 783.03 C 635.50 778.37 636.06 773.45 635.22 768.73 C 633.73 767.55 631.67 768.16 630.48 769.45 C 628.48 771.47 626.91 773.88 624.83 775.84 C 622.27 778.32 619.09 780.08 616.62 782.67 C 615.29 783.99 615.33 786.28 616.32 787.79 C 619.23 789.87 624.15 788.75 625.71 792.58 C 600.82 791.24 576.32 784.96 553.69 774.54 C 553.61 774.49 553.43 774.41 553.35 774.37 C 539.41 767.25 525.88 759.20 513.89 749.08 C 494.40 732.98 478.18 713.00 466.40 690.64 C 470.83 689.80 475.34 689.39 479.77 688.54 C 479.85 688.16 480.02 687.41 480.10 687.03 C 475.19 682.56 468.18 681.98 462.76 678.41 C 474.68 674.61 486.77 670.65 499.36 670.01 C 499.82 672.11 500.10 676.57 503.37 675.33 C 506.03 671.05 510.64 669.11 514.75 666.57 C 515.04 663.73 511.23 663.53 509.33 662.72 C 505.48 661.91 502.01 658.35 497.92 660.11 C 498.29 662.37 498.67 664.63 499.07 666.89 C 494.71 667.74 490.32 668.42 485.94 669.16 C 476.85 670.68 468.25 674.45 459.04 675.29 C 449.19 650.78 443.89 624.38 444.52 597.93 C 445.11 559.94 457.23 522.05 479.32 491.09 L 479.48 490.86 C 484.72 490.93 489.84 489.71 494.88 488.42 C 495.08 483.99 490.72 482.07 487.69 479.83 C 491.15 475.76 494.67 471.74 498.42 467.93 C 498.59 467.77 498.95 467.44 499.12 467.27 C 510.14 466.04 520.26 460.89 531.29 459.70 C 524.20 472.25 515.74 483.93 508.20 496.19 C 503.96 502.42 500.54 509.16 496.31 515.39 C 487.78 528.37 480.62 542.19 474.36 556.39 C 473.36 559.24 469.47 560.35 469.96 563.81 C 472.43 564.46 474.95 564.85 477.51 565.04 C 481.59 550.09 489.42 536.53 497.13 523.21 C 501.06 516.25 505.93 509.88 509.91 502.95 C 517.22 491.02 525.05 479.43 532.76 467.75 C 535.18 463.90 537.20 459.73 540.50 456.52 C 541.53 455.20 543.50 454.08 542.99 452.13 C 542.56 450.44 540.81 449.06 539.04 449.24 C 534.16 449.15 529.33 448.46 524.50 447.83 C 524.54 447.18 524.63 445.89 524.67 445.24 M 578.83 522.87 L 580.42 522.98 C 580.03 523.52 579.23 524.59 578.84 525.13 C 576.52 526.66 574.01 527.95 571.97 529.88 C 558.56 541.83 548.60 557.64 543.77 574.95 C 535.76 602.37 540.91 633.27 557.50 656.56 C 569.31 673.47 586.81 686.26 606.40 692.62 C 607.70 692.81 609.78 694.24 610.66 692.63 C 609.95 694.58 608.46 696.01 606.82 697.20 C 607.63 698.87 607.90 701.52 610.11 701.90 C 617.98 700.23 626.07 701.25 634.05 700.99 C 644.99 702.10 656.01 701.17 666.98 701.91 C 678.63 702.46 690.38 701.11 701.94 702.96 C 708.28 702.63 714.50 703.75 720.78 704.39 C 728.54 706.01 736.55 706.34 744.14 708.78 C 746.00 707.81 747.00 705.13 746.97 703.09 C 745.83 699.79 742.32 702.66 739.99 702.24 C 727.35 700.73 714.77 698.41 702.01 698.17 C 694.41 697.62 686.76 698.38 679.17 697.46 C 668.93 696.26 658.55 697.75 648.33 696.44 C 670.75 693.59 691.81 682.42 707.05 665.78 C 709.22 666.21 711.52 665.77 713.13 664.17 C 719.52 656.49 725.24 648.29 731.72 640.68 C 734.42 637.66 737.07 634.56 739.19 631.09 C 742.58 625.53 746.53 620.35 749.81 614.72 C 750.87 613.44 751.83 610.89 753.95 611.78 C 756.78 612.16 758.84 614.25 761.14 615.74 C 763.63 616.79 765.26 613.89 766.66 612.32 C 766.40 610.00 766.19 607.67 765.52 605.43 C 764.36 601.40 765.06 597.19 765.64 593.14 C 765.25 591.73 764.54 590.46 763.95 589.15 C 762.46 589.43 760.82 589.51 759.67 590.62 C 756.53 593.17 753.25 595.54 749.69 597.45 C 750.93 588.34 750.98 579.14 750.76 569.95 C 748.91 551.47 742.02 533.30 730.02 519.01 C 713.39 497.66 686.97 484.74 660.07 483.30 C 628.73 482.02 596.83 497.05 578.83 522.87 Z" />
<path fill="#38207e" opacity="1.00" d=" M 747.58 448.31 C 745.41 446.21 741.21 444.85 741.39 441.32 C 749.08 446.62 756.62 452.15 763.54 458.44 C 757.16 457.12 752.94 451.60 747.58 448.31 Z" />
<path fill="#38207e" opacity="1.00" d=" M 517.46 450.83 L 517.72 450.64 C 522.00 451.45 526.42 451.75 530.47 453.52 C 522.18 456.09 514.04 459.16 505.54 460.99 C 509.37 457.43 513.21 453.88 517.46 450.83 Z" />
<path fill="#38207e" opacity="1.00" d=" M 462.07 681.82 C 465.92 683.26 469.76 684.75 473.39 686.71 C 470.65 687.22 467.89 687.64 465.12 687.92 C 464.09 685.89 463.07 683.86 462.07 681.82 Z" />
<path fill="#38207e" opacity="1.00" d=" M 60.95 915.00 C 90.85 897.80 125.56 889.07 160.05 890.05 C 198.45 890.56 236.61 903.28 267.70 925.82 L 267.85 925.96 C 270.07 933.55 271.67 941.30 273.15 949.06 C 273.62 952.66 274.72 956.48 273.23 960.00 L 7.52 960.00 C 22.54 942.07 40.49 926.44 60.95 915.00 Z" />
<path fill="#38207e" opacity="1.00" d=" M 273.95 930.26 C 277.06 932.96 280.30 935.51 283.36 938.27 L 283.29 938.50 C 281.44 942.64 279.73 946.83 278.38 951.16 C 276.06 944.39 275.94 937.13 273.95 930.26 Z" />
<path fill="#38207e" opacity="1.00" d=" M 286.81 941.27 C 288.56 943.14 290.37 944.96 292.20 946.75 L 292.31 946.86 C 289.71 948.22 287.17 949.67 284.64 951.16 C 285.21 947.82 285.93 944.52 286.81 941.27 Z" />
<path fill="#38207e" opacity="1.00" d=" M 281.25 960.00 C 285.21 955.60 290.84 953.40 295.85 950.47 L 296.25 950.90 C 299.04 953.85 301.56 957.03 304.34 960.00 L 281.25 960.00 Z" />
</g>
<g id="#00205bff">
<path fill="#00205b" opacity="1.00" d=" M 145.23 8.40 C 159.84 3.74 175.59 1.62 190.77 4.56 C 209.71 7.48 227.50 16.48 241.52 29.47 C 256.40 44.03 267.12 63.21 269.91 83.98 C 271.50 91.54 270.60 99.31 270.77 106.98 C 269.08 128.93 259.11 150.06 243.60 165.64 C 242.06 167.29 240.52 169.05 238.36 169.89 L 239.03 168.89 C 247.35 156.23 250.80 140.90 252.01 125.96 C 253.20 98.05 241.81 69.84 221.30 50.83 C 210.46 41.13 197.68 33.50 183.67 29.43 C 183.74 27.66 183.81 25.88 183.89 24.10 C 178.84 23.20 174.10 26.57 168.97 26.07 C 158.70 25.43 148.42 26.09 138.17 26.68 C 130.97 25.98 123.73 25.53 116.58 24.48 C 124.73 16.99 135.03 12.39 145.23 8.40 Z" />
<path fill="#00205b" opacity="1.00" d=" M 111.62 27.78 C 116.66 28.31 121.70 28.80 126.72 29.46 C 115.15 33.94 103.84 39.48 94.23 47.43 L 93.99 47.63 C 96.61 44.34 99.75 41.51 102.28 38.14 C 105.06 34.38 108.89 31.58 111.62 27.78 Z" />
<path fill="#00205b" opacity="1.00" d=" M 578.83 522.87 C 596.83 497.05 628.73 482.02 660.07 483.30 C 686.97 484.74 713.39 497.66 730.02 519.01 C 742.02 533.30 748.91 551.47 750.76 569.95 C 750.98 579.14 750.93 588.34 749.69 597.45 C 747.26 598.90 744.36 598.88 741.70 599.57 C 739.62 600.72 739.44 603.42 740.83 605.19 C 743.17 606.48 745.65 607.52 747.91 608.97 C 740.91 622.21 732.13 634.41 722.07 645.50 C 722.93 642.07 724.32 638.83 725.68 635.60 C 733.05 616.56 734.03 595.18 728.46 575.54 C 724.16 559.81 715.56 545.43 704.32 533.68 C 692.66 522.37 678.42 513.52 662.72 509.15 C 635.07 501.08 603.84 506.08 580.42 522.98 L 578.83 522.87 Z" />
</g>
<g id="#560d80ff">
<path fill="#560d80" opacity="1.00" d=" M 621.21 9.48 C 639.10 2.51 659.14 1.16 677.82 5.56 C 706.04 11.93 730.78 32.00 742.70 58.38 C 749.75 73.69 752.90 90.94 750.95 107.72 C 748.10 101.45 748.33 94.38 745.54 88.08 C 743.08 78.39 740.46 68.75 737.84 59.10 C 736.31 60.12 734.57 60.93 733.40 62.37 C 732.00 65.67 735.89 67.90 736.14 71.04 C 737.68 79.63 741.55 87.58 743.12 96.17 C 743.80 100.22 745.02 104.13 746.27 108.03 C 747.71 112.44 746.59 117.38 748.75 121.58 L 748.66 121.99 C 745.21 136.46 737.99 149.91 728.44 161.27 C 728.41 161.31 728.35 161.38 728.32 161.41 C 724.69 165.33 720.93 169.16 716.79 172.54 C 704.08 182.68 688.99 189.97 672.91 192.73 C 651.22 196.66 628.18 192.90 608.99 182.00 C 598.70 176.37 589.73 168.56 582.08 159.70 C 585.77 157.65 589.51 155.62 592.38 152.44 C 596.45 149.53 600.11 146.16 603.37 142.37 C 603.80 144.16 604.81 146.04 603.95 147.87 C 601.36 154.25 598.74 160.86 598.31 167.79 C 601.34 166.96 604.18 165.54 606.53 163.43 C 610.56 159.90 615.72 158.11 620.01 154.96 C 623.65 152.22 628.16 150.68 631.27 147.25 C 634.15 144.06 638.03 142.04 641.10 139.07 C 642.68 137.66 644.44 135.96 646.74 136.11 C 649.16 137.79 651.23 139.91 653.48 141.81 C 655.27 140.17 656.99 138.31 657.23 135.77 C 657.92 131.13 660.17 126.96 661.51 122.53 C 657.69 121.09 653.99 123.19 650.27 123.83 C 646.89 123.94 643.46 123.61 640.15 124.52 C 639.88 127.55 642.48 129.40 643.47 131.96 C 642.93 135.12 639.64 136.68 637.40 138.59 C 633.07 142.18 628.42 145.35 624.05 148.88 C 620.50 151.63 616.10 152.93 612.50 155.58 C 610.00 157.41 607.42 159.15 604.54 160.31 C 605.52 152.55 608.76 145.22 609.50 137.41 C 609.10 135.07 606.50 136.37 605.39 137.39 C 600.96 141.00 596.46 144.54 592.46 148.65 C 588.91 152.20 584.37 154.44 580.03 156.84 C 572.99 147.80 567.71 137.41 564.40 126.45 C 562.86 121.48 562.05 116.33 560.77 111.30 C 561.45 108.97 562.42 106.74 563.61 104.62 C 566.00 100.35 567.36 95.60 569.84 91.36 C 568.66 90.29 567.01 89.45 565.50 90.40 C 562.73 94.90 562.86 100.55 560.00 104.99 C 560.63 99.01 560.08 92.96 561.04 87.01 C 562.67 72.20 568.28 58.09 576.21 45.55 C 586.99 29.26 602.98 16.48 621.21 9.48 Z" />
<path fill="#560d80" opacity="1.00" d=" M 165.02 29.73 C 168.72 30.13 172.63 27.77 176.07 29.73 C 172.20 32.26 168.43 34.94 164.93 37.96 C 157.19 43.31 149.17 48.24 141.01 52.92 C 138.70 54.02 136.32 55.09 134.56 57.02 C 138.57 61.09 144.81 60.84 149.03 64.53 C 139.53 73.17 126.72 76.33 114.62 79.52 C 111.14 80.50 107.42 80.65 104.07 82.03 C 103.66 82.91 103.30 83.81 102.96 84.71 C 110.05 89.36 119.49 89.01 125.84 94.96 C 121.23 97.65 115.72 98.25 111.25 101.23 C 105.31 104.05 99.31 107.53 92.57 107.71 C 91.75 108.32 90.93 108.92 90.11 109.53 C 87.04 109.82 84.08 110.70 81.10 111.44 C 78.64 91.96 81.94 71.64 91.25 54.29 C 92.25 52.36 93.09 50.36 93.86 48.34 C 93.91 48.23 93.99 48.01 94.04 47.89 C 94.09 47.78 94.18 47.55 94.23 47.43 C 103.84 39.48 115.15 33.94 126.72 29.46 C 133.69 31.13 140.89 29.59 147.90 30.98 C 153.67 32.25 159.23 29.38 165.02 29.73 Z" />
<path fill="#560d80" opacity="1.00" d=" M 181.33 30.33 C 181.92 30.10 183.09 29.66 183.67 29.43 C 197.68 33.50 210.46 41.13 221.30 50.83 C 241.81 69.84 253.20 98.05 252.01 125.96 C 250.80 140.90 247.35 156.23 239.03 168.89 C 237.02 171.29 235.03 173.76 232.57 175.70 C 216.86 187.28 197.55 193.86 178.03 194.21 C 157.10 194.78 136.10 188.15 119.24 175.76 C 99.23 161.29 85.71 138.70 81.47 114.46 C 89.07 111.36 97.58 110.88 104.74 106.69 C 110.55 103.96 116.95 102.70 122.49 99.34 C 126.03 97.16 132.63 97.82 133.08 92.51 C 125.53 88.88 116.90 87.93 109.67 83.54 C 116.02 81.56 122.51 80.05 129.02 78.71 C 133.17 77.86 136.39 74.85 140.24 73.26 C 145.82 70.87 151.73 68.90 156.30 64.72 C 151.58 61.39 145.73 60.21 140.96 56.91 C 146.94 51.60 154.76 49.04 160.81 43.85 C 165.64 39.77 171.06 36.52 176.58 33.47 C 177.11 34.90 177.56 36.42 176.96 37.92 C 174.95 46.04 173.29 54.29 170.25 62.11 C 168.79 66.17 168.54 70.52 167.63 74.72 C 166.11 81.80 164.24 88.80 162.07 95.70 C 161.58 101.20 159.52 106.44 159.42 111.99 C 159.31 117.87 157.50 123.48 155.94 129.09 C 157.77 130.27 160.51 129.19 160.62 126.90 C 161.05 118.67 161.21 110.26 163.99 102.40 C 165.72 92.66 167.52 82.91 170.48 73.46 C 172.79 66.76 174.54 59.85 175.72 52.86 C 177.21 45.28 182.07 38.26 181.33 30.33 Z" />
<path fill="#560d80" opacity="1.00" d=" M 336.27 285.53 C 352.24 260.95 380.31 245.07 409.47 243.15 C 409.01 249.67 405.64 255.49 405.02 261.97 C 404.59 265.49 403.71 269.07 404.35 272.62 C 405.07 274.57 407.30 273.31 408.24 272.23 C 409.76 270.92 409.42 268.80 409.55 267.03 C 409.71 258.85 412.42 251.05 414.12 243.14 C 438.51 242.26 462.82 251.81 480.79 268.18 C 493.19 279.73 502.55 294.57 507.41 310.82 C 514.07 332.52 512.66 356.61 503.42 377.35 C 497.57 390.93 488.30 402.84 477.10 412.44 C 471.38 416.71 465.43 420.64 459.18 424.11 C 456.82 424.89 454.74 423.20 452.73 422.25 C 448.18 419.74 443.64 417.21 438.99 414.90 C 435.55 413.19 433.10 410.08 429.82 408.16 C 428.23 407.72 426.95 409.15 426.23 410.36 C 426.16 412.69 428.91 413.44 430.49 414.54 C 438.23 418.38 445.44 423.18 453.28 426.83 C 437.13 433.34 419.33 435.83 402.06 433.26 C 384.05 430.68 366.83 422.82 353.13 410.85 C 334.59 394.90 322.72 371.50 320.70 347.14 C 318.62 325.59 324.45 303.60 336.27 285.53 Z" />
<path fill="#560d80" opacity="1.00" d=" M 876.41 244.91 C 886.16 243.03 896.15 242.65 906.04 243.52 C 925.96 245.58 945.12 254.19 960.00 267.58 L 960.00 314.45 C 955.88 311.03 951.59 307.70 946.56 305.73 C 939.53 303.02 933.97 297.51 926.68 295.36 C 920.87 293.65 915.67 290.15 909.61 289.31 C 907.18 288.98 905.58 286.96 903.85 285.44 C 907.06 284.63 910.22 283.60 913.27 282.29 C 916.32 280.82 919.79 281.52 923.02 280.81 C 926.88 280.00 930.47 278.30 934.23 277.11 C 934.39 276.16 934.55 275.22 934.73 274.28 C 930.59 271.05 925.83 268.89 920.97 267.03 C 912.48 262.49 903.71 258.50 895.29 253.83 C 888.92 251.03 882.11 249.05 876.41 244.91 Z" />
<path fill="#560d80" opacity="1.00" d=" M 860.41 256.06 C 861.99 252.22 864.22 247.81 868.94 247.47 C 876.08 248.53 881.92 253.34 888.90 254.96 C 893.10 255.97 896.64 258.56 900.51 260.36 C 909.01 264.19 916.94 269.15 925.11 273.65 C 922.52 276.91 917.91 276.29 914.35 277.69 C 909.65 279.52 904.37 279.34 899.95 281.92 C 897.32 283.42 893.12 283.67 892.83 287.41 C 897.86 289.31 903.23 290.37 907.96 293.04 C 912.34 295.43 917.29 296.30 922.03 297.70 C 928.87 299.39 934.62 303.64 940.48 307.33 C 944.52 310.69 949.11 313.37 954.27 314.59 C 951.16 316.93 947.54 318.53 943.78 319.46 C 940.23 320.25 936.29 320.94 934.01 324.10 C 933.08 325.21 931.07 327.57 933.43 328.26 C 938.36 329.09 942.06 332.57 946.42 334.71 C 951.36 337.36 954.96 341.89 960.00 344.42 L 960.00 362.46 C 954.42 361.19 948.67 360.97 942.97 361.17 C 931.96 361.42 920.88 360.52 909.93 362.01 C 900.19 362.52 890.36 362.77 880.79 364.81 C 876.83 365.62 871.75 364.54 868.77 367.75 C 867.28 371.61 872.61 371.24 874.98 370.72 C 880.72 369.14 886.67 368.62 892.48 367.35 C 896.20 366.58 900.02 367.05 903.77 366.52 C 914.84 364.76 926.12 366.87 937.20 365.19 C 942.21 364.18 947.09 366.69 952.10 366.00 C 954.79 365.53 957.47 366.17 960.00 367.08 L 960.00 410.28 C 958.86 409.95 958.17 410.40 957.91 411.64 C 957.60 411.95 956.98 412.56 956.67 412.86 C 943.55 422.79 928.40 430.33 912.04 432.87 C 883.90 437.89 853.87 429.29 832.48 410.38 C 829.18 407.59 829.46 402.96 827.56 399.37 C 826.24 397.01 826.12 394.31 826.14 391.68 C 826.20 389.50 823.72 388.78 822.23 387.81 C 821.47 392.70 823.51 397.23 824.34 401.95 C 800.37 375.86 793.78 335.80 807.12 303.12 C 809.48 296.88 812.98 291.19 816.21 285.38 C 825.87 270.89 839.60 259.29 855.38 251.94 C 856.70 253.69 858.54 254.93 860.41 256.06 Z" />
<path fill="#560d80" opacity="1.00" d=" M 0.00 267.65 C 4.94 271.71 8.96 276.72 12.96 281.68 C 13.08 281.86 13.33 282.22 13.46 282.41 C 15.06 289.55 17.05 296.69 17.32 304.05 C 17.53 306.45 19.02 308.54 19.11 310.97 C 19.29 314.46 19.28 318.05 20.68 321.33 C 23.85 329.39 21.91 338.51 25.50 346.43 C 25.42 350.99 26.46 355.44 26.79 359.97 C 20.48 358.28 15.78 353.19 11.14 348.86 C 8.03 345.43 3.88 343.33 0.00 340.95 L 0.00 267.65 Z" />
<path fill="#560d80" opacity="1.00" d=" M 21.20 295.34 C 30.01 312.20 32.89 331.69 30.93 350.51 C 30.33 349.30 29.46 348.20 29.20 346.86 C 28.01 336.12 24.67 325.72 24.00 314.89 C 22.52 308.46 20.86 302.02 21.20 295.34 Z" />
<path fill="#560d80" opacity="1.00" d=" M 940.50 326.24 C 946.44 323.21 953.09 319.24 960.00 320.66 L 960.00 338.63 C 957.76 337.73 955.47 336.89 953.58 335.37 C 949.40 332.05 944.48 329.81 940.50 326.24 Z" />
<path fill="#560d80" opacity="1.00" d=" M 0.00 345.13 C 7.43 352.17 15.52 358.45 23.55 364.78 C 23.59 365.31 23.67 366.37 23.72 366.90 C 15.61 366.86 8.24 362.05 0.00 363.31 L 0.00 345.13 Z" />
<path fill="#560d80" opacity="1.00" d=" M 0.00 366.87 C 8.48 369.04 17.64 367.95 25.71 371.68 C 20.40 386.26 11.50 399.43 0.00 409.84 L 0.00 366.87 Z" />
<path fill="#560d80" opacity="1.00" d=" M 103.71 515.47 C 121.64 495.46 148.01 482.93 175.01 483.14 C 195.30 482.52 215.50 489.31 231.96 501.05 C 248.82 513.03 261.29 530.83 267.38 550.55 C 272.24 565.99 272.45 582.56 269.68 598.41 C 262.60 595.35 257.25 589.55 251.52 584.58 C 247.28 581.47 242.70 578.74 239.15 574.79 C 236.14 571.32 231.48 569.99 228.51 566.49 C 225.60 563.30 221.79 561.21 218.45 558.54 C 215.04 555.79 212.35 551.41 207.52 551.31 C 207.37 563.21 201.14 573.71 198.27 584.99 C 197.11 590.22 193.05 593.97 190.94 598.75 C 189.20 602.38 187.00 605.77 185.40 609.47 C 183.36 614.42 178.60 617.64 176.92 622.79 C 174.72 628.82 170.15 633.44 166.37 638.48 C 164.06 641.44 160.57 643.44 158.88 646.87 C 157.93 648.58 158.96 650.40 159.40 652.09 C 162.05 650.65 164.63 648.87 165.98 646.08 C 167.88 642.45 171.38 640.07 173.42 636.55 C 176.75 630.93 181.23 626.02 183.89 620.00 C 188.12 612.60 192.33 605.19 196.78 597.92 C 200.90 590.20 203.86 581.91 206.63 573.62 C 207.90 570.08 207.05 565.70 210.15 563.01 C 212.55 568.52 214.53 574.36 215.01 580.39 C 215.40 584.94 217.61 589.13 217.70 593.72 C 217.85 600.88 221.20 607.75 220.09 614.97 C 220.15 616.38 219.15 618.31 220.72 619.25 C 222.46 620.63 224.88 619.55 226.45 618.40 C 230.59 615.32 233.68 610.44 239.07 609.39 C 239.24 614.45 238.86 619.54 239.61 624.57 C 240.35 629.72 240.69 635.05 239.35 640.15 C 238.35 644.08 238.13 648.16 237.31 652.13 L 237.06 652.42 L 236.64 652.92 C 227.51 659.49 217.86 665.53 207.11 669.05 C 187.56 675.77 165.82 676.01 146.17 669.55 C 129.56 664.17 114.51 654.12 103.17 640.84 C 91.00 626.55 83.09 608.62 80.99 589.94 C 78.80 571.91 81.91 553.26 89.87 536.92 C 91.75 532.96 94.12 529.25 96.25 525.42 C 98.58 522.14 100.96 518.89 103.47 515.74 C 103.53 515.67 103.65 515.54 103.71 515.47 Z" />
<path fill="#560d80" opacity="1.00" d=" M 580.42 522.98 C 603.84 506.08 635.07 501.08 662.72 509.15 C 678.42 513.52 692.66 522.37 704.32 533.68 C 715.56 545.43 724.16 559.81 728.46 575.54 C 734.03 595.18 733.05 616.56 725.68 635.60 C 724.32 638.83 722.93 642.07 722.07 645.50 C 719.24 649.64 715.77 653.33 711.71 656.29 C 709.39 647.52 712.38 637.90 708.58 629.39 C 707.86 628.37 706.95 627.51 706.11 626.62 C 699.84 631.30 697.89 639.16 693.23 645.10 C 690.89 648.24 689.06 651.69 687.05 655.04 C 682.71 661.31 675.92 665.37 671.67 671.72 C 670.95 673.16 669.21 672.89 667.90 673.25 C 667.02 666.98 667.55 659.90 663.24 654.75 C 661.54 654.03 659.66 655.31 658.85 656.79 C 657.23 659.44 655.29 661.93 652.67 663.66 C 648.58 666.46 645.94 670.89 641.60 673.36 C 635.98 672.24 630.38 670.98 624.94 669.17 C 626.79 662.86 628.93 656.59 629.65 650.02 C 630.85 639.64 633.33 629.45 634.51 619.07 C 634.68 610.08 635.15 601.05 634.67 592.07 C 634.80 588.98 630.00 590.10 629.56 592.35 C 628.67 597.21 630.90 602.04 629.96 606.90 C 629.20 611.98 629.62 617.16 628.71 622.23 C 627.50 629.21 627.02 636.29 625.63 643.24 C 624.04 651.40 623.40 659.80 620.57 667.67 C 606.28 661.70 593.18 652.69 583.15 640.82 C 570.76 626.30 562.84 607.99 560.88 588.99 C 558.66 569.04 562.94 548.41 572.99 531.04 C 574.41 528.60 576.85 527.05 578.84 525.13 C 579.23 524.59 580.03 523.52 580.42 522.98 Z" />
<path fill="#560d80" opacity="1.00" d=" M 215.92 563.36 C 219.32 563.36 221.65 565.68 223.53 568.22 C 224.20 568.34 224.87 568.48 225.55 568.62 C 227.33 571.55 230.24 573.38 233.37 574.60 C 237.46 579.63 243.29 582.73 248.28 586.73 C 251.80 590.26 255.74 593.33 259.55 596.55 C 262.43 599.05 266.93 599.78 268.37 603.71 C 264.48 617.05 258.18 629.80 249.11 640.40 C 246.91 643.01 244.34 645.30 242.31 648.06 C 245.05 637.22 243.34 626.03 243.76 615.01 C 244.04 610.18 243.08 605.42 241.45 600.90 C 235.84 602.97 231.16 607.12 227.67 611.92 C 226.92 612.10 225.43 612.47 224.68 612.66 C 222.90 607.84 222.98 602.68 222.42 597.66 C 220.55 586.16 217.61 574.89 215.92 563.36 Z" />
<path fill="#560d80" opacity="1.00" d=" M 689.27 659.13 C 695.45 652.27 698.44 643.29 703.99 636.00 C 707.93 643.32 705.37 651.86 706.63 659.72 C 697.93 665.04 688.50 669.34 678.49 671.42 C 681.72 667.00 685.98 663.49 689.27 659.13 Z" />
<path fill="#560d80" opacity="1.00" d=" M 659.80 662.06 C 663.42 664.94 662.04 670.04 662.84 674.07 C 657.66 674.28 652.47 674.30 647.31 673.88 C 651.50 669.97 655.98 666.37 659.80 662.06 Z" />
<path fill="#560d80" opacity="1.00" d=" M 336.28 765.46 C 352.92 740.11 382.23 724.09 412.44 722.95 C 419.92 722.98 427.39 723.44 434.75 724.83 C 453.26 728.49 470.48 737.90 483.88 751.14 C 493.67 761.30 501.52 773.43 506.10 786.82 C 512.87 805.84 513.32 827.04 507.48 846.35 C 502.49 863.24 492.60 878.49 479.60 890.34 C 479.53 890.40 479.40 890.52 479.33 890.58 C 478.54 891.20 477.75 891.82 476.97 892.45 C 463.68 903.00 447.86 910.54 431.00 913.04 C 410.88 916.39 389.94 912.76 371.74 903.68 C 374.86 902.13 378.32 901.28 381.22 899.29 C 384.31 897.18 387.93 896.16 391.50 895.20 C 391.63 893.13 391.97 890.02 389.29 889.52 C 385.88 888.78 385.49 893.74 382.55 894.45 C 377.46 896.21 372.83 899.01 367.86 901.03 C 367.53 900.88 366.86 900.58 366.53 900.43 C 356.88 895.10 348.79 887.38 341.59 879.13 C 341.77 874.40 343.01 869.76 342.77 865.01 C 342.50 856.92 344.79 849.03 344.85 840.97 C 344.88 832.96 344.77 824.96 344.85 816.96 C 344.76 815.02 345.62 813.15 347.10 811.92 C 349.57 811.57 352.11 811.93 354.56 811.40 C 355.86 810.54 356.86 809.32 357.96 808.23 C 355.80 802.59 350.37 799.31 347.92 793.86 C 346.86 791.57 344.44 788.81 341.79 790.76 C 338.79 794.84 338.48 800.30 335.43 804.38 C 333.77 806.48 331.85 808.35 330.02 810.31 C 330.49 811.04 330.98 811.76 331.51 812.47 C 334.78 813.18 338.17 813.25 341.47 813.86 C 340.64 827.20 342.42 840.69 339.87 853.91 C 338.70 859.40 338.79 865.09 337.51 870.55 C 337.16 870.62 336.48 870.77 336.14 870.85 C 333.80 868.09 332.37 864.73 330.52 861.66 C 320.56 842.19 317.85 819.22 322.58 797.89 C 325.02 786.31 330.01 775.44 336.28 765.46 Z" />
<path fill="#560d80" opacity="1.00" d=" M 816.40 765.40 C 833.54 739.12 864.63 722.57 896.01 723.13 C 919.42 722.73 942.67 731.93 960.00 747.56 L 960.00 890.29 C 958.85 889.93 958.16 890.39 957.93 891.66 C 957.68 891.88 957.19 892.31 956.94 892.53 C 943.06 903.43 926.53 911.12 908.94 913.35 C 876.52 918.11 842.19 904.69 821.72 879.08 C 825.04 879.92 828.37 880.72 831.79 881.05 C 837.63 881.44 842.63 885.01 848.46 885.55 C 857.34 888.22 866.75 888.92 875.37 892.55 C 880.53 894.82 886.19 895.33 891.62 896.61 C 898.70 898.74 905.72 901.10 912.86 903.04 C 914.30 899.33 912.31 895.64 911.89 891.97 C 910.48 881.01 908.02 870.09 908.86 858.98 C 910.02 848.68 910.18 838.27 912.15 828.07 C 912.39 821.59 914.92 815.47 915.17 809.00 C 914.87 802.39 920.27 797.18 919.90 790.49 C 918.20 790.13 916.53 789.77 914.86 789.42 C 913.00 793.75 912.65 798.50 911.30 802.99 C 909.64 808.51 909.05 814.26 908.12 819.93 C 907.10 825.94 907.56 832.11 906.26 838.09 C 904.90 844.62 905.24 851.32 905.15 857.96 C 905.05 865.33 905.18 872.71 905.52 880.08 C 905.54 882.47 906.96 884.56 907.17 886.92 C 906.80 888.38 906.21 889.77 905.66 891.17 C 900.46 881.10 891.47 873.58 886.29 863.50 C 883.58 858.59 879.98 854.17 878.03 848.87 C 877.03 846.77 876.17 843.51 873.30 843.59 C 871.56 844.69 870.11 846.24 869.04 847.99 C 866.43 851.79 866.88 857.19 863.26 860.31 C 858.59 852.52 854.30 844.47 850.75 836.11 C 847.97 826.53 845.44 816.86 842.74 807.27 C 840.28 804.53 836.18 807.66 835.49 810.54 C 832.96 817.76 831.18 825.27 827.76 832.17 C 824.67 827.90 823.10 822.83 820.79 818.15 C 817.83 812.31 815.87 806.03 812.84 800.22 C 810.93 794.34 809.43 788.32 807.59 782.41 C 808.13 780.61 808.67 778.81 809.20 777.00 C 811.40 776.20 814.89 776.00 815.14 773.00 C 815.46 771.20 813.42 770.57 812.35 769.65 L 812.32 769.64 C 813.85 768.40 815.31 767.05 816.40 765.40 Z" />
<path fill="#560d80" opacity="1.00" d=" M 0.00 747.69 C 2.93 750.02 5.38 752.87 7.93 755.59 L 7.96 755.63 C 7.83 757.14 7.64 758.70 7.76 760.25 C 9.02 760.21 10.28 760.07 11.54 759.93 L 11.55 759.96 C 23.79 775.97 31.04 795.76 31.49 815.94 C 26.37 816.45 21.22 816.79 16.08 816.57 C 16.81 817.78 17.45 819.67 19.17 819.63 C 23.28 819.45 27.34 818.33 31.48 818.97 C 31.73 845.69 19.75 872.01 0.00 889.91 L 0.00 747.69 Z" />
<path fill="#560d80" opacity="1.00" d=" M 804.87 847.91 C 798.82 828.98 798.70 808.08 805.03 789.20 C 806.56 793.08 808.19 796.96 808.91 801.10 C 809.71 806.52 813.19 810.93 815.07 815.98 C 818.88 823.76 821.18 832.19 825.13 839.91 C 826.15 841.68 828.86 843.80 830.54 841.54 C 833.92 833.05 835.90 824.05 839.40 815.60 C 840.61 817.18 841.82 818.86 842.17 820.89 C 843.35 827.29 845.19 833.54 847.26 839.70 C 850.18 848.53 856.01 855.96 859.41 864.58 C 860.25 867.17 862.69 868.49 864.86 869.83 C 868.67 864.19 869.82 857.24 873.78 851.70 C 877.33 857.34 880.18 863.43 884.49 868.59 C 887.43 871.82 888.61 876.21 891.66 879.36 C 894.42 882.42 896.41 886.05 898.70 889.45 C 899.28 890.59 900.32 891.73 900.02 893.14 C 896.76 893.50 893.47 892.92 890.44 891.75 C 885.40 889.70 879.99 888.97 874.79 887.53 C 865.33 885.67 856.28 882.23 846.81 880.45 C 836.85 878.43 827.16 875.24 817.18 873.33 C 812.17 865.34 807.59 856.99 804.87 847.91 Z" />
</g>
<g id="#ef736cff">
<path fill="#ef736c" opacity="1.00" d=" M 834.52 23.56 C 841.15 24.80 847.49 20.93 854.14 21.98 C 854.13 23.31 854.07 24.63 853.95 25.96 C 850.10 32.91 845.36 40.54 847.12 48.84 C 845.30 49.80 843.24 51.05 841.19 49.89 C 838.98 48.04 837.85 45.28 836.38 42.88 C 833.72 43.84 831.76 45.89 829.74 47.76 C 824.92 51.91 820.32 56.31 815.66 60.63 C 807.54 69.84 799.56 79.17 791.86 88.72 C 795.94 89.07 799.92 87.85 804.00 87.87 C 810.58 87.94 817.40 85.61 823.80 88.07 C 826.82 89.84 824.19 92.86 822.32 94.29 C 816.64 98.89 811.18 103.75 805.70 108.58 C 798.79 113.72 793.22 120.42 788.62 127.65 C 786.46 131.09 783.16 133.80 781.81 137.72 C 788.79 138.55 796.09 136.24 802.78 139.24 C 803.42 140.24 804.15 141.50 803.81 142.73 C 801.87 144.84 799.44 146.48 797.87 148.91 C 792.85 156.33 787.51 163.60 783.69 171.74 C 779.42 179.40 775.24 187.11 771.57 195.07 C 777.47 192.87 782.18 188.45 787.89 185.84 C 794.21 181.75 801.15 178.81 808.22 176.29 C 825.34 170.83 842.23 164.31 860.02 161.29 C 864.99 160.61 869.92 159.66 874.84 158.68 C 876.33 161.16 876.06 164.09 873.76 165.96 C 866.51 165.97 859.32 166.91 852.23 168.43 C 837.94 172.43 823.72 176.75 809.65 181.50 C 802.21 183.92 795.19 187.49 788.43 191.40 C 781.43 195.55 773.99 199.25 768.23 205.12 C 767.04 206.93 764.77 206.00 763.01 206.17 C 761.32 203.70 762.10 200.69 761.87 197.91 C 761.51 193.73 760.34 189.68 759.39 185.62 C 756.81 166.98 753.35 148.47 749.74 130.00 C 749.24 127.35 748.78 124.68 748.66 121.99 L 748.75 121.58 C 749.64 118.21 750.40 114.80 751.02 111.37 C 751.54 112.55 751.89 113.79 752.08 115.07 C 753.29 123.13 755.11 131.08 756.76 139.06 C 757.61 143.87 758.20 148.73 759.48 153.45 C 761.14 166.11 763.67 178.64 766.44 191.10 C 768.09 188.22 769.93 185.46 771.77 182.69 C 778.58 169.18 786.50 156.20 795.20 143.80 C 789.19 143.37 782.87 142.44 776.99 143.97 C 775.61 143.55 774.25 143.12 772.90 142.69 C 771.89 138.70 775.26 136.13 777.11 133.08 C 779.22 129.61 782.28 126.89 784.67 123.63 C 789.85 116.62 795.23 109.61 802.12 104.18 C 806.27 100.30 811.40 97.52 815.06 93.11 C 808.66 92.53 802.38 93.96 796.02 94.23 C 791.63 94.65 787.23 96.12 782.82 95.09 C 782.80 94.34 782.75 92.84 782.73 92.09 C 783.16 90.77 783.19 89.20 784.17 88.12 C 792.37 79.31 800.79 70.68 808.43 61.37 C 812.29 56.24 817.98 52.96 822.17 48.14 C 825.08 44.71 829.53 42.79 831.90 38.89 C 832.35 34.56 827.67 32.36 825.94 28.98 C 825.78 24.28 830.69 22.98 834.52 23.56 Z" />
<path fill="#ef736c" opacity="1.00" d=" M 782.28 101.24 C 782.79 101.77 782.79 101.77 782.28 101.24 Z" />
<path fill="#ef736c" opacity="1.00" d=" M 526.23 157.20 C 531.86 151.43 536.36 144.72 541.36 138.43 C 541.74 140.00 542.11 141.57 542.46 143.15 C 537.59 150.92 530.78 157.16 525.00 164.20 C 532.46 162.50 539.34 159.06 546.67 156.96 C 547.09 158.04 547.51 159.12 547.93 160.20 C 541.47 163.39 534.32 164.97 528.02 168.50 C 528.24 169.80 529.78 169.89 530.74 170.44 C 540.54 174.23 550.42 177.84 560.31 181.41 C 560.59 181.52 561.16 181.74 561.44 181.85 C 563.04 184.04 564.81 186.16 567.29 187.40 C 565.99 188.66 564.43 187.33 563.10 187.00 C 553.42 183.18 543.65 179.61 533.83 176.20 C 528.16 174.63 523.09 171.24 517.13 170.77 C 515.08 170.17 516.19 167.86 516.06 166.35 C 520.32 164.38 522.93 160.35 526.23 157.20 Z" />
<path fill="#ef736c" opacity="1.00" d=" M 343.50 160.07 C 355.40 163.00 367.34 165.85 379.49 167.56 C 395.32 170.76 411.30 173.14 427.23 175.80 C 432.48 177.43 438.09 176.35 443.34 177.92 C 443.03 179.35 443.45 181.10 442.54 182.34 C 435.65 189.99 431.05 199.33 426.38 208.43 C 420.98 219.50 418.67 231.74 414.12 243.14 C 412.56 243.13 411.02 243.14 409.47 243.15 C 412.14 234.07 415.43 225.19 418.24 216.15 C 421.80 205.15 428.62 195.72 434.09 185.66 C 421.89 191.52 409.93 198.03 398.86 205.84 C 395.64 208.00 392.83 210.70 390.08 213.40 C 389.33 213.30 387.84 213.09 387.10 212.98 C 385.24 207.03 386.17 200.77 385.87 194.65 C 379.81 198.92 373.83 203.35 368.21 208.19 C 363.73 212.39 360.20 217.48 356.09 222.02 C 353.01 225.34 350.65 229.50 346.73 231.93 C 344.89 232.82 343.86 230.46 343.93 228.98 C 343.27 220.61 345.27 212.30 344.98 203.92 C 331.45 215.60 317.28 226.96 306.87 241.66 C 308.95 243.09 311.20 244.35 312.94 246.22 C 313.53 247.79 313.40 249.84 311.75 250.71 C 308.81 251.19 305.73 250.84 302.90 251.90 C 298.52 253.37 294.82 256.26 290.53 257.92 C 300.83 247.14 310.81 235.78 318.21 222.77 C 318.67 222.12 319.13 221.46 319.59 220.81 C 327.71 213.53 335.70 206.10 343.54 198.53 C 345.46 196.27 348.42 195.79 351.23 195.74 C 350.19 204.85 348.70 213.98 349.08 223.19 C 353.53 218.87 356.65 213.41 360.97 208.97 C 366.04 203.32 372.43 199.14 378.06 194.11 C 381.70 191.18 385.29 187.82 389.93 186.63 C 392.23 192.86 390.55 199.61 391.07 206.08 C 399.44 199.94 408.28 194.48 417.25 189.25 C 421.85 187.09 426.20 184.43 430.18 181.26 C 415.53 177.89 400.59 176.06 385.83 173.29 C 371.45 170.12 356.71 168.50 342.63 164.06 C 342.91 162.72 343.21 161.39 343.50 160.07 Z" />
<path fill="#ef736c" opacity="1.00" d=" M 844.05 231.47 C 851.41 231.95 858.09 228.68 865.00 226.80 C 866.43 227.60 867.88 228.39 869.35 229.17 C 868.88 233.50 866.56 237.45 866.88 241.90 C 869.85 243.13 872.88 244.28 876.07 244.87 C 868.78 246.11 862.03 249.19 855.10 251.59 C 851.64 246.87 847.81 242.33 843.05 238.86 C 841.34 237.76 840.50 235.89 839.64 234.15 C 841.10 233.24 842.57 232.35 844.05 231.47 Z" />
<path fill="#ef736c" opacity="1.00" d=" M 9.95 245.63 C 11.76 247.55 13.63 249.45 15.03 251.71 C 15.76 265.30 17.76 278.80 19.93 292.23 C 17.96 288.83 15.85 285.52 13.46 282.41 C 13.33 282.22 13.08 281.86 12.96 281.68 C 11.82 269.68 9.06 257.76 9.95 245.63 Z" />
<path fill="#ef736c" opacity="1.00" d=" M 630.93 271.65 C 632.57 271.92 634.43 271.96 635.52 273.45 C 645.53 284.04 658.72 290.62 671.05 298.03 C 684.16 306.61 699.38 311.63 714.73 314.28 C 717.04 315.33 715.98 318.19 714.31 319.31 C 709.18 323.66 706.08 329.73 701.47 334.54 C 691.34 347.10 681.64 359.99 671.63 372.64 C 662.84 384.57 654.01 396.73 647.90 410.28 C 646.19 410.19 644.48 410.14 642.78 410.11 C 642.46 409.18 642.16 408.27 641.86 407.35 C 643.95 405.94 645.91 404.27 647.05 401.96 C 654.44 389.37 662.67 377.29 671.84 365.91 C 682.40 351.21 694.25 337.50 705.00 322.93 C 702.55 323.02 700.09 323.02 697.70 323.54 C 685.99 326.52 674.11 328.82 662.11 330.20 C 665.34 333.89 668.51 337.64 671.83 341.25 C 672.83 342.44 674.09 345.16 671.74 345.58 C 664.29 347.60 656.49 346.60 648.93 347.70 C 639.51 349.09 630.39 345.43 621.05 345.05 C 626.47 349.89 631.49 355.18 637.02 359.91 C 638.34 361.02 639.31 362.47 640.31 363.87 C 638.31 364.88 636.31 366.19 633.99 366.08 C 625.66 366.13 617.32 365.92 608.99 366.06 C 599.37 366.28 589.82 364.03 580.26 364.16 C 578.31 366.65 578.54 370.23 577.83 373.22 C 575.98 373.29 573.89 374.10 572.26 372.84 C 569.88 371.19 568.76 368.30 566.43 366.59 C 564.05 364.51 560.77 363.08 559.66 359.92 C 559.63 358.60 561.03 357.74 562.16 357.43 C 567.19 356.19 572.71 355.31 576.60 351.57 C 577.82 350.22 579.78 349.23 581.45 350.53 C 583.02 353.40 581.26 356.71 580.89 359.70 C 597.50 362.58 614.39 362.20 631.16 361.43 C 625.99 355.06 618.54 350.72 614.26 343.62 C 612.90 341.67 614.80 339.61 616.92 340.03 C 625.45 341.10 633.95 342.46 642.50 343.43 C 650.38 344.12 658.08 341.66 665.95 341.74 C 662.32 336.63 655.50 332.86 655.68 325.87 C 667.93 326.50 679.90 323.45 691.73 320.71 C 696.28 319.55 700.92 318.59 705.20 316.57 C 699.94 314.96 694.56 313.74 689.43 311.74 C 679.20 309.00 670.56 302.62 661.35 297.66 C 653.12 292.71 644.65 287.97 637.42 281.59 C 634.79 279.34 631.75 277.62 629.21 275.28 C 629.71 274.03 630.33 272.85 630.93 271.65 Z" />
<path fill="#ef736c" opacity="1.00" d=" M 107.81 306.72 C 110.71 307.49 113.66 308.07 116.59 308.74 L 116.85 308.80 C 120.54 315.31 125.79 320.73 130.19 326.75 C 134.08 332.20 138.34 337.37 142.02 342.97 C 146.87 350.35 152.64 357.07 157.43 364.49 C 164.10 373.48 169.26 383.43 174.94 393.03 C 176.63 396.58 178.45 400.25 182.13 402.12 C 182.09 402.85 182.01 404.31 181.97 405.04 C 179.25 406.02 176.37 406.38 173.49 406.25 C 172.75 402.24 170.94 398.58 169.03 395.03 C 160.49 377.97 149.60 362.19 137.83 347.24 C 128.46 333.26 117.57 320.41 107.81 306.72 Z" />
<path fill="#ef736c" opacity="1.00" d=" M 158.19 312.67 L 158.64 312.67 C 160.98 312.67 163.31 312.70 165.65 312.68 C 163.67 315.03 161.60 317.31 159.64 319.69 C 166.96 319.93 174.23 320.77 181.51 321.38 C 192.47 322.49 203.23 319.50 214.09 318.68 C 219.70 318.34 225.22 316.19 230.86 317.15 C 233.25 318.26 231.73 321.06 230.32 322.32 C 222.58 330.39 212.91 336.27 204.76 343.86 C 212.02 343.95 219.28 343.85 226.52 344.39 C 233.37 343.68 240.23 344.16 247.08 344.19 C 256.66 342.93 266.39 342.68 275.85 340.66 C 274.95 336.75 273.77 332.56 276.07 328.88 C 278.03 329.03 280.47 328.29 281.92 330.04 C 287.29 335.66 295.56 336.41 302.73 338.20 C 302.26 340.55 301.73 342.89 301.18 345.22 C 298.30 346.55 295.73 348.42 293.14 350.23 C 289.75 352.53 287.56 356.26 283.91 358.23 C 281.74 358.57 278.55 358.93 277.24 356.74 C 276.82 353.26 276.88 349.75 276.53 346.27 C 269.73 345.53 263.07 347.65 256.28 347.61 C 240.66 350.58 224.68 347.97 208.94 349.80 C 203.35 350.10 196.95 351.13 192.32 347.19 C 194.51 342.73 199.37 340.96 202.91 337.84 C 208.92 332.80 215.43 328.38 221.22 323.07 C 211.03 323.43 201.13 326.25 190.99 327.03 C 184.31 327.38 177.69 325.94 171.01 326.10 C 164.36 326.27 157.73 325.60 151.16 324.70 C 148.38 323.90 148.81 320.41 150.81 318.98 C 153.40 317.03 156.00 315.08 158.19 312.67 Z" />
<path fill="#ef736c" opacity="1.00" d=" M 187.18 342.24 C 187.71 342.76 187.71 342.76 187.18 342.24 Z" />
<path fill="#ef736c" opacity="1.00" d=" M 25.99 371.81 C 28.43 365.20 29.75 358.28 31.14 351.40 C 32.59 358.08 32.67 365.19 36.24 371.27 C 35.14 372.64 33.98 374.29 32.01 374.30 C 29.83 373.98 27.96 372.69 25.99 371.81 Z" />
<path fill="#ef736c" opacity="1.00" d=" M 709.93 416.14 C 710.78 415.86 711.64 415.59 712.52 415.32 C 716.52 417.83 721.02 419.44 725.62 420.46 C 728.41 420.90 732.31 418.77 733.85 422.21 C 734.87 425.92 730.24 427.72 728.07 429.90 C 729.53 431.63 730.90 433.45 732.18 435.34 C 725.01 432.38 718.65 427.78 711.36 425.10 C 710.62 423.36 709.89 421.63 709.15 419.90 C 709.40 418.64 709.66 417.39 709.93 416.14 Z" />
<path fill="#ef736c" opacity="1.00" d=" M 465.43 427.56 L 465.83 427.73 C 472.99 430.67 480.25 433.39 487.25 436.73 C 498.34 441.75 510.20 444.56 522.05 447.15 C 520.58 448.29 519.17 449.49 517.72 450.64 L 517.46 450.83 C 512.55 449.43 507.55 448.39 502.55 447.36 C 495.16 445.16 487.98 442.30 480.92 439.21 C 474.64 436.48 468.07 434.36 462.11 430.95 C 463.22 429.83 464.32 428.69 465.43 427.56 Z" />
<path fill="#ef736c" opacity="1.00" d=" M 766.76 439.01 C 766.55 437.40 767.83 436.39 768.81 435.36 C 776.35 442.08 783.44 449.29 790.72 456.28 C 797.18 461.82 804.83 465.69 811.94 470.31 C 812.59 463.70 809.36 457.02 811.95 450.59 C 815.46 450.91 817.56 453.86 820.28 455.68 C 833.40 463.91 847.87 469.61 862.04 475.76 C 856.67 468.04 850.19 461.02 845.91 452.59 C 847.73 453.10 849.58 453.56 851.41 454.09 L 851.59 454.32 C 858.05 462.34 862.63 472.22 871.15 478.36 C 870.90 479.69 871.12 481.21 870.36 482.41 C 867.60 483.29 864.62 483.00 861.83 483.77 C 845.71 488.52 829.25 492.10 813.20 497.12 C 808.59 498.61 803.67 499.19 799.34 501.45 L 799.15 501.15 C 798.38 499.85 797.62 498.56 796.87 497.28 C 810.97 493.24 825.00 488.91 839.25 485.39 C 845.35 483.52 851.78 482.48 857.49 479.50 C 850.96 475.37 843.56 473.05 836.82 469.35 C 829.62 466.00 822.68 462.12 815.92 457.97 C 816.33 463.09 816.94 468.19 817.67 473.28 C 818.16 475.12 816.87 476.69 816.16 478.27 C 808.39 475.01 802.02 469.43 794.90 465.08 C 790.54 462.20 786.42 458.93 782.69 455.26 C 779.31 451.56 776.27 447.49 772.10 444.63 C 772.79 453.72 775.73 462.45 777.03 471.45 C 775.01 469.37 772.88 467.42 770.90 465.33 C 769.73 456.52 766.53 447.97 766.76 439.01 Z" />
<path fill="#ef736c" opacity="1.00" d=" M 473.05 467.04 C 483.64 467.14 493.88 464.10 504.16 461.96 C 502.49 463.73 500.88 465.58 499.12 467.27 C 498.95 467.44 498.59 467.77 498.42 467.93 C 491.84 469.21 485.32 470.78 478.67 471.64 C 481.23 474.84 484.78 477.00 487.59 479.96 C 486.54 481.22 485.49 482.48 484.47 483.77 C 479.84 478.88 472.70 476.33 469.79 469.93 C 469.23 467.85 471.32 466.91 473.05 467.04 Z" />
<path fill="#ef736c" opacity="1.00" d=" M 461.44 488.45 C 468.59 488.13 475.47 485.24 482.68 486.14 C 481.59 487.70 480.56 489.29 479.48 490.86 L 479.32 491.09 C 471.18 491.66 463.17 493.61 454.97 493.36 C 446.85 493.72 438.83 491.49 430.71 492.31 C 435.31 496.55 440.94 499.36 445.89 503.14 C 449.75 506.21 454.87 507.77 457.66 512.08 C 452.97 516.79 445.89 514.64 439.99 515.36 C 431.64 516.17 423.25 515.96 414.91 516.89 C 404.03 517.73 393.15 516.49 382.28 516.31 C 381.16 520.12 381.24 524.12 381.21 528.05 C 379.49 528.11 377.76 528.27 376.05 528.13 C 372.43 526.59 369.97 523.30 366.61 521.33 C 362.60 518.88 358.04 517.16 354.93 513.48 C 358.99 509.53 365.12 509.71 369.89 506.99 C 374.13 505.65 375.98 500.12 380.93 500.77 C 383.60 503.95 382.62 508.03 381.99 511.74 C 403.37 514.31 424.95 512.23 446.25 509.80 C 438.41 503.52 429.17 499.03 422.03 491.88 C 420.48 490.66 420.66 488.66 420.61 486.90 C 427.45 486.73 434.22 487.95 441.05 487.84 C 447.86 487.64 454.63 489.37 461.44 488.45 Z" />
<path fill="#ef736c" opacity="1.00" d=" M 902.94 537.77 C 902.93 535.52 905.20 533.81 907.00 532.72 C 923.75 541.43 941.82 547.22 960.00 552.12 L 960.00 556.33 C 943.21 552.38 926.89 546.70 910.96 540.12 C 908.42 538.85 905.15 539.66 902.94 537.77 Z" />
<path fill="#ef736c" opacity="1.00" d=" M 0.00 551.96 C 14.15 556.05 28.38 559.87 42.68 563.41 C 50.35 565.09 57.72 567.99 65.57 568.85 C 64.70 571.50 63.91 574.18 62.90 576.79 C 53.30 588.12 44.78 600.66 39.58 614.65 C 33.22 630.33 25.11 645.86 23.83 663.02 C 22.70 663.58 21.59 664.22 20.38 664.62 C 19.27 664.12 18.22 663.51 17.16 662.93 C 18.39 659.23 19.65 655.54 20.60 651.77 C 22.66 642.72 26.27 634.14 29.72 625.56 C 33.98 615.95 37.70 606.08 42.80 596.87 C 47.49 589.59 52.67 582.68 57.89 575.78 C 43.93 581.45 29.86 587.07 16.92 594.86 C 14.61 596.17 12.69 598.03 10.60 599.65 C 9.16 601.11 6.07 600.12 5.99 598.00 C 5.23 592.23 7.01 586.52 6.95 580.74 C 4.53 582.06 2.14 583.46 0.00 585.20 L 0.00 579.08 C 3.05 576.81 6.27 574.64 9.85 573.30 C 12.37 573.54 12.99 576.39 12.44 578.45 C 11.53 583.33 11.04 588.27 11.06 593.23 C 20.67 587.52 30.60 582.37 40.81 577.83 C 45.36 575.97 49.70 573.66 54.06 571.40 C 36.19 565.84 17.82 562.09 0.00 556.40 L 0.00 551.96 Z" />
<path fill="#ef736c" opacity="1.00" d=" M 916.80 585.71 C 920.91 582.70 924.62 577.90 930.32 578.72 C 930.93 583.02 928.90 587.01 928.41 591.20 C 927.71 596.50 926.29 601.69 925.98 607.04 C 932.20 601.91 936.93 595.22 943.35 590.30 C 948.56 585.95 954.88 583.18 960.00 578.71 L 960.00 584.86 C 957.87 586.47 955.54 587.77 953.27 589.15 C 942.29 595.54 934.66 606.00 925.25 614.28 C 924.08 615.46 922.34 615.15 920.87 615.34 C 919.95 605.68 923.05 596.34 924.13 586.85 C 916.97 591.28 910.06 596.14 903.46 601.38 C 895.17 607.12 888.24 614.50 881.03 621.49 C 882.98 623.04 885.09 624.44 886.77 626.32 C 887.70 627.88 887.31 629.89 885.89 631.03 C 882.56 631.35 879.13 630.76 875.90 631.82 C 871.77 633.08 867.88 634.97 863.86 636.51 C 862.90 634.66 861.46 632.61 862.54 630.49 C 864.14 626.22 864.98 621.75 865.23 617.21 C 865.17 614.63 867.15 611.70 869.94 611.97 C 872.78 613.28 874.29 616.52 877.16 617.89 C 878.47 618.22 879.41 616.99 880.33 616.29 C 884.98 611.61 890.06 607.39 894.78 602.79 C 902.05 597.01 909.67 591.68 916.80 585.71 Z" />
<path fill="#ef736c" opacity="1.00" d=" M 269.63 598.73 C 280.62 606.67 291.29 615.12 303.13 621.79 C 307.35 624.28 311.55 626.92 316.28 628.36 C 316.21 630.20 316.28 632.07 315.89 633.90 C 315.28 635.23 313.47 634.86 312.30 635.28 C 310.06 630.23 304.38 628.80 300.29 625.71 C 289.20 618.98 278.54 611.53 268.49 603.31 C 268.91 601.79 269.31 600.27 269.63 598.73 Z" />
<path fill="#ef736c" opacity="1.00" d=" M 253.09 648.13 C 256.44 645.03 258.54 640.50 262.91 638.63 C 263.76 640.34 265.08 641.96 265.21 643.94 C 265.50 654.31 264.23 664.65 264.43 675.03 C 264.84 686.37 262.10 697.53 261.96 708.85 C 265.17 709.92 268.53 710.36 271.81 711.14 C 273.09 711.98 273.63 713.51 274.06 714.93 C 269.49 720.11 263.52 724.16 260.40 730.55 C 259.15 731.30 257.91 732.04 256.66 732.79 C 255.85 732.05 255.05 731.31 254.25 730.59 C 253.33 723.76 251.77 716.41 246.63 711.43 C 244.40 709.23 247.27 705.48 249.96 706.05 C 252.31 706.40 254.55 707.23 256.82 707.94 C 258.57 700.08 259.12 692.02 259.93 684.03 C 259.94 672.32 260.14 660.59 259.72 648.88 C 255.03 653.47 250.58 658.30 246.17 663.16 C 243.17 665.85 240.20 669.55 235.75 669.30 C 235.22 663.61 236.97 658.08 237.06 652.42 L 237.31 652.13 C 238.88 650.82 240.56 649.66 242.24 648.51 C 241.97 652.44 241.42 656.36 241.15 660.30 C 245.53 656.64 248.99 652.07 253.09 648.13 Z" />
<path fill="#ef736c" opacity="1.00" d=" M 436.07 650.79 C 437.86 650.68 439.64 650.59 441.43 650.52 C 438.55 657.78 437.58 665.61 434.98 672.96 C 432.47 680.34 429.72 687.63 427.02 694.94 C 424.35 702.37 420.92 709.53 418.89 717.17 C 427.49 713.59 435.49 708.67 444.29 705.50 C 445.13 704.88 447.03 704.95 446.83 703.53 C 443.18 701.34 439.16 699.84 435.50 697.67 C 437.08 696.00 439.09 694.84 441.30 694.24 C 449.17 691.88 456.82 688.43 465.12 687.92 C 465.44 688.83 465.76 689.75 466.09 690.68 C 457.90 691.48 450.21 694.46 442.61 697.44 C 445.84 699.71 449.85 700.70 452.85 703.27 C 453.01 703.88 453.31 705.11 453.47 705.72 C 441.35 708.44 430.62 714.99 419.83 720.86 C 427.62 721.09 435.49 720.32 443.22 721.61 C 458.00 724.25 472.97 726.64 487.03 732.11 C 487.63 733.68 486.44 734.76 484.98 735.04 C 481.23 733.93 477.79 731.95 473.99 730.99 C 464.12 728.39 454.08 726.57 444.07 724.65 C 440.98 724.08 437.75 723.56 434.75 724.83 C 427.39 723.44 419.92 722.98 412.44 722.95 C 417.86 709.46 423.32 695.98 428.30 682.32 C 431.81 672.10 436.07 661.76 436.07 650.79 Z" />
<path fill="#ef736c" opacity="1.00" d=" M 454.48 678.85 C 455.91 677.55 457.41 676.33 459.04 675.29 C 460.05 677.46 461.07 679.64 462.07 681.82 C 459.50 680.93 456.96 679.95 454.48 678.85 Z" />
<path fill="#ef736c" opacity="1.00" d=" M 10.08 742.44 C 13.71 744.47 16.21 748.16 20.21 749.57 C 22.04 750.29 23.80 751.16 25.49 752.18 C 24.20 754.60 21.70 755.63 19.21 756.39 C 24.46 767.95 31.97 778.21 39.69 788.21 C 41.44 781.64 40.52 774.37 44.04 768.34 C 48.19 772.20 49.77 777.82 52.51 782.62 C 55.76 789.70 61.16 795.44 66.33 801.14 C 67.09 797.01 67.88 792.88 69.14 788.87 C 69.80 788.87 71.12 788.87 71.78 788.87 C 75.97 794.96 81.04 800.46 86.71 805.22 C 90.09 808.36 93.32 811.71 97.30 814.12 C 96.06 809.35 94.27 804.73 93.01 799.97 C 90.82 792.17 90.81 784.01 89.72 776.04 C 88.44 766.96 89.11 757.79 88.98 748.66 C 90.40 749.00 92.12 748.88 93.15 750.12 C 93.40 754.09 92.19 757.99 92.25 761.97 C 92.32 769.33 93.32 776.65 93.98 783.98 C 94.42 795.90 98.00 807.51 102.78 818.37 C 103.47 819.51 102.64 820.74 102.33 821.87 C 91.29 820.37 80.10 820.02 68.98 819.24 C 56.48 819.25 43.96 817.44 31.48 818.97 C 31.48 818.21 31.49 816.70 31.49 815.94 C 43.26 813.44 55.14 816.55 66.99 815.95 C 76.00 816.54 85.02 817.36 94.07 816.94 C 86.69 809.08 77.93 802.55 71.32 793.93 C 69.89 798.47 70.45 803.96 67.10 807.68 C 62.38 803.06 58.77 797.47 54.49 792.46 C 50.51 787.39 48.58 781.15 45.22 775.72 C 43.56 782.20 44.02 789.02 42.15 795.46 C 40.38 794.42 38.53 793.34 37.47 791.52 C 34.20 786.49 30.98 781.43 27.43 776.60 C 23.02 770.68 20.16 763.82 16.14 757.66 C 14.61 758.41 13.08 759.18 11.55 759.96 L 11.54 759.93 C 10.44 758.41 9.24 756.98 7.96 755.63 L 7.93 755.59 C 9.36 751.31 8.36 746.64 10.08 742.44 Z" />
<path fill="#ef736c" opacity="1.00" d=" M 797.12 754.56 C 798.54 755.50 800.04 756.45 800.97 757.95 C 804.03 762.46 807.66 766.72 812.32 769.64 L 812.35 769.65 C 808.76 772.40 805.76 775.79 802.74 779.13 C 798.72 778.90 794.94 780.31 791.14 781.36 C 790.28 779.89 789.41 778.44 788.56 776.99 C 790.35 771.67 793.34 766.71 793.84 761.01 C 793.84 758.40 795.53 756.42 797.12 754.56 Z" />
<path fill="#ef736c" opacity="1.00" d=" M 625.71 792.58 C 626.84 792.56 627.97 792.53 629.11 792.48 C 628.43 797.05 626.86 801.41 625.84 805.90 C 621.83 820.10 620.34 834.83 618.49 849.42 C 623.18 845.49 627.39 841.01 632.09 837.07 C 635.54 834.19 638.99 829.69 644.05 830.67 C 641.53 842.97 636.86 854.76 634.46 867.09 C 634.04 874.47 633.12 881.82 632.97 889.22 C 638.87 885.63 643.17 879.63 650.02 877.61 C 650.57 878.95 651.32 880.35 650.86 881.87 C 649.08 892.82 648.76 904.01 649.93 915.05 C 649.94 922.08 650.82 929.06 651.24 936.08 C 654.47 930.74 655.97 924.60 659.07 919.19 C 663.00 909.70 668.85 901.18 674.92 892.95 C 682.11 882.59 689.45 872.30 697.66 862.71 C 701.96 858.56 705.59 853.81 709.72 849.51 C 710.87 850.11 712.03 850.73 713.19 851.35 C 712.81 853.02 712.56 854.91 711.11 856.05 C 697.09 868.31 687.03 884.21 676.08 899.09 C 669.67 907.46 664.72 916.84 660.32 926.39 C 657.35 932.72 654.18 939.12 653.05 946.08 C 651.44 946.95 649.00 948.51 647.86 946.16 C 644.43 940.36 638.64 936.70 634.52 931.48 C 625.10 921.59 615.41 911.95 605.69 902.34 C 598.63 895.02 591.39 887.84 583.54 881.36 C 579.07 877.21 573.61 874.30 569.33 869.95 C 567.36 869.11 565.11 868.60 563.55 867.07 C 563.76 864.95 564.41 862.93 565.01 860.92 C 565.74 860.92 567.19 860.93 567.92 860.93 C 569.09 863.02 570.42 865.09 572.47 866.45 C 584.78 875.71 596.51 885.75 607.09 896.96 C 620.81 908.88 631.92 923.48 645.90 935.10 C 646.36 927.70 645.33 920.35 644.95 912.98 C 645.16 903.86 644.40 894.69 645.64 885.63 C 639.99 889.79 634.89 894.72 628.90 898.40 C 626.39 894.38 627.91 889.45 628.02 885.03 C 629.35 875.43 629.42 865.60 632.24 856.26 C 633.81 850.48 636.37 844.97 637.12 838.99 C 631.83 843.37 627.33 848.61 621.99 852.94 C 619.37 854.93 617.80 858.89 614.17 859.12 C 612.40 857.20 612.63 854.41 613.00 852.05 C 614.65 842.02 616.91 832.10 618.10 822.01 C 618.56 818.17 619.54 814.44 620.65 810.75 C 622.49 804.74 623.09 798.36 625.71 792.58 Z" />
<path fill="#ef736c" opacity="1.00" d=" M 235.88 859.30 C 237.18 858.95 238.48 858.61 239.79 858.28 C 241.86 861.84 243.95 865.40 246.20 868.87 C 252.28 877.86 256.69 887.82 261.36 897.58 C 265.77 908.37 271.69 918.73 273.95 930.26 C 271.92 928.82 269.84 927.45 267.85 925.96 L 267.70 925.82 C 266.70 922.70 265.71 919.59 264.37 916.61 C 258.58 903.85 252.78 891.10 246.29 878.68 C 243.52 873.60 239.74 869.20 236.46 864.47 C 235.12 863.02 235.85 861.03 235.88 859.30 Z" />
<path fill="#ef736c" opacity="1.00" d=" M 314.59 892.45 C 315.75 894.21 316.89 895.97 318.06 897.73 C 317.33 903.80 316.62 909.96 314.59 915.76 C 313.02 917.55 310.31 916.46 309.24 914.70 C 306.02 910.34 302.03 906.67 298.22 902.86 C 296.00 913.63 292.67 924.11 289.51 934.63 C 288.75 936.90 287.78 939.08 286.81 941.27 C 285.64 940.34 284.46 939.40 283.29 938.50 L 283.36 938.27 C 285.92 928.13 290.34 918.56 292.23 908.24 C 293.88 903.76 292.81 898.78 294.89 894.46 C 302.37 896.01 305.38 903.80 310.94 908.15 C 312.11 902.90 312.66 897.50 314.59 892.45 Z" />
<path fill="#ef736c" opacity="1.00" d=" M 292.20 946.75 C 307.51 937.19 322.27 926.65 338.28 918.26 C 339.45 919.07 340.62 919.88 341.78 920.73 C 331.87 927.69 321.17 933.43 311.07 940.13 C 306.07 943.64 300.46 946.37 296.25 950.90 L 295.85 950.47 C 294.69 949.24 293.50 948.04 292.31 946.86 L 292.20 946.75 Z" />
</g>
<g id="#9c7cafff">
<path fill="#9c7caf" opacity="1.00" d=" M 570.69 50.60 C 572.70 49.09 573.75 46.43 576.21 45.55 C 568.28 58.09 562.67 72.20 561.04 87.01 C 560.08 92.96 560.63 99.01 560.00 104.99 C 553.84 116.08 547.67 127.18 541.29 138.15 C 535.38 106.47 546.78 72.24 570.69 50.60 Z" />
<path fill="#9c7caf" opacity="1.00" d=" M 93.99 47.63 L 94.23 47.43 C 94.18 47.55 94.09 47.78 94.04 47.89 L 93.99 47.63 Z" />
<path fill="#9c7caf" opacity="1.00" d=" M 93.86 48.34 C 93.91 48.23 93.99 48.01 94.04 47.89 C 93.99 48.01 93.91 48.23 93.86 48.34 Z" />
<path fill="#9c7caf" opacity="1.00" d=" M 59.94 118.22 C 61.11 91.59 73.15 65.36 93.86 48.34 C 93.09 50.36 92.25 52.36 91.25 54.29 C 81.94 71.64 78.64 91.96 81.10 111.44 C 80.61 111.54 79.63 111.74 79.13 111.85 C 78.74 109.68 78.68 107.37 77.69 105.37 C 76.97 103.73 75.02 104.27 73.61 104.04 C 71.24 110.57 65.11 114.14 59.94 118.22 Z" />
<path fill="#9c7caf" opacity="1.00" d=" M 542.66 144.14 C 547.83 132.74 555.22 122.51 560.77 111.30 C 562.05 116.33 562.86 121.48 564.40 126.45 C 567.71 137.41 572.99 147.80 580.03 156.84 C 575.97 159.11 571.85 161.26 567.58 163.11 C 568.17 157.26 570.97 151.71 569.92 145.72 C 568.64 146.14 567.35 146.51 566.18 147.15 C 559.94 150.91 553.48 154.36 546.67 156.96 C 544.95 152.82 543.42 148.57 542.66 144.14 Z" />
<path fill="#9c7caf" opacity="1.00" d=" M 79.77 115.31 C 80.20 115.10 81.04 114.67 81.47 114.46 C 85.71 138.70 99.23 161.29 119.24 175.76 C 136.10 188.15 157.10 194.78 178.03 194.21 C 197.55 193.86 216.86 187.28 232.57 175.70 C 235.03 173.76 237.02 171.29 239.03 168.89 L 238.36 169.89 C 231.78 181.92 222.01 192.06 210.85 199.95 C 191.08 213.89 165.86 219.80 141.96 216.13 C 118.78 212.99 97.08 200.66 82.18 182.69 C 67.65 165.35 59.76 142.73 60.03 120.14 C 64.32 122.37 69.38 122.15 73.73 124.24 C 76.28 125.41 80.25 127.00 82.00 123.79 C 81.39 120.93 80.14 118.23 79.77 115.31 Z" />
<path fill="#9c7caf" opacity="1.00" d=" M 547.93 160.20 C 553.56 158.13 558.86 155.29 564.30 152.79 C 565.57 153.79 564.95 155.36 564.75 156.70 C 563.88 161.09 561.79 165.31 562.31 169.89 C 569.60 168.18 575.71 163.44 582.08 159.70 C 589.73 168.56 598.70 176.37 608.99 182.00 C 628.18 192.90 651.22 196.66 672.91 192.73 C 688.99 189.97 704.08 182.68 716.79 172.54 C 715.94 175.42 713.86 177.65 712.14 180.03 C 702.54 192.67 689.63 202.78 675.09 209.16 C 644.11 223.18 605.83 219.05 578.60 198.67 C 574.53 195.52 570.45 192.29 566.95 188.51 L 567.29 187.40 C 569.20 188.69 571.17 189.93 573.36 190.72 C 583.37 194.59 593.19 199.01 602.48 204.41 C 605.08 205.88 607.43 207.82 610.21 208.96 C 612.59 208.83 613.69 206.59 614.15 204.56 C 608.76 204.00 604.44 200.60 599.71 198.31 C 591.59 194.18 583.32 190.26 574.68 187.31 C 570.13 185.82 565.96 183.42 561.44 181.85 C 561.16 181.74 560.59 181.52 560.31 181.41 C 555.78 174.58 551.11 167.80 547.93 160.20 Z" />
<path fill="#9c7caf" opacity="1.00" d=" M 728.32 161.41 C 728.35 161.38 728.41 161.31 728.44 161.27 C 728.41 161.31 728.35 161.38 728.32 161.41 Z" />
<path fill="#9c7caf" opacity="1.00" d=" M 302.85 337.61 C 307.58 317.05 320.14 298.89 336.27 285.53 C 324.45 303.60 318.62 325.59 320.70 347.14 C 322.72 371.50 334.59 394.90 353.13 410.85 C 366.83 422.82 384.05 430.68 402.06 433.26 C 419.33 435.83 437.13 433.34 453.28 426.83 C 456.09 428.38 458.91 429.89 461.82 431.24 C 435.32 457.28 392.96 464.51 358.92 450.10 C 336.93 441.22 318.83 423.51 308.90 402.04 C 300.37 384.54 298.04 364.35 301.18 345.22 C 303.01 344.09 304.17 342.28 305.34 340.55 C 304.51 339.57 303.67 338.59 302.85 337.61 Z" />
<path fill="#9c7caf" opacity="1.00" d=" M 788.41 321.41 C 794.57 307.33 804.70 295.40 816.21 285.38 C 812.98 291.19 809.48 296.88 807.12 303.12 C 793.78 335.80 800.37 375.86 824.34 401.95 C 829.32 419.48 838.06 435.64 845.13 452.35 C 814.87 442.70 790.65 416.64 782.98 385.86 C 777.36 364.59 779.24 341.43 788.41 321.41 Z" />
<path fill="#9c7caf" opacity="1.00" d=" M 957.91 411.64 C 958.17 410.40 958.86 409.95 960.00 410.28 L 960.00 411.87 C 959.48 411.81 958.43 411.70 957.91 411.64 Z" />
<path fill="#9c7caf" opacity="1.00" d=" M 834.02 415.85 C 833.27 414.10 832.79 412.25 832.48 410.38 C 853.87 429.29 883.90 437.89 912.04 432.87 C 928.40 430.33 943.55 422.79 956.67 412.86 C 950.58 424.20 940.86 433.25 930.42 440.58 C 907.83 456.40 878.20 461.27 851.59 454.32 L 851.41 454.09 C 844.67 441.79 839.32 428.81 834.02 415.85 Z" />
<path fill="#9c7caf" opacity="1.00" d=" M 459.18 424.11 C 465.43 420.64 471.38 416.71 477.10 412.44 C 474.25 418.17 469.73 422.74 465.83 427.73 L 465.43 427.56 C 463.26 426.56 461.20 425.35 459.18 424.11 Z" />
<path fill="#9c7caf" opacity="1.00" d=" M 103.47 515.74 C 103.53 515.67 103.65 515.54 103.71 515.47 C 103.65 515.54 103.53 515.67 103.47 515.74 Z" />
<path fill="#9c7caf" opacity="1.00" d=" M 571.97 529.88 C 574.01 527.95 576.52 526.66 578.84 525.13 C 576.85 527.05 574.41 528.60 572.99 531.04 C 562.94 548.41 558.66 569.04 560.88 588.99 C 562.84 607.99 570.76 626.30 583.15 640.82 C 593.18 652.69 606.28 661.70 620.57 667.67 C 617.55 676.10 614.57 684.57 610.66 692.63 C 609.78 694.24 607.70 692.81 606.40 692.62 C 586.81 686.26 569.31 673.47 557.50 656.56 C 540.91 633.27 535.76 602.37 543.77 574.95 C 548.60 557.64 558.56 541.83 571.97 529.88 Z" />
<path fill="#9c7caf" opacity="1.00" d=" M 65.86 567.96 C 71.54 551.16 82.89 536.84 96.25 525.42 C 94.12 529.25 91.75 532.96 89.87 536.92 C 81.91 553.26 78.80 571.91 80.99 589.94 C 83.09 608.62 91.00 626.55 103.17 640.84 C 114.51 654.12 129.56 664.17 146.17 669.55 C 165.82 676.01 187.56 675.77 207.11 669.05 C 217.86 665.53 227.51 659.49 236.64 652.92 C 228.81 667.18 215.81 678.05 201.76 685.91 C 170.79 702.94 130.52 700.82 101.45 680.72 C 86.14 670.22 73.97 655.22 67.00 638.00 C 59.05 618.75 57.76 596.94 62.90 576.79 C 64.30 575.63 65.98 574.60 66.75 572.88 C 67.37 571.17 66.32 569.53 65.86 567.96 Z" />
<path fill="#9c7caf" opacity="1.00" d=" M 678.49 671.42 C 688.50 669.34 697.93 665.04 706.63 659.72 C 706.81 661.73 706.94 663.75 707.05 665.78 C 691.81 682.42 670.75 693.59 648.33 696.44 C 645.61 696.73 642.87 697.26 640.14 696.90 C 634.02 696.02 627.81 696.94 621.70 695.98 C 625.45 690.90 630.78 687.47 635.74 683.74 C 639.58 680.43 643.68 677.42 647.31 673.88 C 652.47 674.30 657.66 674.28 662.84 674.07 C 663.38 676.69 662.93 680.01 665.08 681.99 C 666.72 683.35 668.31 681.59 669.57 680.60 C 672.71 677.70 675.72 674.66 678.49 671.42 Z" />
<path fill="#9c7caf" opacity="1.00" d=" M 624.94 669.17 C 630.38 670.98 635.98 672.24 641.60 673.36 C 633.32 679.16 625.72 685.86 617.21 691.33 C 616.68 687.97 619.01 685.18 620.15 682.22 C 621.89 677.92 623.30 673.50 624.94 669.17 Z" />
<path fill="#9c7caf" opacity="1.00" d=" M 308.39 801.42 C 314.57 787.35 324.63 775.34 336.28 765.46 C 330.01 775.44 325.02 786.31 322.58 797.89 C 317.85 819.22 320.56 842.19 330.52 861.66 C 328.94 861.40 328.08 860.03 327.20 858.88 C 324.67 855.42 322.07 851.85 318.46 849.45 C 317.43 849.29 316.39 849.19 315.36 849.15 C 314.60 857.40 315.26 865.71 315.37 873.98 C 316.02 879.82 316.55 885.93 313.93 891.42 C 297.13 864.90 295.44 829.87 308.39 801.42 Z" />
<path fill="#9c7caf" opacity="1.00" d=" M 553.35 774.37 C 553.43 774.41 553.61 774.49 553.69 774.54 L 553.49 774.45 L 553.35 774.37 Z" />
<path fill="#9c7caf" opacity="1.00" d=" M 806.40 778.14 C 807.26 777.61 808.19 777.23 809.20 777.00 C 808.67 778.81 808.13 780.61 807.59 782.41 C 807.15 780.99 806.69 779.59 806.40 778.14 Z" />
<path fill="#9c7caf" opacity="1.00" d=" M 783.43 867.68 C 775.05 837.98 781.47 804.05 801.60 780.41 C 803.46 783.01 804.51 786.06 805.03 789.20 C 798.70 808.08 798.82 828.98 804.87 847.91 C 807.59 856.99 812.17 865.34 817.18 873.33 C 808.39 872.65 799.77 870.81 791.03 869.78 C 788.47 869.17 786.06 868.00 783.43 867.68 Z" />
<path fill="#9c7caf" opacity="1.00" d=" M 319.90 858.62 C 324.68 862.07 327.14 867.61 331.11 871.84 C 333.46 874.30 334.61 877.70 337.09 880.04 C 338.54 881.38 340.18 879.67 341.59 879.13 C 348.79 887.38 356.88 895.10 366.53 900.43 C 364.44 902.94 361.42 904.25 358.58 905.70 C 351.58 909.63 344.80 913.94 337.86 917.96 C 330.38 912.56 323.84 905.88 318.50 898.38 C 318.84 890.47 321.19 882.66 320.39 874.70 C 319.84 869.36 319.69 863.98 319.90 858.62 Z" />
<path fill="#9c7caf" opacity="1.00" d=" M 785.78 875.15 C 797.86 874.60 809.81 877.35 821.72 879.08 C 842.19 904.69 876.52 918.11 908.94 913.35 C 926.53 911.12 943.06 903.43 956.94 892.53 C 950.38 904.51 940.10 914.12 928.84 921.68 C 907.85 935.69 881.24 940.43 856.57 935.53 C 841.46 932.37 827.02 925.74 815.08 915.91 C 801.80 905.33 791.94 890.89 785.78 875.15 Z" />
<path fill="#9c7caf" opacity="1.00" d=" M 479.33 890.58 C 479.40 890.52 479.53 890.40 479.60 890.34 C 479.53 890.40 479.40 890.52 479.33 890.58 Z" />
<path fill="#9c7caf" opacity="1.00" d=" M 957.93 891.66 C 958.16 890.39 958.85 889.93 960.00 890.29 L 960.00 891.87 C 959.48 891.82 958.45 891.71 957.93 891.66 Z" />
<path fill="#9c7caf" opacity="1.00" d=" M 431.00 913.04 C 447.86 910.54 463.68 903.00 476.97 892.45 C 476.15 894.08 475.30 895.72 474.25 897.23 C 465.22 909.91 453.05 920.41 439.02 927.19 C 408.86 942.78 370.19 940.37 342.26 921.07 C 351.25 913.99 361.87 909.38 371.74 903.68 C 389.94 912.76 410.88 916.39 431.00 913.04 Z" />
</g>
</svg>
